<svg width="57" height="56" viewBox="0 0 57 56" fill="none" xmlns="http://www.w3.org/2000/svg">
<rect x="0.518555" width="56" height="56" rx="14" fill="white"/>
<path d="M16.6688 24.0001H40.3687M21.917 16.0673L28.5188 24.0002L35.1317 16.0729M40.1002 23.3721L35.5021 16.475C35.3863 16.3013 35.3284 16.2145 35.252 16.1516C35.1843 16.096 35.1062 16.0542 35.0224 16.0288C34.9277 16 34.8233 16 34.6146 16H22.423C22.2143 16 22.1099 16 22.0152 16.0288C21.9313 16.0542 21.8533 16.096 21.7856 16.1516C21.7091 16.2145 21.6512 16.3013 21.5355 16.475L16.9374 23.3721C16.7867 23.5982 16.7113 23.7113 16.6843 23.8329C16.6605 23.9403 16.6636 24.0519 16.6933 24.1578C16.727 24.2778 16.8086 24.3865 16.9716 24.6038L27.6655 38.8624C27.9549 39.2484 28.0997 39.4414 28.2771 39.5104C28.4326 39.5709 28.605 39.5709 28.7604 39.5104C28.9379 39.4414 29.0826 39.2484 29.3721 38.8624L40.066 24.6038C40.229 24.3865 40.3105 24.2778 40.3442 24.1578C40.374 24.0519 40.3771 23.9403 40.3533 23.8329C40.3262 23.7113 40.2509 23.5982 40.1002 23.3721Z" stroke="#0077FF" stroke-width="2" stroke-linecap="round" stroke-linejoin="round"/>
</svg>
