<svg width="25" height="25" viewBox="0 0 25 25" fill="none" xmlns="http://www.w3.org/2000/svg">
<path d="M8.49805 16.2501C8.08384 16.2501 7.74805 16.5859 7.74805 17.0001C7.74805 17.4143 8.08384 17.7501 8.49805 17.7501V16.2501ZM12.498 17.7501C12.9122 17.7501 13.248 17.4143 13.248 17.0001C13.248 16.5859 12.9122 16.2501 12.498 16.2501V17.7501ZM8.49805 11.2501C8.08384 11.2501 7.74805 11.5859 7.74805 12.0001C7.74805 12.4143 8.08384 12.7501 8.49805 12.7501V11.2501ZM16.498 12.7501C16.9122 12.7501 17.248 12.4143 17.248 12.0001C17.248 11.5859 16.9122 11.2501 16.498 11.2501V12.7501ZM4.87477 5.36239L4.3442 4.83231L4.3442 4.83231L4.87477 5.36239ZM20.1174 5.3624L19.5868 5.89247L19.5868 5.89249L20.1174 5.3624ZM8.49805 17.7501H12.498V16.2501H8.49805V17.7501ZM8.49805 12.7501H16.498V11.2501H8.49805V12.7501ZM7.97752 3.75046C6.43319 3.79679 5.21691 3.95879 4.3442 4.83231L5.40535 5.89248C5.81632 5.48113 6.45522 5.2968 8.02249 5.24978L7.97752 3.75046ZM4.3442 4.83231C3.7424 5.43466 3.48359 6.19302 3.3626 7.09376C3.2445 7.973 3.24609 9.09414 3.24609 10.4885H4.74609C4.74609 9.05177 4.74768 8.04961 4.84925 7.29345C4.94793 6.55878 5.12846 6.16962 5.40535 5.89247L4.3442 4.83231ZM3.24609 10.4885V16.9945H4.74609V10.4885H3.24609ZM3.24609 16.9945C3.24609 18.3889 3.2445 19.51 3.3626 20.3893C3.48359 21.29 3.74241 22.0484 4.3442 22.6507L5.40535 21.5905C5.12846 21.3134 4.94793 20.9242 4.84925 20.1896C4.74768 19.4334 4.74609 18.4313 4.74609 16.9945H3.24609ZM4.3442 22.6507C4.94609 23.2532 5.70402 23.5123 6.60425 23.6335C7.48284 23.7517 8.60311 23.7501 9.99609 23.7501V22.2501C8.56066 22.2501 7.5596 22.2485 6.80431 22.1469C6.07066 22.0482 5.68214 21.8676 5.40535 21.5905L4.3442 22.6507ZM9.99609 23.7501H14.9961V22.2501H9.99609V23.7501ZM14.9961 23.7501C16.3891 23.7501 17.5093 23.7517 18.3879 23.6335C19.2882 23.5123 20.0461 23.2532 20.648 22.6507L19.5868 21.5905C19.31 21.8676 18.9215 22.0482 18.1879 22.1469C17.4326 22.2485 16.4315 22.2501 14.9961 22.2501V23.7501ZM20.648 22.6507C21.2498 22.0484 21.5086 21.29 21.6296 20.3893C21.7477 19.51 21.7461 18.3889 21.7461 16.9945H20.2461C20.2461 18.4313 20.2445 19.4334 20.1429 20.1896C20.0443 20.9242 19.8637 21.3134 19.5868 21.5905L20.648 22.6507ZM21.7461 16.9945V10.4885H20.2461V16.9945H21.7461ZM21.7461 10.4885C21.7461 9.09414 21.7477 7.973 21.6296 7.09376C21.5086 6.19301 21.2498 5.43466 20.648 4.83231L19.5868 5.89249C19.8637 6.16963 20.0443 6.55879 20.1429 7.29345C20.2445 8.04961 20.2461 9.05177 20.2461 10.4885H21.7461ZM20.648 4.83234C19.7753 3.95879 18.559 3.79678 17.0147 3.75046L16.9697 5.24978C18.537 5.2968 19.1759 5.48113 19.5868 5.89247L20.648 4.83234ZM8.74609 4.75012C8.74609 4.19784 9.19381 3.75012 9.74609 3.75012V2.25012C8.36539 2.25012 7.24609 3.36941 7.24609 4.75012H8.74609ZM9.74609 3.75012H15.2461V2.25012H9.74609V3.75012ZM15.2461 3.75012C15.7984 3.75012 16.2461 4.19784 16.2461 4.75012H17.7461C17.7461 3.36941 16.6268 2.25012 15.2461 2.25012V3.75012ZM16.2461 4.75012C16.2461 5.30241 15.7984 5.75012 15.2461 5.75012V7.25012C16.6268 7.25012 17.7461 6.13084 17.7461 4.75012H16.2461ZM15.2461 5.75012H9.74609V7.25012H15.2461V5.75012ZM9.74609 5.75012C9.19381 5.75012 8.74609 5.30241 8.74609 4.75012H7.24609C7.24609 6.13084 8.36539 7.25012 9.74609 7.25012V5.75012Z" fill="white"/>
</svg>
