<svg width="25" height="25" viewBox="0 0 25 25" fill="none" xmlns="http://www.w3.org/2000/svg">
<path d="M8.49805 16.25C8.08384 16.25 7.74805 16.5858 7.74805 17C7.74805 17.4142 8.08384 17.75 8.49805 17.75V16.25ZM12.498 17.75C12.9122 17.75 13.248 17.4142 13.248 17C13.248 16.5858 12.9122 16.25 12.498 16.25V17.75ZM8.49805 11.25C8.08384 11.25 7.74805 11.5858 7.74805 12C7.74805 12.4142 8.08384 12.75 8.49805 12.75V11.25ZM16.498 12.75C16.9122 12.75 17.248 12.4142 17.248 12C17.248 11.5858 16.9122 11.25 16.498 11.25V12.75ZM4.87477 5.36227L4.3442 4.83218L4.3442 4.83219L4.87477 5.36227ZM20.1174 5.36228L19.5868 5.89235L19.5868 5.89237L20.1174 5.36228ZM8.49805 17.75H12.498V16.25H8.49805V17.75ZM8.49805 12.75H16.498V11.25H8.49805V12.75ZM7.97752 3.75034C6.43319 3.79666 5.21691 3.95867 4.3442 4.83218L5.40535 5.89236C5.81632 5.48101 6.45522 5.29668 8.02249 5.24966L7.97752 3.75034ZM4.3442 4.83219C3.7424 5.43454 3.48359 6.19289 3.3626 7.09364C3.2445 7.97287 3.24609 9.09401 3.24609 10.4884H4.74609C4.74609 9.05165 4.74768 8.04949 4.84925 7.29332C4.94793 6.55866 5.12846 6.1695 5.40535 5.89235L4.3442 4.83219ZM3.24609 10.4884V16.9944H4.74609V10.4884H3.24609ZM3.24609 16.9944C3.24609 18.3888 3.2445 19.5099 3.3626 20.3891C3.48359 21.2899 3.74241 22.0482 4.3442 22.6506L5.40535 21.5904C5.12846 21.3133 4.94793 20.9241 4.84925 20.1895C4.74768 19.4333 4.74609 18.4311 4.74609 16.9944H3.24609ZM4.3442 22.6506C4.94609 23.253 5.70402 23.5122 6.60425 23.6334C7.48284 23.7516 8.60311 23.75 9.99609 23.75V22.25C8.56066 22.25 7.5596 22.2484 6.80431 22.1468C6.07066 22.048 5.68214 21.8675 5.40535 21.5904L4.3442 22.6506ZM9.99609 23.75H14.9961V22.25H9.99609V23.75ZM14.9961 23.75C16.3891 23.75 17.5093 23.7516 18.3879 23.6334C19.2882 23.5122 20.0461 23.253 20.648 22.6506L19.5868 21.5904C19.31 21.8675 18.9215 22.048 18.1879 22.1468C17.4326 22.2484 16.4315 22.25 14.9961 22.25V23.75ZM20.648 22.6506C21.2498 22.0482 21.5086 21.2899 21.6296 20.3891C21.7477 19.5099 21.7461 18.3888 21.7461 16.9944H20.2461C20.2461 18.4311 20.2445 19.4333 20.1429 20.1895C20.0443 20.9241 19.8637 21.3133 19.5868 21.5904L20.648 22.6506ZM21.7461 16.9944V10.4884H20.2461V16.9944H21.7461ZM21.7461 10.4884C21.7461 9.09401 21.7477 7.97287 21.6296 7.09363C21.5086 6.19289 21.2498 5.43454 20.648 4.83219L19.5868 5.89237C19.8637 6.16951 20.0443 6.55867 20.1429 7.29333C20.2445 8.04949 20.2461 9.05165 20.2461 10.4884H21.7461ZM20.648 4.83221C19.7753 3.95867 18.559 3.79666 17.0147 3.75034L16.9697 5.24966C18.537 5.29668 19.1759 5.48101 19.5868 5.89235L20.648 4.83221ZM8.74609 4.75C8.74609 4.19772 9.19381 3.75 9.74609 3.75V2.25C8.36539 2.25 7.24609 3.36928 7.24609 4.75H8.74609ZM9.74609 3.75H15.2461V2.25H9.74609V3.75ZM15.2461 3.75C15.7984 3.75 16.2461 4.19771 16.2461 4.75H17.7461C17.7461 3.36929 16.6268 2.25 15.2461 2.25V3.75ZM16.2461 4.75C16.2461 5.30229 15.7984 5.75 15.2461 5.75V7.25C16.6268 7.25 17.7461 6.13071 17.7461 4.75H16.2461ZM15.2461 5.75H9.74609V7.25H15.2461V5.75ZM9.74609 5.75C9.19381 5.75 8.74609 5.30228 8.74609 4.75H7.24609C7.24609 6.13072 8.36539 7.25 9.74609 7.25V5.75Z" fill="white"/>
</svg>
