<svg width="25" height="25" viewBox="0 0 25 25" fill="none" xmlns="http://www.w3.org/2000/svg">
<path d="M8.99805 15.7501C8.58384 15.7501 8.24805 16.0859 8.24805 16.5001C8.24805 16.9143 8.58384 17.2501 8.99805 17.2501V15.7501ZM12.998 17.2501C13.4122 17.2501 13.748 16.9143 13.748 16.5001C13.748 16.0859 13.4122 15.7501 12.998 15.7501V17.2501ZM8.99805 10.7501C8.58384 10.7501 8.24805 11.0859 8.24805 11.5001C8.24805 11.9143 8.58384 12.2501 8.99805 12.2501V10.7501ZM16.998 12.2501C17.4122 12.2501 17.748 11.9143 17.748 11.5001C17.748 11.0859 17.4122 10.7501 16.998 10.7501V12.2501ZM5.37477 4.86239L4.8442 4.33231L4.8442 4.33231L5.37477 4.86239ZM20.6174 4.8624L20.0868 5.39247L20.0868 5.39249L20.6174 4.8624ZM8.99805 17.2501H12.998V15.7501H8.99805V17.2501ZM8.99805 12.2501H16.998V10.7501H8.99805V12.2501ZM8.47752 3.25046C6.93319 3.29679 5.71691 3.45879 4.8442 4.33231L5.90535 5.39248C6.31632 4.98113 6.95522 4.7968 8.52249 4.74978L8.47752 3.25046ZM4.8442 4.33231C4.2424 4.93466 3.98359 5.69302 3.8626 6.59376C3.7445 7.473 3.74609 8.59414 3.74609 9.98848H5.24609C5.24609 8.55177 5.24768 7.54961 5.34925 6.79345C5.44793 6.05878 5.62846 5.66962 5.90535 5.39247L4.8442 4.33231ZM3.74609 9.98848V16.4945H5.24609V9.98848H3.74609ZM3.74609 16.4945C3.74609 17.8889 3.7445 19.01 3.8626 19.8893C3.98359 20.79 4.24241 21.5484 4.8442 22.1507L5.90535 21.0905C5.62846 20.8134 5.44793 20.4242 5.34925 19.6896C5.24768 18.9334 5.24609 17.9313 5.24609 16.4945H3.74609ZM4.8442 22.1507C5.44609 22.7532 6.20402 23.0123 7.10425 23.1335C7.98284 23.2517 9.10311 23.2501 10.4961 23.2501V21.7501C9.06066 21.7501 8.0596 21.7485 7.30431 21.6469C6.57066 21.5482 6.18214 21.3676 5.90535 21.0905L4.8442 22.1507ZM10.4961 23.2501H15.4961V21.7501H10.4961V23.2501ZM15.4961 23.2501C16.8891 23.2501 18.0093 23.2517 18.8879 23.1335C19.7882 23.0123 20.5461 22.7532 21.148 22.1507L20.0868 21.0905C19.81 21.3676 19.4215 21.5482 18.6879 21.6469C17.9326 21.7485 16.9315 21.7501 15.4961 21.7501V23.2501ZM21.148 22.1507C21.7498 21.5484 22.0086 20.79 22.1296 19.8893C22.2477 19.01 22.2461 17.8889 22.2461 16.4945H20.7461C20.7461 17.9313 20.7445 18.9334 20.6429 19.6896C20.5443 20.4242 20.3637 20.8134 20.0868 21.0905L21.148 22.1507ZM22.2461 16.4945V9.98848H20.7461V16.4945H22.2461ZM22.2461 9.98848C22.2461 8.59414 22.2477 7.473 22.1296 6.59376C22.0086 5.69301 21.7498 4.93466 21.148 4.33231L20.0868 5.39249C20.3637 5.66963 20.5443 6.05879 20.6429 6.79345C20.7445 7.54961 20.7461 8.55177 20.7461 9.98848H22.2461ZM21.148 4.33234C20.2753 3.45879 19.059 3.29678 17.5147 3.25046L17.4697 4.74978C19.037 4.7968 19.6759 4.98113 20.0868 5.39247L21.148 4.33234ZM9.24609 4.25012C9.24609 3.69784 9.69381 3.25012 10.2461 3.25012V1.75012C8.86539 1.75012 7.74609 2.86941 7.74609 4.25012H9.24609ZM10.2461 3.25012H15.7461V1.75012H10.2461V3.25012ZM15.7461 3.25012C16.2984 3.25012 16.7461 3.69784 16.7461 4.25012H18.2461C18.2461 2.86941 17.1268 1.75012 15.7461 1.75012V3.25012ZM16.7461 4.25012C16.7461 4.80241 16.2984 5.25012 15.7461 5.25012V6.75012C17.1268 6.75012 18.2461 5.63084 18.2461 4.25012H16.7461ZM15.7461 5.25012H10.2461V6.75012H15.7461V5.25012ZM10.2461 5.25012C9.69381 5.25012 9.24609 4.80241 9.24609 4.25012H7.74609C7.74609 5.63084 8.86539 6.75012 10.2461 6.75012V5.25012Z" fill="#191919"/>
</svg>
