<svg width="1437" height="983" viewBox="0 0 1437 983" fill="none" xmlns="http://www.w3.org/2000/svg">
<g clip-path="url(#clip0_590_1033)">
<mask id="mask0_590_1033" style="mask-type:alpha" maskUnits="userSpaceOnUse" x="-1" y="0" width="1440" height="1440">
<rect width="1440" height="1197" transform="translate(-1)" fill="url(#paint0_radial_590_1033)"/>
</mask>
<g mask="url(#mask0_590_1033)">
<g clip-path="url(#clip1_590_1033)">
<mask id="path-3-inside-1_590_1033" fill="white">
<path d="M-49 0H47V96H-49V0Z"/>
</mask>
<path d="M47 96V97H48V96H47ZM46 0V96H48V0H46ZM47 95H-49V97H47V95Z" fill="#E2F1FF" mask="url(#path-3-inside-1_590_1033)"/>
<mask id="path-5-inside-2_590_1033" fill="white">
<path d="M47 0H143V96H47V0Z"/>
</mask>
<path d="M143 96V97H144V96H143ZM142 0V96H144V0H142ZM143 95H47V97H143V95Z" fill="#E2F1FF" mask="url(#path-5-inside-2_590_1033)"/>
<mask id="path-7-inside-3_590_1033" fill="white">
<path d="M143 0H239V96H143V0Z"/>
</mask>
<path d="M239 96V97H240V96H239ZM238 0V96H240V0H238ZM239 95H143V97H239V95Z" fill="#E2F1FF" mask="url(#path-7-inside-3_590_1033)"/>
<mask id="path-9-inside-4_590_1033" fill="white">
<path d="M239 0H335V96H239V0Z"/>
</mask>
<path d="M335 96V97H336V96H335ZM334 0V96H336V0H334ZM335 95H239V97H335V95Z" fill="#E2F1FF" mask="url(#path-9-inside-4_590_1033)"/>
<mask id="path-11-inside-5_590_1033" fill="white">
<path d="M335 0H431V96H335V0Z"/>
</mask>
<path d="M431 96V97H432V96H431ZM430 0V96H432V0H430ZM431 95H335V97H431V95Z" fill="#E2F1FF" mask="url(#path-11-inside-5_590_1033)"/>
<mask id="path-13-inside-6_590_1033" fill="white">
<path d="M431 0H527V96H431V0Z"/>
</mask>
<path d="M527 96V97H528V96H527ZM526 0V96H528V0H526ZM527 95H431V97H527V95Z" fill="#E2F1FF" mask="url(#path-13-inside-6_590_1033)"/>
<mask id="path-15-inside-7_590_1033" fill="white">
<path d="M527 0H623V96H527V0Z"/>
</mask>
<path d="M623 96V97H624V96H623ZM622 0V96H624V0H622ZM623 95H527V97H623V95Z" fill="#E2F1FF" mask="url(#path-15-inside-7_590_1033)"/>
<mask id="path-17-inside-8_590_1033" fill="white">
<path d="M623 0H719V96H623V0Z"/>
</mask>
<path d="M719 96V97H720V96H719ZM718 0V96H720V0H718ZM719 95H623V97H719V95Z" fill="#E2F1FF" mask="url(#path-17-inside-8_590_1033)"/>
<mask id="path-19-inside-9_590_1033" fill="white">
<path d="M719 0H815V96H719V0Z"/>
</mask>
<path d="M815 96V97H816V96H815ZM814 0V96H816V0H814ZM815 95H719V97H815V95Z" fill="#E2F1FF" mask="url(#path-19-inside-9_590_1033)"/>
<mask id="path-21-inside-10_590_1033" fill="white">
<path d="M815 0H911V96H815V0Z"/>
</mask>
<path d="M911 96V97H912V96H911ZM910 0V96H912V0H910ZM911 95H815V97H911V95Z" fill="#E2F1FF" mask="url(#path-21-inside-10_590_1033)"/>
<mask id="path-23-inside-11_590_1033" fill="white">
<path d="M911 0H1007V96H911V0Z"/>
</mask>
<path d="M1007 96V97H1008V96H1007ZM1006 0V96H1008V0H1006ZM1007 95H911V97H1007V95Z" fill="#E2F1FF" mask="url(#path-23-inside-11_590_1033)"/>
<mask id="path-25-inside-12_590_1033" fill="white">
<path d="M1007 0H1103V96H1007V0Z"/>
</mask>
<path d="M1103 96V97H1104V96H1103ZM1102 0V96H1104V0H1102ZM1103 95H1007V97H1103V95Z" fill="#E2F1FF" mask="url(#path-25-inside-12_590_1033)"/>
<mask id="path-27-inside-13_590_1033" fill="white">
<path d="M1103 0H1199V96H1103V0Z"/>
</mask>
<path d="M1199 96V97H1200V96H1199ZM1198 0V96H1200V0H1198ZM1199 95H1103V97H1199V95Z" fill="#E2F1FF" mask="url(#path-27-inside-13_590_1033)"/>
<mask id="path-29-inside-14_590_1033" fill="white">
<path d="M1199 0H1295V96H1199V0Z"/>
</mask>
<path d="M1295 96V97H1296V96H1295ZM1294 0V96H1296V0H1294ZM1295 95H1199V97H1295V95Z" fill="#E2F1FF" mask="url(#path-29-inside-14_590_1033)"/>
<mask id="path-31-inside-15_590_1033" fill="white">
<path d="M1295 0H1391V96H1295V0Z"/>
</mask>
<path d="M1391 96V97H1392V96H1391ZM1390 0V96H1392V0H1390ZM1391 95H1295V97H1391V95Z" fill="#E2F1FF" mask="url(#path-31-inside-15_590_1033)"/>
<mask id="path-33-inside-16_590_1033" fill="white">
<path d="M1391 0H1487V96H1391V0Z"/>
</mask>
<path d="M1487 96V97H1488V96H1487ZM1486 0V96H1488V0H1486ZM1487 95H1391V97H1487V95Z" fill="#E2F1FF" mask="url(#path-33-inside-16_590_1033)"/>
<mask id="path-35-inside-17_590_1033" fill="white">
<path d="M-49 96H47V192H-49V96Z"/>
</mask>
<path d="M47 192V193H48V192H47ZM46 96V192H48V96H46ZM47 191H-49V193H47V191Z" fill="#E2F1FF" mask="url(#path-35-inside-17_590_1033)"/>
<mask id="path-37-inside-18_590_1033" fill="white">
<path d="M47 96H143V192H47V96Z"/>
</mask>
<path d="M143 192V193H144V192H143ZM142 96V192H144V96H142ZM143 191H47V193H143V191Z" fill="#E2F1FF" mask="url(#path-37-inside-18_590_1033)"/>
<mask id="path-39-inside-19_590_1033" fill="white">
<path d="M143 96H239V192H143V96Z"/>
</mask>
<path d="M239 192V193H240V192H239ZM238 96V192H240V96H238ZM239 191H143V193H239V191Z" fill="#E2F1FF" mask="url(#path-39-inside-19_590_1033)"/>
<mask id="path-41-inside-20_590_1033" fill="white">
<path d="M239 96H335V192H239V96Z"/>
</mask>
<path d="M239 96H335V192H239V96Z" fill="#EEF7FF" fill-opacity="0.7"/>
<path d="M335 192V193H336V192H335ZM334 96V192H336V96H334ZM335 191H239V193H335V191Z" fill="#E2F1FF" mask="url(#path-41-inside-20_590_1033)"/>
<mask id="path-43-inside-21_590_1033" fill="white">
<path d="M335 96H431V192H335V96Z"/>
</mask>
<path d="M431 192V193H432V192H431ZM430 96V192H432V96H430ZM431 191H335V193H431V191Z" fill="#E2F1FF" mask="url(#path-43-inside-21_590_1033)"/>
<mask id="path-45-inside-22_590_1033" fill="white">
<path d="M431 96H527V192H431V96Z"/>
</mask>
<path d="M527 192V193H528V192H527ZM526 96V192H528V96H526ZM527 191H431V193H527V191Z" fill="#E2F1FF" mask="url(#path-45-inside-22_590_1033)"/>
<mask id="path-47-inside-23_590_1033" fill="white">
<path d="M527 96H623V192H527V96Z"/>
</mask>
<path d="M623 192V193H624V192H623ZM622 96V192H624V96H622ZM623 191H527V193H623V191Z" fill="#E2F1FF" mask="url(#path-47-inside-23_590_1033)"/>
<mask id="path-49-inside-24_590_1033" fill="white">
<path d="M623 96H719V192H623V96Z"/>
</mask>
<path d="M719 192V193H720V192H719ZM718 96V192H720V96H718ZM719 191H623V193H719V191Z" fill="#E2F1FF" mask="url(#path-49-inside-24_590_1033)"/>
<mask id="path-51-inside-25_590_1033" fill="white">
<path d="M719 96H815V192H719V96Z"/>
</mask>
<path d="M815 192V193H816V192H815ZM814 96V192H816V96H814ZM815 191H719V193H815V191Z" fill="#E2F1FF" mask="url(#path-51-inside-25_590_1033)"/>
<mask id="path-53-inside-26_590_1033" fill="white">
<path d="M815 96H911V192H815V96Z"/>
</mask>
<path d="M911 192V193H912V192H911ZM910 96V192H912V96H910ZM911 191H815V193H911V191Z" fill="#E2F1FF" mask="url(#path-53-inside-26_590_1033)"/>
<mask id="path-55-inside-27_590_1033" fill="white">
<path d="M911 96H1007V192H911V96Z"/>
</mask>
<path d="M1007 192V193H1008V192H1007ZM1006 96V192H1008V96H1006ZM1007 191H911V193H1007V191Z" fill="#E2F1FF" mask="url(#path-55-inside-27_590_1033)"/>
<mask id="path-57-inside-28_590_1033" fill="white">
<path d="M1007 96H1103V192H1007V96Z"/>
</mask>
<path d="M1103 192V193H1104V192H1103ZM1102 96V192H1104V96H1102ZM1103 191H1007V193H1103V191Z" fill="#E2F1FF" mask="url(#path-57-inside-28_590_1033)"/>
<mask id="path-59-inside-29_590_1033" fill="white">
<path d="M1103 96H1199V192H1103V96Z"/>
</mask>
<path d="M1103 96H1199V192H1103V96Z" fill="#EEF7FF" fill-opacity="0.7"/>
<path d="M1199 192V193H1200V192H1199ZM1198 96V192H1200V96H1198ZM1199 191H1103V193H1199V191Z" fill="#E2F1FF" mask="url(#path-59-inside-29_590_1033)"/>
<mask id="path-61-inside-30_590_1033" fill="white">
<path d="M1199 96H1295V192H1199V96Z"/>
</mask>
<path d="M1295 192V193H1296V192H1295ZM1294 96V192H1296V96H1294ZM1295 191H1199V193H1295V191Z" fill="#E2F1FF" mask="url(#path-61-inside-30_590_1033)"/>
<mask id="path-63-inside-31_590_1033" fill="white">
<path d="M1295 96H1391V192H1295V96Z"/>
</mask>
<path d="M1391 192V193H1392V192H1391ZM1390 96V192H1392V96H1390ZM1391 191H1295V193H1391V191Z" fill="#E2F1FF" mask="url(#path-63-inside-31_590_1033)"/>
<mask id="path-65-inside-32_590_1033" fill="white">
<path d="M1391 96H1487V192H1391V96Z"/>
</mask>
<path d="M1487 192V193H1488V192H1487ZM1486 96V192H1488V96H1486ZM1487 191H1391V193H1487V191Z" fill="#E2F1FF" mask="url(#path-65-inside-32_590_1033)"/>
<mask id="path-67-inside-33_590_1033" fill="white">
<path d="M-49 192H47V288H-49V192Z"/>
</mask>
<path d="M47 288V289H48V288H47ZM46 192V288H48V192H46ZM47 287H-49V289H47V287Z" fill="#E2F1FF" mask="url(#path-67-inside-33_590_1033)"/>
<mask id="path-69-inside-34_590_1033" fill="white">
<path d="M47 192H143V288H47V192Z"/>
</mask>
<path d="M143 288V289H144V288H143ZM142 192V288H144V192H142ZM143 287H47V289H143V287Z" fill="#E2F1FF" mask="url(#path-69-inside-34_590_1033)"/>
<mask id="path-71-inside-35_590_1033" fill="white">
<path d="M143 192H239V288H143V192Z"/>
</mask>
<path d="M239 288V289H240V288H239ZM238 192V288H240V192H238ZM239 287H143V289H239V287Z" fill="#E2F1FF" mask="url(#path-71-inside-35_590_1033)"/>
<mask id="path-73-inside-36_590_1033" fill="white">
<path d="M239 192H335V288H239V192Z"/>
</mask>
<path d="M335 288V289H336V288H335ZM334 192V288H336V192H334ZM335 287H239V289H335V287Z" fill="#E2F1FF" mask="url(#path-73-inside-36_590_1033)"/>
<mask id="path-75-inside-37_590_1033" fill="white">
<path d="M335 192H431V288H335V192Z"/>
</mask>
<path d="M431 288V289H432V288H431ZM430 192V288H432V192H430ZM431 287H335V289H431V287Z" fill="#E2F1FF" mask="url(#path-75-inside-37_590_1033)"/>
<mask id="path-77-inside-38_590_1033" fill="white">
<path d="M431 192H527V288H431V192Z"/>
</mask>
<path d="M431 192H527V288H431V192Z" fill="#EEF7FF" fill-opacity="0.7"/>
<path d="M527 288V289H528V288H527ZM526 192V288H528V192H526ZM527 287H431V289H527V287Z" fill="#E2F1FF" mask="url(#path-77-inside-38_590_1033)"/>
<mask id="path-79-inside-39_590_1033" fill="white">
<path d="M527 192H623V288H527V192Z"/>
</mask>
<path d="M623 288V289H624V288H623ZM622 192V288H624V192H622ZM623 287H527V289H623V287Z" fill="#E2F1FF" mask="url(#path-79-inside-39_590_1033)"/>
<mask id="path-81-inside-40_590_1033" fill="white">
<path d="M623 192H719V288H623V192Z"/>
</mask>
<path d="M719 288V289H720V288H719ZM718 192V288H720V192H718ZM719 287H623V289H719V287Z" fill="#E2F1FF" mask="url(#path-81-inside-40_590_1033)"/>
<mask id="path-83-inside-41_590_1033" fill="white">
<path d="M719 192H815V288H719V192Z"/>
</mask>
<path d="M815 288V289H816V288H815ZM814 192V288H816V192H814ZM815 287H719V289H815V287Z" fill="#E2F1FF" mask="url(#path-83-inside-41_590_1033)"/>
<mask id="path-85-inside-42_590_1033" fill="white">
<path d="M815 192H911V288H815V192Z"/>
</mask>
<path d="M815 192H911V288H815V192Z" fill="#EEF7FF" fill-opacity="0.7"/>
<path d="M911 288V289H912V288H911ZM910 192V288H912V192H910ZM911 287H815V289H911V287Z" fill="#E2F1FF" mask="url(#path-85-inside-42_590_1033)"/>
<mask id="path-87-inside-43_590_1033" fill="white">
<path d="M911 192H1007V288H911V192Z"/>
</mask>
<path d="M1007 288V289H1008V288H1007ZM1006 192V288H1008V192H1006ZM1007 287H911V289H1007V287Z" fill="#E2F1FF" mask="url(#path-87-inside-43_590_1033)"/>
<mask id="path-89-inside-44_590_1033" fill="white">
<path d="M1007 192H1103V288H1007V192Z"/>
</mask>
<path d="M1103 288V289H1104V288H1103ZM1102 192V288H1104V192H1102ZM1103 287H1007V289H1103V287Z" fill="#E2F1FF" mask="url(#path-89-inside-44_590_1033)"/>
<mask id="path-91-inside-45_590_1033" fill="white">
<path d="M1103 192H1199V288H1103V192Z"/>
</mask>
<path d="M1199 288V289H1200V288H1199ZM1198 192V288H1200V192H1198ZM1199 287H1103V289H1199V287Z" fill="#E2F1FF" mask="url(#path-91-inside-45_590_1033)"/>
<mask id="path-93-inside-46_590_1033" fill="white">
<path d="M1199 192H1295V288H1199V192Z"/>
</mask>
<path d="M1295 288V289H1296V288H1295ZM1294 192V288H1296V192H1294ZM1295 287H1199V289H1295V287Z" fill="#E2F1FF" mask="url(#path-93-inside-46_590_1033)"/>
<mask id="path-95-inside-47_590_1033" fill="white">
<path d="M1295 192H1391V288H1295V192Z"/>
</mask>
<path d="M1391 288V289H1392V288H1391ZM1390 192V288H1392V192H1390ZM1391 287H1295V289H1391V287Z" fill="#E2F1FF" mask="url(#path-95-inside-47_590_1033)"/>
<mask id="path-97-inside-48_590_1033" fill="white">
<path d="M1391 192H1487V288H1391V192Z"/>
</mask>
<path d="M1487 288V289H1488V288H1487ZM1486 192V288H1488V192H1486ZM1487 287H1391V289H1487V287Z" fill="#E2F1FF" mask="url(#path-97-inside-48_590_1033)"/>
<mask id="path-99-inside-49_590_1033" fill="white">
<path d="M-49 288H47V384H-49V288Z"/>
</mask>
<path d="M-49 288H47V384H-49V288Z" fill="#E2F1FF"/>
<path d="M47 384V385H48V384H47ZM46 288V384H48V288H46ZM47 383H-49V385H47V383Z" fill="#E2F1FF" mask="url(#path-99-inside-49_590_1033)"/>
<mask id="path-101-inside-50_590_1033" fill="white">
<path d="M47 288H143V384H47V288Z"/>
</mask>
<path d="M143 384V385H144V384H143ZM142 288V384H144V288H142ZM143 383H47V385H143V383Z" fill="#E2F1FF" mask="url(#path-101-inside-50_590_1033)"/>
<mask id="path-103-inside-51_590_1033" fill="white">
<path d="M143 288H239V384H143V288Z"/>
</mask>
<path d="M239 384V385H240V384H239ZM238 288V384H240V288H238ZM239 383H143V385H239V383Z" fill="#E2F1FF" mask="url(#path-103-inside-51_590_1033)"/>
<mask id="path-105-inside-52_590_1033" fill="white">
<path d="M239 288H335V384H239V288Z"/>
</mask>
<path d="M335 384V385H336V384H335ZM334 288V384H336V288H334ZM335 383H239V385H335V383Z" fill="#E2F1FF" mask="url(#path-105-inside-52_590_1033)"/>
<mask id="path-107-inside-53_590_1033" fill="white">
<path d="M335 288H431V384H335V288Z"/>
</mask>
<path d="M431 384V385H432V384H431ZM430 288V384H432V288H430ZM431 383H335V385H431V383Z" fill="#E2F1FF" mask="url(#path-107-inside-53_590_1033)"/>
<mask id="path-109-inside-54_590_1033" fill="white">
<path d="M431 288H527V384H431V288Z"/>
</mask>
<path d="M527 384V385H528V384H527ZM526 288V384H528V288H526ZM527 383H431V385H527V383Z" fill="#E2F1FF" mask="url(#path-109-inside-54_590_1033)"/>
<mask id="path-111-inside-55_590_1033" fill="white">
<path d="M527 288H623V384H527V288Z"/>
</mask>
<path d="M623 384V385H624V384H623ZM622 288V384H624V288H622ZM623 383H527V385H623V383Z" fill="#E2F1FF" mask="url(#path-111-inside-55_590_1033)"/>
<mask id="path-113-inside-56_590_1033" fill="white">
<path d="M623 288H719V384H623V288Z"/>
</mask>
<path d="M719 384V385H720V384H719ZM718 288V384H720V288H718ZM719 383H623V385H719V383Z" fill="#E2F1FF" mask="url(#path-113-inside-56_590_1033)"/>
<mask id="path-115-inside-57_590_1033" fill="white">
<path d="M719 288H815V384H719V288Z"/>
</mask>
<path d="M815 384V385H816V384H815ZM814 288V384H816V288H814ZM815 383H719V385H815V383Z" fill="#E2F1FF" mask="url(#path-115-inside-57_590_1033)"/>
<mask id="path-117-inside-58_590_1033" fill="white">
<path d="M815 288H911V384H815V288Z"/>
</mask>
<path d="M911 384V385H912V384H911ZM910 288V384H912V288H910ZM911 383H815V385H911V383Z" fill="#E2F1FF" mask="url(#path-117-inside-58_590_1033)"/>
<mask id="path-119-inside-59_590_1033" fill="white">
<path d="M911 288H1007V384H911V288Z"/>
</mask>
<path d="M1007 384V385H1008V384H1007ZM1006 288V384H1008V288H1006ZM1007 383H911V385H1007V383Z" fill="#E2F1FF" mask="url(#path-119-inside-59_590_1033)"/>
<mask id="path-121-inside-60_590_1033" fill="white">
<path d="M1007 288H1103V384H1007V288Z"/>
</mask>
<path d="M1103 384V385H1104V384H1103ZM1102 288V384H1104V288H1102ZM1103 383H1007V385H1103V383Z" fill="#E2F1FF" mask="url(#path-121-inside-60_590_1033)"/>
<mask id="path-123-inside-61_590_1033" fill="white">
<path d="M1103 288H1199V384H1103V288Z"/>
</mask>
<path d="M1103 288H1199V384H1103V288Z" fill="#EEF7FF" fill-opacity="0.7"/>
<path d="M1199 384V385H1200V384H1199ZM1198 288V384H1200V288H1198ZM1199 383H1103V385H1199V383Z" fill="#E2F1FF" mask="url(#path-123-inside-61_590_1033)"/>
<mask id="path-125-inside-62_590_1033" fill="white">
<path d="M1199 288H1295V384H1199V288Z"/>
</mask>
<path d="M1295 384V385H1296V384H1295ZM1294 288V384H1296V288H1294ZM1295 383H1199V385H1295V383Z" fill="#E2F1FF" mask="url(#path-125-inside-62_590_1033)"/>
<mask id="path-127-inside-63_590_1033" fill="white">
<path d="M1295 288H1391V384H1295V288Z"/>
</mask>
<path d="M1391 384V385H1392V384H1391ZM1390 288V384H1392V288H1390ZM1391 383H1295V385H1391V383Z" fill="#E2F1FF" mask="url(#path-127-inside-63_590_1033)"/>
<mask id="path-129-inside-64_590_1033" fill="white">
<path d="M1391 288H1487V384H1391V288Z"/>
</mask>
<path d="M1487 384V385H1488V384H1487ZM1486 288V384H1488V288H1486ZM1487 383H1391V385H1487V383Z" fill="#E2F1FF" mask="url(#path-129-inside-64_590_1033)"/>
<mask id="path-131-inside-65_590_1033" fill="white">
<path d="M-49 384H47V480H-49V384Z"/>
</mask>
<path d="M47 480V481H48V480H47ZM46 384V480H48V384H46ZM47 479H-49V481H47V479Z" fill="#E2F1FF" mask="url(#path-131-inside-65_590_1033)"/>
<mask id="path-133-inside-66_590_1033" fill="white">
<path d="M47 384H143V480H47V384Z"/>
</mask>
<path d="M143 480V481H144V480H143ZM142 384V480H144V384H142ZM143 479H47V481H143V479Z" fill="#E2F1FF" mask="url(#path-133-inside-66_590_1033)"/>
<mask id="path-135-inside-67_590_1033" fill="white">
<path d="M143 384H239V480H143V384Z"/>
</mask>
<path d="M239 480V481H240V480H239ZM238 384V480H240V384H238ZM239 479H143V481H239V479Z" fill="#E2F1FF" mask="url(#path-135-inside-67_590_1033)"/>
<mask id="path-137-inside-68_590_1033" fill="white">
<path d="M239 384H335V480H239V384Z"/>
</mask>
<path d="M335 480V481H336V480H335ZM334 384V480H336V384H334ZM335 479H239V481H335V479Z" fill="#E2F1FF" mask="url(#path-137-inside-68_590_1033)"/>
<mask id="path-139-inside-69_590_1033" fill="white">
<path d="M335 384H431V480H335V384Z"/>
</mask>
<path d="M431 480V481H432V480H431ZM430 384V480H432V384H430ZM431 479H335V481H431V479Z" fill="#E2F1FF" mask="url(#path-139-inside-69_590_1033)"/>
<mask id="path-141-inside-70_590_1033" fill="white">
<path d="M431 384H527V480H431V384Z"/>
</mask>
<path d="M527 480V481H528V480H527ZM526 384V480H528V384H526ZM527 479H431V481H527V479Z" fill="#E2F1FF" mask="url(#path-141-inside-70_590_1033)"/>
<mask id="path-143-inside-71_590_1033" fill="white">
<path d="M527 384H623V480H527V384Z"/>
</mask>
<path d="M527 384H623V480H527V384Z" fill="#EEF7FF" fill-opacity="0.7"/>
<path d="M623 480V481H624V480H623ZM622 384V480H624V384H622ZM623 479H527V481H623V479Z" fill="#E2F1FF" mask="url(#path-143-inside-71_590_1033)"/>
<mask id="path-145-inside-72_590_1033" fill="white">
<path d="M623 384H719V480H623V384Z"/>
</mask>
<path d="M719 480V481H720V480H719ZM718 384V480H720V384H718ZM719 479H623V481H719V479Z" fill="#E2F1FF" mask="url(#path-145-inside-72_590_1033)"/>
<mask id="path-147-inside-73_590_1033" fill="white">
<path d="M719 384H815V480H719V384Z"/>
</mask>
<path d="M815 480V481H816V480H815ZM814 384V480H816V384H814ZM815 479H719V481H815V479Z" fill="#E2F1FF" mask="url(#path-147-inside-73_590_1033)"/>
<mask id="path-149-inside-74_590_1033" fill="white">
<path d="M815 384H911V480H815V384Z"/>
</mask>
<path d="M911 480V481H912V480H911ZM910 384V480H912V384H910ZM911 479H815V481H911V479Z" fill="#E2F1FF" mask="url(#path-149-inside-74_590_1033)"/>
<mask id="path-151-inside-75_590_1033" fill="white">
<path d="M911 384H1007V480H911V384Z"/>
</mask>
<path d="M1007 480V481H1008V480H1007ZM1006 384V480H1008V384H1006ZM1007 479H911V481H1007V479Z" fill="#E2F1FF" mask="url(#path-151-inside-75_590_1033)"/>
<mask id="path-153-inside-76_590_1033" fill="white">
<path d="M1007 384H1103V480H1007V384Z"/>
</mask>
<path d="M1103 480V481H1104V480H1103ZM1102 384V480H1104V384H1102ZM1103 479H1007V481H1103V479Z" fill="#E2F1FF" mask="url(#path-153-inside-76_590_1033)"/>
<mask id="path-155-inside-77_590_1033" fill="white">
<path d="M1103 384H1199V480H1103V384Z"/>
</mask>
<path d="M1199 480V481H1200V480H1199ZM1198 384V480H1200V384H1198ZM1199 479H1103V481H1199V479Z" fill="#E2F1FF" mask="url(#path-155-inside-77_590_1033)"/>
<mask id="path-157-inside-78_590_1033" fill="white">
<path d="M1199 384H1295V480H1199V384Z"/>
</mask>
<path d="M1295 480V481H1296V480H1295ZM1294 384V480H1296V384H1294ZM1295 479H1199V481H1295V479Z" fill="#E2F1FF" mask="url(#path-157-inside-78_590_1033)"/>
<mask id="path-159-inside-79_590_1033" fill="white">
<path d="M1295 384H1391V480H1295V384Z"/>
</mask>
<path d="M1391 480V481H1392V480H1391ZM1390 384V480H1392V384H1390ZM1391 479H1295V481H1391V479Z" fill="#E2F1FF" mask="url(#path-159-inside-79_590_1033)"/>
<mask id="path-161-inside-80_590_1033" fill="white">
<path d="M1391 384H1487V480H1391V384Z"/>
</mask>
<path d="M1487 480V481H1488V480H1487ZM1486 384V480H1488V384H1486ZM1487 479H1391V481H1487V479Z" fill="#E2F1FF" mask="url(#path-161-inside-80_590_1033)"/>
<mask id="path-163-inside-81_590_1033" fill="white">
<path d="M-49 480H47V576H-49V480Z"/>
</mask>
<path d="M47 576V577H48V576H47ZM46 480V576H48V480H46ZM47 575H-49V577H47V575Z" fill="#E2F1FF" mask="url(#path-163-inside-81_590_1033)"/>
<mask id="path-165-inside-82_590_1033" fill="white">
<path d="M47 480H143V576H47V480Z"/>
</mask>
<path d="M143 576V577H144V576H143ZM142 480V576H144V480H142ZM143 575H47V577H143V575Z" fill="#E2F1FF" mask="url(#path-165-inside-82_590_1033)"/>
<mask id="path-167-inside-83_590_1033" fill="white">
<path d="M143 480H239V576H143V480Z"/>
</mask>
<path d="M239 576V577H240V576H239ZM238 480V576H240V480H238ZM239 575H143V577H239V575Z" fill="#E2F1FF" mask="url(#path-167-inside-83_590_1033)"/>
<mask id="path-169-inside-84_590_1033" fill="white">
<path d="M239 480H335V576H239V480Z"/>
</mask>
<path d="M239 480H335V576H239V480Z" fill="#EEF7FF" fill-opacity="0.7"/>
<path d="M335 576V577H336V576H335ZM334 480V576H336V480H334ZM335 575H239V577H335V575Z" fill="#E2F1FF" mask="url(#path-169-inside-84_590_1033)"/>
<mask id="path-171-inside-85_590_1033" fill="white">
<path d="M335 480H431V576H335V480Z"/>
</mask>
<path d="M431 576V577H432V576H431ZM430 480V576H432V480H430ZM431 575H335V577H431V575Z" fill="#E2F1FF" mask="url(#path-171-inside-85_590_1033)"/>
<mask id="path-173-inside-86_590_1033" fill="white">
<path d="M431 480H527V576H431V480Z"/>
</mask>
<path d="M527 576V577H528V576H527ZM526 480V576H528V480H526ZM527 575H431V577H527V575Z" fill="#E2F1FF" mask="url(#path-173-inside-86_590_1033)"/>
<mask id="path-175-inside-87_590_1033" fill="white">
<path d="M527 480H623V576H527V480Z"/>
</mask>
<path d="M623 576V577H624V576H623ZM622 480V576H624V480H622ZM623 575H527V577H623V575Z" fill="#E2F1FF" mask="url(#path-175-inside-87_590_1033)"/>
<mask id="path-177-inside-88_590_1033" fill="white">
<path d="M623 480H719V576H623V480Z"/>
</mask>
<path d="M719 576V577H720V576H719ZM718 480V576H720V480H718ZM719 575H623V577H719V575Z" fill="#E2F1FF" mask="url(#path-177-inside-88_590_1033)"/>
<mask id="path-179-inside-89_590_1033" fill="white">
<path d="M719 480H815V576H719V480Z"/>
</mask>
<path d="M815 576V577H816V576H815ZM814 480V576H816V480H814ZM815 575H719V577H815V575Z" fill="#E2F1FF" mask="url(#path-179-inside-89_590_1033)"/>
<mask id="path-181-inside-90_590_1033" fill="white">
<path d="M815 480H911V576H815V480Z"/>
</mask>
<path d="M815 480H911V576H815V480Z" fill="#EEF7FF" fill-opacity="0.7"/>
<path d="M911 576V577H912V576H911ZM910 480V576H912V480H910ZM911 575H815V577H911V575Z" fill="#E2F1FF" mask="url(#path-181-inside-90_590_1033)"/>
<mask id="path-183-inside-91_590_1033" fill="white">
<path d="M911 480H1007V576H911V480Z"/>
</mask>
<path d="M1007 576V577H1008V576H1007ZM1006 480V576H1008V480H1006ZM1007 575H911V577H1007V575Z" fill="#E2F1FF" mask="url(#path-183-inside-91_590_1033)"/>
<mask id="path-185-inside-92_590_1033" fill="white">
<path d="M1007 480H1103V576H1007V480Z"/>
</mask>
<path d="M1103 576V577H1104V576H1103ZM1102 480V576H1104V480H1102ZM1103 575H1007V577H1103V575Z" fill="#E2F1FF" mask="url(#path-185-inside-92_590_1033)"/>
<mask id="path-187-inside-93_590_1033" fill="white">
<path d="M1103 480H1199V576H1103V480Z"/>
</mask>
<path d="M1199 576V577H1200V576H1199ZM1198 480V576H1200V480H1198ZM1199 575H1103V577H1199V575Z" fill="#E2F1FF" mask="url(#path-187-inside-93_590_1033)"/>
<mask id="path-189-inside-94_590_1033" fill="white">
<path d="M1199 480H1295V576H1199V480Z"/>
</mask>
<path d="M1295 576V577H1296V576H1295ZM1294 480V576H1296V480H1294ZM1295 575H1199V577H1295V575Z" fill="#E2F1FF" mask="url(#path-189-inside-94_590_1033)"/>
<mask id="path-191-inside-95_590_1033" fill="white">
<path d="M1295 480H1391V576H1295V480Z"/>
</mask>
<path d="M1391 576V577H1392V576H1391ZM1390 480V576H1392V480H1390ZM1391 575H1295V577H1391V575Z" fill="#E2F1FF" mask="url(#path-191-inside-95_590_1033)"/>
<mask id="path-193-inside-96_590_1033" fill="white">
<path d="M1391 480H1487V576H1391V480Z"/>
</mask>
<path d="M1487 576V577H1488V576H1487ZM1486 480V576H1488V480H1486ZM1487 575H1391V577H1487V575Z" fill="#E2F1FF" mask="url(#path-193-inside-96_590_1033)"/>
<mask id="path-195-inside-97_590_1033" fill="white">
<path d="M-49 576H47V672H-49V576Z"/>
</mask>
<path d="M47 672V673H48V672H47ZM46 576V672H48V576H46ZM47 671H-49V673H47V671Z" fill="#E2F1FF" mask="url(#path-195-inside-97_590_1033)"/>
<mask id="path-197-inside-98_590_1033" fill="white">
<path d="M47 576H143V672H47V576Z"/>
</mask>
<path d="M47 576H143V672H47V576Z" fill="#E2F1FF"/>
<path d="M143 672V673H144V672H143ZM142 576V672H144V576H142ZM143 671H47V673H143V671Z" fill="#E2F1FF" mask="url(#path-197-inside-98_590_1033)"/>
<mask id="path-199-inside-99_590_1033" fill="white">
<path d="M143 576H239V672H143V576Z"/>
</mask>
<path d="M239 672V673H240V672H239ZM238 576V672H240V576H238ZM239 671H143V673H239V671Z" fill="#E2F1FF" mask="url(#path-199-inside-99_590_1033)"/>
<mask id="path-201-inside-100_590_1033" fill="white">
<path d="M239 576H335V672H239V576Z"/>
</mask>
<path d="M335 672V673H336V672H335ZM334 576V672H336V576H334ZM335 671H239V673H335V671Z" fill="#E2F1FF" mask="url(#path-201-inside-100_590_1033)"/>
<mask id="path-203-inside-101_590_1033" fill="white">
<path d="M335 576H431V672H335V576Z"/>
</mask>
<path d="M431 672V673H432V672H431ZM430 576V672H432V576H430ZM431 671H335V673H431V671Z" fill="#E2F1FF" mask="url(#path-203-inside-101_590_1033)"/>
<mask id="path-205-inside-102_590_1033" fill="white">
<path d="M431 576H527V672H431V576Z"/>
</mask>
<path d="M527 672V673H528V672H527ZM526 576V672H528V576H526ZM527 671H431V673H527V671Z" fill="#E2F1FF" mask="url(#path-205-inside-102_590_1033)"/>
<mask id="path-207-inside-103_590_1033" fill="white">
<path d="M527 576H623V672H527V576Z"/>
</mask>
<path d="M623 672V673H624V672H623ZM622 576V672H624V576H622ZM623 671H527V673H623V671Z" fill="#E2F1FF" mask="url(#path-207-inside-103_590_1033)"/>
<mask id="path-209-inside-104_590_1033" fill="white">
<path d="M623 576H719V672H623V576Z"/>
</mask>
<path d="M719 672V673H720V672H719ZM718 576V672H720V576H718ZM719 671H623V673H719V671Z" fill="#E2F1FF" mask="url(#path-209-inside-104_590_1033)"/>
<mask id="path-211-inside-105_590_1033" fill="white">
<path d="M719 576H815V672H719V576Z"/>
</mask>
<path d="M815 672V673H816V672H815ZM814 576V672H816V576H814ZM815 671H719V673H815V671Z" fill="#E2F1FF" mask="url(#path-211-inside-105_590_1033)"/>
<mask id="path-213-inside-106_590_1033" fill="white">
<path d="M815 576H911V672H815V576Z"/>
</mask>
<path d="M911 672V673H912V672H911ZM910 576V672H912V576H910ZM911 671H815V673H911V671Z" fill="#E2F1FF" mask="url(#path-213-inside-106_590_1033)"/>
<mask id="path-215-inside-107_590_1033" fill="white">
<path d="M911 576H1007V672H911V576Z"/>
</mask>
<path d="M1007 672V673H1008V672H1007ZM1006 576V672H1008V576H1006ZM1007 671H911V673H1007V671Z" fill="#E2F1FF" mask="url(#path-215-inside-107_590_1033)"/>
<mask id="path-217-inside-108_590_1033" fill="white">
<path d="M1007 576H1103V672H1007V576Z"/>
</mask>
<path d="M1103 672V673H1104V672H1103ZM1102 576V672H1104V576H1102ZM1103 671H1007V673H1103V671Z" fill="#E2F1FF" mask="url(#path-217-inside-108_590_1033)"/>
<mask id="path-219-inside-109_590_1033" fill="white">
<path d="M1103 576H1199V672H1103V576Z"/>
</mask>
<path d="M1199 672V673H1200V672H1199ZM1198 576V672H1200V576H1198ZM1199 671H1103V673H1199V671Z" fill="#E2F1FF" mask="url(#path-219-inside-109_590_1033)"/>
<mask id="path-221-inside-110_590_1033" fill="white">
<path d="M1199 576H1295V672H1199V576Z"/>
</mask>
<path d="M1295 672V673H1296V672H1295ZM1294 576V672H1296V576H1294ZM1295 671H1199V673H1295V671Z" fill="#E2F1FF" mask="url(#path-221-inside-110_590_1033)"/>
<mask id="path-223-inside-111_590_1033" fill="white">
<path d="M1295 576H1391V672H1295V576Z"/>
</mask>
<path d="M1295 576H1391V672H1295V576Z" fill="#E2F1FF"/>
<path d="M1391 672V673H1392V672H1391ZM1390 576V672H1392V576H1390ZM1391 671H1295V673H1391V671Z" fill="#E2F1FF" mask="url(#path-223-inside-111_590_1033)"/>
<mask id="path-225-inside-112_590_1033" fill="white">
<path d="M1391 576H1487V672H1391V576Z"/>
</mask>
<path d="M1487 672V673H1488V672H1487ZM1486 576V672H1488V576H1486ZM1487 671H1391V673H1487V671Z" fill="#E2F1FF" mask="url(#path-225-inside-112_590_1033)"/>
<mask id="path-227-inside-113_590_1033" fill="white">
<path d="M-49 672H47V768H-49V672Z"/>
</mask>
<path d="M47 768V769H48V768H47ZM46 672V768H48V672H46ZM47 767H-49V769H47V767Z" fill="#E2F1FF" mask="url(#path-227-inside-113_590_1033)"/>
<mask id="path-229-inside-114_590_1033" fill="white">
<path d="M47 672H143V768H47V672Z"/>
</mask>
<path d="M143 768V769H144V768H143ZM142 672V768H144V672H142ZM143 767H47V769H143V767Z" fill="#E2F1FF" mask="url(#path-229-inside-114_590_1033)"/>
<mask id="path-231-inside-115_590_1033" fill="white">
<path d="M143 672H239V768H143V672Z"/>
</mask>
<path d="M239 768V769H240V768H239ZM238 672V768H240V672H238ZM239 767H143V769H239V767Z" fill="#E2F1FF" mask="url(#path-231-inside-115_590_1033)"/>
<mask id="path-233-inside-116_590_1033" fill="white">
<path d="M239 672H335V768H239V672Z"/>
</mask>
<path d="M335 768V769H336V768H335ZM334 672V768H336V672H334ZM335 767H239V769H335V767Z" fill="#E2F1FF" mask="url(#path-233-inside-116_590_1033)"/>
<mask id="path-235-inside-117_590_1033" fill="white">
<path d="M335 672H431V768H335V672Z"/>
</mask>
<path d="M431 768V769H432V768H431ZM430 672V768H432V672H430ZM431 767H335V769H431V767Z" fill="#E2F1FF" mask="url(#path-235-inside-117_590_1033)"/>
<mask id="path-237-inside-118_590_1033" fill="white">
<path d="M431 672H527V768H431V672Z"/>
</mask>
<path d="M527 768V769H528V768H527ZM526 672V768H528V672H526ZM527 767H431V769H527V767Z" fill="#E2F1FF" mask="url(#path-237-inside-118_590_1033)"/>
<mask id="path-239-inside-119_590_1033" fill="white">
<path d="M527 672H623V768H527V672Z"/>
</mask>
<path d="M527 672H623V768H527V672Z" fill="#EEF7FF" fill-opacity="0.7"/>
<path d="M623 768V769H624V768H623ZM622 672V768H624V672H622ZM623 767H527V769H623V767Z" fill="#E2F1FF" mask="url(#path-239-inside-119_590_1033)"/>
<mask id="path-241-inside-120_590_1033" fill="white">
<path d="M623 672H719V768H623V672Z"/>
</mask>
<path d="M719 768V769H720V768H719ZM718 672V768H720V672H718ZM719 767H623V769H719V767Z" fill="#E2F1FF" mask="url(#path-241-inside-120_590_1033)"/>
<mask id="path-243-inside-121_590_1033" fill="white">
<path d="M719 672H815V768H719V672Z"/>
</mask>
<path d="M815 768V769H816V768H815ZM814 672V768H816V672H814ZM815 767H719V769H815V767Z" fill="#E2F1FF" mask="url(#path-243-inside-121_590_1033)"/>
<mask id="path-245-inside-122_590_1033" fill="white">
<path d="M815 672H911V768H815V672Z"/>
</mask>
<path d="M911 768V769H912V768H911ZM910 672V768H912V672H910ZM911 767H815V769H911V767Z" fill="#E2F1FF" mask="url(#path-245-inside-122_590_1033)"/>
<mask id="path-247-inside-123_590_1033" fill="white">
<path d="M911 672H1007V768H911V672Z"/>
</mask>
<path d="M1007 768V769H1008V768H1007ZM1006 672V768H1008V672H1006ZM1007 767H911V769H1007V767Z" fill="#E2F1FF" mask="url(#path-247-inside-123_590_1033)"/>
<mask id="path-249-inside-124_590_1033" fill="white">
<path d="M1007 672H1103V768H1007V672Z"/>
</mask>
<path d="M1103 768V769H1104V768H1103ZM1102 672V768H1104V672H1102ZM1103 767H1007V769H1103V767Z" fill="#E2F1FF" mask="url(#path-249-inside-124_590_1033)"/>
<mask id="path-251-inside-125_590_1033" fill="white">
<path d="M1103 672H1199V768H1103V672Z"/>
</mask>
<path d="M1103 672H1199V768H1103V672Z" fill="#E2F1FF"/>
<path d="M1199 768V769H1200V768H1199ZM1198 672V768H1200V672H1198ZM1199 767H1103V769H1199V767Z" fill="#E2F1FF" mask="url(#path-251-inside-125_590_1033)"/>
<mask id="path-253-inside-126_590_1033" fill="white">
<path d="M1199 672H1295V768H1199V672Z"/>
</mask>
<path d="M1295 768V769H1296V768H1295ZM1294 672V768H1296V672H1294ZM1295 767H1199V769H1295V767Z" fill="#E2F1FF" mask="url(#path-253-inside-126_590_1033)"/>
<mask id="path-255-inside-127_590_1033" fill="white">
<path d="M1295 672H1391V768H1295V672Z"/>
</mask>
<path d="M1391 768V769H1392V768H1391ZM1390 672V768H1392V672H1390ZM1391 767H1295V769H1391V767Z" fill="#E2F1FF" mask="url(#path-255-inside-127_590_1033)"/>
<mask id="path-257-inside-128_590_1033" fill="white">
<path d="M1391 672H1487V768H1391V672Z"/>
</mask>
<path d="M1487 768V769H1488V768H1487ZM1486 672V768H1488V672H1486ZM1487 767H1391V769H1487V767Z" fill="#E2F1FF" mask="url(#path-257-inside-128_590_1033)"/>
<mask id="path-259-inside-129_590_1033" fill="white">
<path d="M-49 768H47V864H-49V768Z"/>
</mask>
<path d="M47 864V865H48V864H47ZM46 768V864H48V768H46ZM47 863H-49V865H47V863Z" fill="#E2F1FF" mask="url(#path-259-inside-129_590_1033)"/>
<mask id="path-261-inside-130_590_1033" fill="white">
<path d="M47 768H143V864H47V768Z"/>
</mask>
<path d="M143 864V865H144V864H143ZM142 768V864H144V768H142ZM143 863H47V865H143V863Z" fill="#E2F1FF" mask="url(#path-261-inside-130_590_1033)"/>
<mask id="path-263-inside-131_590_1033" fill="white">
<path d="M143 768H239V864H143V768Z"/>
</mask>
<path d="M239 864V865H240V864H239ZM238 768V864H240V768H238ZM239 863H143V865H239V863Z" fill="#E2F1FF" mask="url(#path-263-inside-131_590_1033)"/>
<mask id="path-265-inside-132_590_1033" fill="white">
<path d="M239 768H335V864H239V768Z"/>
</mask>
<path d="M239 768H335V864H239V768Z" fill="#E2F1FF"/>
<path d="M335 864V865H336V864H335ZM334 768V864H336V768H334ZM335 863H239V865H335V863Z" fill="#E2F1FF" mask="url(#path-265-inside-132_590_1033)"/>
<mask id="path-267-inside-133_590_1033" fill="white">
<path d="M335 768H431V864H335V768Z"/>
</mask>
<path d="M431 864V865H432V864H431ZM430 768V864H432V768H430ZM431 863H335V865H431V863Z" fill="#E2F1FF" mask="url(#path-267-inside-133_590_1033)"/>
<mask id="path-269-inside-134_590_1033" fill="white">
<path d="M431 768H527V864H431V768Z"/>
</mask>
<path d="M527 864V865H528V864H527ZM526 768V864H528V768H526ZM527 863H431V865H527V863Z" fill="#E2F1FF" mask="url(#path-269-inside-134_590_1033)"/>
<mask id="path-271-inside-135_590_1033" fill="white">
<path d="M527 768H623V864H527V768Z"/>
</mask>
<path d="M623 864V865H624V864H623ZM622 768V864H624V768H622ZM623 863H527V865H623V863Z" fill="#E2F1FF" mask="url(#path-271-inside-135_590_1033)"/>
<g clip-path="url(#clip2_590_1033)">
<mask id="path-273-inside-136_590_1033" fill="white">
<path d="M623 768H719V864H623V768Z"/>
</mask>
<g clip-path="url(#clip3_590_1033)">
</g>
</g>
<path d="M719 864V865H720V864H719ZM718 768V864H720V768H718ZM719 863H623V865H719V863Z" fill="#E2F1FF" mask="url(#path-273-inside-136_590_1033)"/>
<mask id="path-275-inside-137_590_1033" fill="white">
<path d="M719 768H815V864H719V768Z"/>
</mask>
<path d="M815 864V865H816V864H815ZM814 768V864H816V768H814ZM815 863H719V865H815V863Z" fill="#E2F1FF" mask="url(#path-275-inside-137_590_1033)"/>
<mask id="path-277-inside-138_590_1033" fill="white">
<path d="M815 768H911V864H815V768Z"/>
</mask>
<path d="M815 768H911V864H815V768Z" fill="#E2F1FF"/>
<path d="M911 864V865H912V864H911ZM910 768V864H912V768H910ZM911 863H815V865H911V863Z" fill="#E2F1FF" mask="url(#path-277-inside-138_590_1033)"/>
<mask id="path-279-inside-139_590_1033" fill="white">
<path d="M911 768H1007V864H911V768Z"/>
</mask>
<path d="M1007 864V865H1008V864H1007ZM1006 768V864H1008V768H1006ZM1007 863H911V865H1007V863Z" fill="#E2F1FF" mask="url(#path-279-inside-139_590_1033)"/>
<mask id="path-281-inside-140_590_1033" fill="white">
<path d="M1007 768H1103V864H1007V768Z"/>
</mask>
<path d="M1103 864V865H1104V864H1103ZM1102 768V864H1104V768H1102ZM1103 863H1007V865H1103V863Z" fill="#E2F1FF" mask="url(#path-281-inside-140_590_1033)"/>
<mask id="path-283-inside-141_590_1033" fill="white">
<path d="M1103 768H1199V864H1103V768Z"/>
</mask>
<path d="M1199 864V865H1200V864H1199ZM1198 768V864H1200V768H1198ZM1199 863H1103V865H1199V863Z" fill="#E2F1FF" mask="url(#path-283-inside-141_590_1033)"/>
<mask id="path-285-inside-142_590_1033" fill="white">
<path d="M1199 768H1295V864H1199V768Z"/>
</mask>
<path d="M1295 864V865H1296V864H1295ZM1294 768V864H1296V768H1294ZM1295 863H1199V865H1295V863Z" fill="#E2F1FF" mask="url(#path-285-inside-142_590_1033)"/>
<mask id="path-287-inside-143_590_1033" fill="white">
<path d="M1295 768H1391V864H1295V768Z"/>
</mask>
<path d="M1391 864V865H1392V864H1391ZM1390 768V864H1392V768H1390ZM1391 863H1295V865H1391V863Z" fill="#E2F1FF" mask="url(#path-287-inside-143_590_1033)"/>
<mask id="path-289-inside-144_590_1033" fill="white">
<path d="M1391 768H1487V864H1391V768Z"/>
</mask>
<path d="M1487 864V865H1488V864H1487ZM1486 768V864H1488V768H1486ZM1487 863H1391V865H1487V863Z" fill="#E2F1FF" mask="url(#path-289-inside-144_590_1033)"/>
<mask id="path-291-inside-145_590_1033" fill="white">
<path d="M-49 864H47V960H-49V864Z"/>
</mask>
<path d="M47 960V961H48V960H47ZM46 864V960H48V864H46ZM47 959H-49V961H47V959Z" fill="#E2F1FF" mask="url(#path-291-inside-145_590_1033)"/>
<mask id="path-293-inside-146_590_1033" fill="white">
<path d="M47 864H143V960H47V864Z"/>
</mask>
<path d="M143 960V961H144V960H143ZM142 864V960H144V864H142ZM143 959H47V961H143V959Z" fill="#E2F1FF" mask="url(#path-293-inside-146_590_1033)"/>
<mask id="path-295-inside-147_590_1033" fill="white">
<path d="M143 864H239V960H143V864Z"/>
</mask>
<path d="M239 960V961H240V960H239ZM238 864V960H240V864H238ZM239 959H143V961H239V959Z" fill="#E2F1FF" mask="url(#path-295-inside-147_590_1033)"/>
<mask id="path-297-inside-148_590_1033" fill="white">
<path d="M239 864H335V960H239V864Z"/>
</mask>
<path d="M335 960V961H336V960H335ZM334 864V960H336V864H334ZM335 959H239V961H335V959Z" fill="#E2F1FF" mask="url(#path-297-inside-148_590_1033)"/>
<mask id="path-299-inside-149_590_1033" fill="white">
<path d="M335 864H431V960H335V864Z"/>
</mask>
<path d="M431 960V961H432V960H431ZM430 864V960H432V864H430ZM431 959H335V961H431V959Z" fill="#E2F1FF" mask="url(#path-299-inside-149_590_1033)"/>
<mask id="path-301-inside-150_590_1033" fill="white">
<path d="M431 864H527V960H431V864Z"/>
</mask>
<path d="M527 960V961H528V960H527ZM526 864V960H528V864H526ZM527 959H431V961H527V959Z" fill="#E2F1FF" mask="url(#path-301-inside-150_590_1033)"/>
<mask id="path-303-inside-151_590_1033" fill="white">
<path d="M527 864H623V960H527V864Z"/>
</mask>
<path d="M623 960V961H624V960H623ZM622 864V960H624V864H622ZM623 959H527V961H623V959Z" fill="#E2F1FF" mask="url(#path-303-inside-151_590_1033)"/>
<mask id="path-305-inside-152_590_1033" fill="white">
<path d="M623 864H719V960H623V864Z"/>
</mask>
<path d="M719 960V961H720V960H719ZM718 864V960H720V864H718ZM719 959H623V961H719V959Z" fill="#E2F1FF" mask="url(#path-305-inside-152_590_1033)"/>
<mask id="path-307-inside-153_590_1033" fill="white">
<path d="M719 864H815V960H719V864Z"/>
</mask>
<path d="M815 960V961H816V960H815ZM814 864V960H816V864H814ZM815 959H719V961H815V959Z" fill="#E2F1FF" mask="url(#path-307-inside-153_590_1033)"/>
<mask id="path-309-inside-154_590_1033" fill="white">
<path d="M815 864H911V960H815V864Z"/>
</mask>
<path d="M911 960V961H912V960H911ZM910 864V960H912V864H910ZM911 959H815V961H911V959Z" fill="#E2F1FF" mask="url(#path-309-inside-154_590_1033)"/>
<mask id="path-311-inside-155_590_1033" fill="white">
<path d="M911 864H1007V960H911V864Z"/>
</mask>
<path d="M1007 960V961H1008V960H1007ZM1006 864V960H1008V864H1006ZM1007 959H911V961H1007V959Z" fill="#E2F1FF" mask="url(#path-311-inside-155_590_1033)"/>
<mask id="path-313-inside-156_590_1033" fill="white">
<path d="M1007 864H1103V960H1007V864Z"/>
</mask>
<path d="M1103 960V961H1104V960H1103ZM1102 864V960H1104V864H1102ZM1103 959H1007V961H1103V959Z" fill="#E2F1FF" mask="url(#path-313-inside-156_590_1033)"/>
<mask id="path-315-inside-157_590_1033" fill="white">
<path d="M1103 864H1199V960H1103V864Z"/>
</mask>
<path d="M1199 960V961H1200V960H1199ZM1198 864V960H1200V864H1198ZM1199 959H1103V961H1199V959Z" fill="#E2F1FF" mask="url(#path-315-inside-157_590_1033)"/>
<mask id="path-317-inside-158_590_1033" fill="white">
<path d="M1199 864H1295V960H1199V864Z"/>
</mask>
<path d="M1295 960V961H1296V960H1295ZM1294 864V960H1296V864H1294ZM1295 959H1199V961H1295V959Z" fill="#E2F1FF" mask="url(#path-317-inside-158_590_1033)"/>
<mask id="path-319-inside-159_590_1033" fill="white">
<path d="M1295 864H1391V960H1295V864Z"/>
</mask>
<path d="M1391 960V961H1392V960H1391ZM1390 864V960H1392V864H1390ZM1391 959H1295V961H1391V959Z" fill="#E2F1FF" mask="url(#path-319-inside-159_590_1033)"/>
<mask id="path-321-inside-160_590_1033" fill="white">
<path d="M1391 864H1487V960H1391V864Z"/>
</mask>
<path d="M1391 864H1487V960H1391V864Z" fill="#E2F1FF"/>
<path d="M1487 960V961H1488V960H1487ZM1486 864V960H1488V864H1486ZM1487 959H1391V961H1487V959Z" fill="#E2F1FF" mask="url(#path-321-inside-160_590_1033)"/>
<mask id="path-323-inside-161_590_1033" fill="white">
<path d="M-49 960H47V1056H-49V960Z"/>
</mask>
<path d="M47 1056V1057H48V1056H47ZM46 960V1056H48V960H46ZM47 1055H-49V1057H47V1055Z" fill="#E2F1FF" mask="url(#path-323-inside-161_590_1033)"/>
<mask id="path-325-inside-162_590_1033" fill="white">
<path d="M47 960H143V1056H47V960Z"/>
</mask>
<path d="M143 1056V1057H144V1056H143ZM142 960V1056H144V960H142ZM143 1055H47V1057H143V1055Z" fill="#E2F1FF" mask="url(#path-325-inside-162_590_1033)"/>
<mask id="path-327-inside-163_590_1033" fill="white">
<path d="M143 960H239V1056H143V960Z"/>
</mask>
<path d="M239 1056V1057H240V1056H239ZM238 960V1056H240V960H238ZM239 1055H143V1057H239V1055Z" fill="#E2F1FF" mask="url(#path-327-inside-163_590_1033)"/>
<mask id="path-329-inside-164_590_1033" fill="white">
<path d="M239 960H335V1056H239V960Z"/>
</mask>
<path d="M335 1056V1057H336V1056H335ZM334 960V1056H336V960H334ZM335 1055H239V1057H335V1055Z" fill="#E2F1FF" mask="url(#path-329-inside-164_590_1033)"/>
<mask id="path-331-inside-165_590_1033" fill="white">
<path d="M335 960H431V1056H335V960Z"/>
</mask>
<path d="M335 960H431V1056H335V960Z" fill="#E2F1FF"/>
<path d="M431 1056V1057H432V1056H431ZM430 960V1056H432V960H430ZM431 1055H335V1057H431V1055Z" fill="#E2F1FF" mask="url(#path-331-inside-165_590_1033)"/>
<mask id="path-333-inside-166_590_1033" fill="white">
<path d="M431 960H527V1056H431V960Z"/>
</mask>
<path d="M527 1056V1057H528V1056H527ZM526 960V1056H528V960H526ZM527 1055H431V1057H527V1055Z" fill="#E2F1FF" mask="url(#path-333-inside-166_590_1033)"/>
<mask id="path-335-inside-167_590_1033" fill="white">
<path d="M527 960H623V1056H527V960Z"/>
</mask>
<path d="M623 1056V1057H624V1056H623ZM622 960V1056H624V960H622ZM623 1055H527V1057H623V1055Z" fill="#E2F1FF" mask="url(#path-335-inside-167_590_1033)"/>
<mask id="path-337-inside-168_590_1033" fill="white">
<path d="M623 960H719V1056H623V960Z"/>
</mask>
<path d="M719 1056V1057H720V1056H719ZM718 960V1056H720V960H718ZM719 1055H623V1057H719V1055Z" fill="#E2F1FF" mask="url(#path-337-inside-168_590_1033)"/>
<mask id="path-339-inside-169_590_1033" fill="white">
<path d="M719 960H815V1056H719V960Z"/>
</mask>
<path d="M719 960H815V1056H719V960Z" fill="#E2F1FF"/>
<path d="M815 1056V1057H816V1056H815ZM814 960V1056H816V960H814ZM815 1055H719V1057H815V1055Z" fill="#E2F1FF" mask="url(#path-339-inside-169_590_1033)"/>
<mask id="path-341-inside-170_590_1033" fill="white">
<path d="M815 960H911V1056H815V960Z"/>
</mask>
<path d="M911 1056V1057H912V1056H911ZM910 960V1056H912V960H910ZM911 1055H815V1057H911V1055Z" fill="#E2F1FF" mask="url(#path-341-inside-170_590_1033)"/>
<mask id="path-343-inside-171_590_1033" fill="white">
<path d="M911 960H1007V1056H911V960Z"/>
</mask>
<path d="M1007 1056V1057H1008V1056H1007ZM1006 960V1056H1008V960H1006ZM1007 1055H911V1057H1007V1055Z" fill="#E2F1FF" mask="url(#path-343-inside-171_590_1033)"/>
<mask id="path-345-inside-172_590_1033" fill="white">
<path d="M1007 960H1103V1056H1007V960Z"/>
</mask>
<path d="M1103 1056V1057H1104V1056H1103ZM1102 960V1056H1104V960H1102ZM1103 1055H1007V1057H1103V1055Z" fill="#E2F1FF" mask="url(#path-345-inside-172_590_1033)"/>
<mask id="path-347-inside-173_590_1033" fill="white">
<path d="M1103 960H1199V1056H1103V960Z"/>
</mask>
<path d="M1199 1056V1057H1200V1056H1199ZM1198 960V1056H1200V960H1198ZM1199 1055H1103V1057H1199V1055Z" fill="#E2F1FF" mask="url(#path-347-inside-173_590_1033)"/>
<mask id="path-349-inside-174_590_1033" fill="white">
<path d="M1199 960H1295V1056H1199V960Z"/>
</mask>
<path d="M1295 1056V1057H1296V1056H1295ZM1294 960V1056H1296V960H1294ZM1295 1055H1199V1057H1295V1055Z" fill="#E2F1FF" mask="url(#path-349-inside-174_590_1033)"/>
<mask id="path-351-inside-175_590_1033" fill="white">
<path d="M1295 960H1391V1056H1295V960Z"/>
</mask>
<path d="M1391 1056V1057H1392V1056H1391ZM1390 960V1056H1392V960H1390ZM1391 1055H1295V1057H1391V1055Z" fill="#E2F1FF" mask="url(#path-351-inside-175_590_1033)"/>
<mask id="path-353-inside-176_590_1033" fill="white">
<path d="M1391 960H1487V1056H1391V960Z"/>
</mask>
<path d="M1487 1056V1057H1488V1056H1487ZM1486 960V1056H1488V960H1486ZM1487 1055H1391V1057H1487V1055Z" fill="#E2F1FF" mask="url(#path-353-inside-176_590_1033)"/>
</g>
<rect x="-240.5" y="0.5" width="1919" height="1439" stroke="#E2F1FF"/>
</g>
</g>
<defs>
<radialGradient id="paint0_radial_590_1033" cx="0" cy="0" r="1" gradientUnits="userSpaceOnUse" gradientTransform="translate(720 -0.000142694) rotate(90) scale(1197 751.588)">
<stop/>
<stop offset="0.953125" stop-opacity="0"/>
</radialGradient>
<clipPath id="clip0_590_1033">
<rect width="1437" height="983" fill="white"/>
</clipPath>
<clipPath id="clip1_590_1033">
<rect x="-241" width="1920" height="1440" fill="white"/>
</clipPath>
<clipPath id="clip2_590_1033">
<path d="M623 768H719V864H623V768Z" fill="white"/>
</clipPath>
<clipPath id="clip3_590_1033">
<rect width="374" height="94" fill="white" transform="translate(473 729)"/>
</clipPath>
</defs>
</svg>
