<svg width="25" height="25" viewBox="0 0 25 25" fill="none" xmlns="http://www.w3.org/2000/svg">
<path d="M7 17.0001C9.3317 14.5579 13.6432 14.4429 16 17.0001M21.5 12.0001C21.5 17.523 17.0228 22.0001 11.5 22.0001C5.97715 22.0001 1.5 17.523 1.5 12.0001C1.5 6.47727 5.97715 2.00012 11.5 2.00012C17.0228 2.00012 21.5 6.47727 21.5 12.0001ZM13.9951 9.50012C13.9951 10.8808 12.8742 12.0001 11.4915 12.0001C10.1089 12.0001 8.98797 10.8808 8.98797 9.50012C8.98797 8.11941 10.1089 7.00012 11.4915 7.00012C12.8742 7.00012 13.9951 8.11941 13.9951 9.50012Z" stroke="white" stroke-width="1.5" stroke-linecap="round"/>
</svg>
