<svg width="25" height="25" viewBox="0 0 25 25" fill="none" xmlns="http://www.w3.org/2000/svg">
<path d="M7.5 17.0001C9.8317 14.5579 14.1432 14.4429 16.5 17.0001M22 12.0001C22 17.523 17.5228 22.0001 12 22.0001C6.47715 22.0001 2 17.523 2 12.0001C2 6.47727 6.47715 2.00012 12 2.00012C17.5228 2.00012 22 6.47727 22 12.0001ZM14.4951 9.50012C14.4951 10.8808 13.3742 12.0001 11.9915 12.0001C10.6089 12.0001 9.48797 10.8808 9.48797 9.50012C9.48797 8.11941 10.6089 7.00012 11.9915 7.00012C13.3742 7.00012 14.4951 8.11941 14.4951 9.50012Z" stroke="#191919" stroke-width="1.5" stroke-linecap="round"/>
</svg>
