<svg width="64" height="64" viewBox="0 0 64 64" fill="none" xmlns="http://www.w3.org/2000/svg">
<path d="M12 0.5H52C58.3513 0.5 63.5 5.64873 63.5 12V52C63.5 58.3513 58.3513 63.5 52 63.5H12C5.64873 63.5 0.5 58.3513 0.5 52V12C0.5 5.64873 5.64873 0.5 12 0.5Z" stroke="#EAF5FF"/>
<path d="M38.7358 29.5093L37.7884 29.1893L37.7884 29.1894L38.7358 29.5093ZM40.0013 28.4385L39.5868 27.5285L39.5868 27.5285L40.0013 28.4385ZM41.1956 28.0056L41.115 27.0089L41.1149 27.0089L41.1956 28.0056ZM42.1572 28.2124L41.6678 29.0844L41.6678 29.0845L42.1572 28.2124ZM43.077 29.164L43.849 28.5284L43.849 28.5283L43.077 29.164ZM45.1938 32.2981L44.2292 32.5617L44.2292 32.5617L45.1938 32.2981ZM45.1938 34.3685L44.2292 34.105L44.2292 34.105L45.1938 34.3685ZM43.0129 37.5805L42.2409 36.9449L42.2409 36.9449L43.0129 37.5805ZM42.1572 38.4543L42.6465 39.3263L42.6466 39.3263L42.1572 38.4543ZM41.1956 38.6611L41.1149 39.6578L41.115 39.6578L41.1956 38.6611ZM40.0013 38.2281L40.4159 37.3181L40.4159 37.3181L40.0013 38.2281ZM38.7358 37.1573L37.7884 37.4773L37.7884 37.4774L38.7358 37.1573ZM24.8477 28.8963L25.5039 28.1417L25.5039 28.1417L24.8477 28.8963ZM23.9984 28.4387L23.5839 29.3488L23.5839 29.3488L23.9984 28.4387ZM22.804 28.0058L22.8847 27.0091L22.8847 27.0091L22.804 28.0058ZM20.9227 29.1642L21.6947 29.7999L21.6947 29.7998L20.9227 29.1642ZM18.8058 32.2983L17.8411 32.0347L17.8411 32.0348L18.8058 32.2983ZM18.8058 34.3688L19.7704 34.1053L19.7704 34.1053L18.8058 34.3688ZM20.9868 37.5808L20.2147 38.2164L20.2148 38.2164L20.9868 37.5808ZM22.804 38.6613L22.8846 39.6581L22.8847 39.6581L22.804 38.6613ZM23.9984 38.2284L24.4128 39.1385L24.413 39.1384L23.9984 38.2284ZM24.8477 37.7708L24.1915 37.0162L24.1915 37.0162L24.8477 37.7708ZM21.6665 28V29H23.6665V28H21.6665ZM40.3332 28V29H42.3332V28H40.3332ZM42.3332 38.6667C42.3332 38.1144 41.8855 37.6667 41.3332 37.6667C40.7809 37.6667 40.3332 38.1144 40.3332 38.6667H42.3332ZM33.3332 43C32.7809 43 32.3332 43.4477 32.3332 44C32.3332 44.5523 32.7809 45 33.3332 45V43ZM39.6665 30.406C39.6665 30.1636 39.6669 30.0264 39.6733 29.9232C39.6789 29.8319 39.687 29.8184 39.6833 29.8293L37.7884 29.1894C37.654 29.5874 37.6665 30.0153 37.6665 30.406H39.6665ZM39.6832 29.8294C39.7031 29.7706 39.734 29.7213 39.8314 29.6508C39.9582 29.5588 40.1228 29.482 40.4158 29.3485L39.5868 27.5285C39.1437 27.7303 38.1516 28.1142 37.7884 29.1893L39.6832 29.8294ZM40.4158 29.3486C41.0868 29.0429 41.1967 29.0088 41.2762 29.0023L41.1149 27.0089C40.6013 27.0504 40.1128 27.2889 39.5868 27.5285L40.4158 29.3486ZM41.2762 29.0023C41.4196 28.9907 41.5577 29.0227 41.6678 29.0844L42.6466 27.3403C42.1812 27.0792 41.6449 26.966 41.115 27.0089L41.2762 29.0023ZM41.6678 29.0845C41.7147 29.1108 41.7887 29.1692 41.9047 29.3021C42.0557 29.4751 42.1037 29.5551 42.3051 29.7997L43.849 28.5283C43.778 28.4421 43.5568 28.1534 43.4113 27.9868C43.2309 27.7801 42.9812 27.5281 42.6465 27.3403L41.6678 29.0845ZM42.305 29.7997C42.9435 30.575 43.3868 31.1145 43.7033 31.5639C44.0128 32.0034 44.1568 32.2968 44.2292 32.5617L46.1585 32.0346C46.0007 31.457 45.7153 30.9473 45.3384 30.4122C44.9685 29.8871 44.4685 29.2807 43.849 28.5284L42.305 29.7997ZM44.2292 32.5617C44.3678 33.0689 44.3678 33.5978 44.2292 34.105L46.1585 34.6321C46.3914 33.7798 46.3914 32.8868 46.1585 32.0346L44.2292 32.5617ZM44.2292 34.105C44.111 34.5377 43.8507 34.9819 43.4773 35.4706C43.0762 35.9956 42.697 36.3909 42.2409 36.9449L43.7849 38.2162C44.1137 37.8168 44.6572 37.2205 45.0665 36.6849C45.5033 36.1132 45.9411 35.428 46.1585 34.632L44.2292 34.105ZM42.2409 36.9449C41.7864 37.4969 41.7183 37.5538 41.6677 37.5822L42.6466 39.3263C43.1029 39.0702 43.4365 38.6393 43.7849 38.2162L42.2409 36.9449ZM41.6678 37.5822C41.5577 37.644 41.4196 37.6759 41.2761 37.6643L41.115 39.6578C41.6449 39.7006 42.1812 39.5875 42.6465 39.3263L41.6678 37.5822ZM41.2762 37.6643C41.1967 37.6579 41.0867 37.6237 40.4159 37.3181L39.5867 39.1382C40.1129 39.3779 40.6013 39.6162 41.1149 39.6578L41.2762 37.6643ZM40.4159 37.3181C40.1227 37.1846 39.9582 37.1078 39.8313 37.0159C39.734 36.9453 39.7031 36.8961 39.6832 36.8373L37.7884 37.4774C38.1516 38.5526 39.1438 38.9364 39.5867 39.1382L40.4159 37.3181ZM39.6833 36.8374C39.687 36.8483 39.6789 36.8347 39.6733 36.7435C39.6669 36.6403 39.6665 36.503 39.6665 36.2607H37.6665C37.6665 36.6514 37.654 37.0793 37.7884 37.4773L39.6833 36.8374ZM39.6665 36.2607V30.406H37.6665V36.2607H39.6665ZM26.3332 30.4061C26.3332 29.8616 26.3537 28.8807 25.5039 28.1417L24.1915 29.6508C24.2512 29.7028 24.2756 29.7457 24.2956 29.8264C24.3249 29.9454 24.3332 30.1035 24.3332 30.4061H26.3332ZM25.5039 28.1417C25.1972 27.8749 24.8063 27.7079 24.4129 27.5287L23.5839 29.3488C24.0953 29.5817 24.157 29.6208 24.1915 29.6508L25.5039 28.1417ZM24.4129 27.5287C23.8868 27.2891 23.3983 27.0506 22.8847 27.0091L22.7234 29.0026C22.8029 29.009 22.9129 29.0432 23.5839 29.3488L24.4129 27.5287ZM22.8847 27.0091C21.3934 26.8885 20.5897 27.9954 20.1507 28.5286L21.6947 29.7998C21.9758 29.4584 22.143 29.2584 22.3212 29.1251C22.4527 29.0267 22.5582 28.9892 22.7234 29.0026L22.8847 27.0091ZM20.1507 28.5286C19.5313 29.2809 19.0312 29.8873 18.6613 30.4124C18.2844 30.9474 17.9989 31.4571 17.8411 32.0347L19.7704 32.5618C19.8428 32.297 19.9868 32.0036 20.2964 31.5642C20.6129 31.1148 21.0562 30.5753 21.6947 29.7999L20.1507 28.5286ZM17.8411 32.0348C17.6083 32.8871 17.6083 33.7801 17.8411 34.6323L19.7704 34.1053C19.6319 33.5981 19.6319 33.0691 19.7704 32.5618L17.8411 32.0348ZM17.8411 34.6323C18.0586 35.4283 18.4964 36.1135 18.9332 36.6852C19.3423 37.2205 19.8861 37.8172 20.2147 38.2164L21.7588 36.9452C21.3025 36.391 20.9236 35.9959 20.5224 35.4708C20.1489 34.9821 19.8886 34.5379 19.7704 34.1053L17.8411 34.6323ZM20.2148 38.2164C20.668 38.7668 21.4526 39.7738 22.8846 39.6581L22.7235 37.6646C22.5618 37.6776 22.4611 37.6421 22.3419 37.5573C22.1809 37.4427 22.0188 37.2609 21.7588 36.9452L20.2148 38.2164ZM22.8847 39.6581C23.3983 39.6165 23.887 39.3779 24.4128 39.1385L23.584 37.3183C22.9127 37.6239 22.8029 37.6582 22.7234 37.6646L22.8847 39.6581ZM24.413 39.1384C24.8064 38.9592 25.1972 38.7921 25.5039 38.5254L24.1915 37.0162C24.157 37.0463 24.0953 37.0854 23.5838 37.3184L24.413 39.1384ZM25.5039 38.5254C26.3537 37.7864 26.3332 36.8057 26.3332 36.2609H24.3332C24.3332 36.5637 24.3249 36.7218 24.2956 36.8407C24.2756 36.9214 24.2512 36.9643 24.1915 37.0162L25.5039 38.5254ZM26.3332 36.2609V30.4061H24.3332V36.2609H26.3332ZM23.6665 28C23.6665 24.2731 27.2473 21 31.9998 21V19C26.4431 19 21.6665 22.8904 21.6665 28H23.6665ZM31.9998 21C36.7524 21 40.3332 24.2731 40.3332 28H42.3332C42.3332 22.8904 37.5566 19 31.9998 19V21ZM40.3332 38.6667V39.7333H42.3332V38.6667H40.3332ZM40.3332 39.7333C40.3332 41.3407 38.6128 43 35.9998 43V45C39.2778 45 42.3332 42.8387 42.3332 39.7333H40.3332ZM35.9998 43H33.3332V45H35.9998V43Z" fill="#0077FF"/>
</svg>
