<svg width="64" height="64" viewBox="0 0 64 64" fill="none" xmlns="http://www.w3.org/2000/svg">
<path d="M12 0.5H52C58.3513 0.5 63.5 5.64873 63.5 12V52C63.5 58.3513 58.3513 63.5 52 63.5H12C5.64873 63.5 0.5 58.3513 0.5 52V12C0.5 5.64873 5.64873 0.5 12 0.5Z" stroke="#EAF5FF"/>
<path d="M28.0002 25.3333H36.0002C40.3999 25.3333 42.5998 25.3333 43.9667 26.7002C45.3335 28.067 45.3335 30.2669 45.3335 34.6666V36C45.3335 40.3997 45.3335 42.5996 43.9667 43.9665C42.5998 45.3333 40.3999 45.3333 36.0002 45.3333H34.6668C30.2671 45.3333 28.0672 45.3333 26.7003 43.9665C25.3335 42.5996 25.3335 40.3997 25.3335 36V28" stroke="#0077FF" stroke-width="2" stroke-linecap="round" stroke-linejoin="round"/>
<path d="M18.667 25.3333H22.667" stroke="#C1DEFF" stroke-width="2" stroke-linecap="round"/>
<path d="M25.3335 22.6667V18.6667" stroke="#C1DEFF" stroke-width="2" stroke-linecap="round"/>
</svg>
