<svg width="64" height="64" viewBox="0 0 64 64" fill="none" xmlns="http://www.w3.org/2000/svg">
<path d="M12 0.5H52C58.3513 0.5 63.5 5.64873 63.5 12V52C63.5 58.3513 58.3513 63.5 52 63.5H12C5.64873 63.5 0.5 58.3513 0.5 52V12C0.5 5.64873 5.64873 0.5 12 0.5Z" stroke="#EEF6FF"/>
<path d="M43.3335 35.292C41.8182 36.1011 40.0874 36.5599 38.2495 36.5599C32.2798 36.5599 27.4403 31.7204 27.4403 25.7507C27.4403 23.9128 27.899 22.1821 28.7082 20.6667C23.3347 21.926 19.3335 26.7489 19.3335 32.5064C19.3335 39.2223 24.7778 44.6667 31.4938 44.6667C37.2512 44.6667 42.0742 40.6655 43.3335 35.292Z" stroke="#0077FF" stroke-width="2" stroke-linecap="round" stroke-linejoin="round"/>
<path d="M44.6667 32C44.6667 25.0044 38.9956 19.3333 32 19.3333" stroke="#C1DEFF" stroke-width="2" stroke-linecap="round" stroke-linejoin="round"/>
</svg>
