<svg width="64" height="64" viewBox="0 0 64 64" fill="none" xmlns="http://www.w3.org/2000/svg">
<path d="M12 0.5H52C58.3513 0.5 63.5 5.64873 63.5 12V52C63.5 58.3513 58.3513 63.5 52 63.5H12C5.64873 63.5 0.5 58.3513 0.5 52V12C0.5 5.64873 5.64873 0.5 12 0.5Z" stroke="#EAF5FF"/>
<path d="M32.1569 27.459C31.674 27.727 31.4997 28.3357 31.7677 28.8186C32.0357 29.3015 32.6444 29.4758 33.1273 29.2078L32.1569 27.459ZM26.4721 29.2078C26.9551 29.4758 27.5638 29.3015 27.8317 28.8186C28.0997 28.3357 27.9255 27.727 27.4425 27.459L26.4721 29.2078ZM40.7277 19.4902C40.3019 19.1384 39.6716 19.1983 39.3198 19.6241C38.968 20.0498 39.0279 20.6801 39.4536 21.0319L40.7277 19.4902ZM42.6476 22.3741L43.377 21.69C43.3481 21.6591 43.3172 21.6302 43.2846 21.6033L42.6476 22.3741ZM42.8997 23.5157L43.8224 23.9012L43.8226 23.901L42.8997 23.5157ZM42.5895 23.9261L43.2528 24.6745L43.2529 24.6744L42.5895 23.9261ZM39.4274 25.3923C39.0141 25.7586 38.976 26.3906 39.3423 26.8039C39.7086 27.2173 40.3406 27.2554 40.7539 26.8891L39.4274 25.3923ZM35.8082 22.1723C35.2559 22.1723 34.8082 22.62 34.8082 23.1723C34.8082 23.7245 35.2559 24.1723 35.8082 24.1723V22.1723ZM41.2885 24.1723C41.8408 24.1723 42.2885 23.7245 42.2885 23.1723C42.2885 22.62 41.8408 22.1723 41.2885 22.1723V24.1723ZM33.1273 29.2078C35.2357 28.0378 36.6663 25.7867 36.6663 23.2001H34.6663C34.6663 25.0311 33.6556 26.6274 32.1569 27.459L33.1273 29.2078ZM36.6663 23.2001C36.6663 19.4078 33.592 16.3335 29.7997 16.3335V18.3335C32.4874 18.3335 34.6663 20.5124 34.6663 23.2001H36.6663ZM29.7997 16.3335C26.0074 16.3335 22.9331 19.4078 22.9331 23.2001H24.9331C24.9331 20.5124 27.112 18.3335 29.7997 18.3335V16.3335ZM22.9331 23.2001C22.9331 25.7867 24.3637 28.0378 26.4721 29.2078L27.4425 27.459C25.9438 26.6274 24.9331 25.0311 24.9331 23.2001H22.9331ZM39.4536 21.0319L42.0106 23.145L43.2846 21.6033L40.7277 19.4902L39.4536 21.0319ZM41.9183 23.0582C41.9804 23.1245 42.0073 23.1633 42.0169 23.1791C42.0246 23.1916 42.0139 23.1775 42.0061 23.1419C42.0025 23.125 42.0005 23.1079 42 23.092C41.9996 23.0764 42.0008 23.0656 42.0015 23.0611C42.0026 23.0539 42.0007 23.0736 41.9769 23.1305L43.8226 23.901C43.9609 23.5695 44.0584 23.1659 43.9602 22.7157C43.8659 22.2831 43.6209 21.95 43.377 21.69L41.9183 23.0582ZM41.977 23.1302C41.9827 23.1167 41.9859 23.1148 41.9785 23.1244C41.9707 23.1344 41.9547 23.1525 41.9262 23.1778L43.2529 24.6744C43.4511 24.4986 43.6784 24.246 43.8224 23.9012L41.977 23.1302ZM41.9263 23.1777L39.4274 25.3923L40.7539 26.8891L43.2528 24.6745L41.9263 23.1777ZM35.8082 24.1723H41.2885V22.1723H35.8082V24.1723Z" fill="#C1DEFF"/>
<path d="M24.7157 34.4241L27.5999 36.9459V23.9343C27.5999 22.7188 28.5853 21.7334 29.8008 21.7334C31.0156 21.7334 32.0008 22.7176 32.0018 23.9324L32.0065 30.9191L35.8732 31.5458C38.369 31.9255 39.617 32.1153 40.4959 32.6493C41.9479 33.5313 42.9998 34.9333 42.9998 36.7897C42.9998 38.1366 42.6716 39.0402 41.8734 41.4681C41.367 43.0086 41.1138 43.7788 40.701 44.3887C40.0212 45.3925 39.0183 46.1255 37.8642 46.4619C37.1631 46.6664 36.3625 46.6664 34.761 46.6664H33.4036C31.2745 46.6664 30.21 46.6664 29.2624 46.2702C29.0924 46.1993 28.9263 46.119 28.7648 46.03C27.864 45.534 27.1927 44.6962 25.8502 43.0207L21.5039 37.5965C20.8361 36.7628 20.8316 35.57 21.4932 34.7312C22.2885 33.7233 23.7491 33.584 24.7157 34.4241Z" stroke="#0077FF" stroke-width="2" stroke-linecap="round" stroke-linejoin="round"/>
</svg>
