<svg width="64" height="64" viewBox="0 0 64 64" fill="none" xmlns="http://www.w3.org/2000/svg">
<path d="M12 0.5H52C58.3513 0.5 63.5 5.64873 63.5 12V52C63.5 58.3513 58.3513 63.5 52 63.5H12C5.64873 63.5 0.5 58.3513 0.5 52V12C0.5 5.64873 5.64873 0.5 12 0.5Z" stroke="#EAF5FF"/>
<path d="M27.4502 35.55C27.4502 31.7317 27.4502 29.8225 28.6364 28.6362C29.8227 27.45 31.7318 27.45 35.5502 27.45H36.9002C40.7185 27.45 42.6277 27.45 43.8139 28.6362C45.0002 29.8225 45.0002 31.7317 45.0002 35.55V36.9C45.0002 40.7183 45.0002 42.6275 43.8139 43.8137C42.6277 45 40.7185 45 36.9002 45H35.5502C31.7318 45 29.8227 45 28.6364 43.8137C27.4502 42.6275 27.4502 40.7183 27.4502 36.9V35.55Z" stroke="#0077FF" stroke-width="2" stroke-linecap="round" stroke-linejoin="round"/>
<path d="M38.2503 27.45C38.2471 23.4579 38.1867 21.3901 37.0246 19.9743C36.8003 19.7008 36.5496 19.4501 36.2762 19.2257C34.7826 18 32.5636 18 28.1255 18C23.6874 18 21.4683 18 19.9748 19.2257C19.7013 19.4501 19.4506 19.7008 19.2262 19.9743C18.0005 21.4678 18.0005 23.6869 18.0005 28.125C18.0005 32.5631 18.0005 34.7821 19.2262 36.2757C19.4506 36.5491 19.7013 36.7998 19.9748 37.0242C21.3906 38.1862 23.4584 38.2466 27.4505 38.2498" stroke="#0077FF" stroke-width="2" stroke-linecap="round" stroke-linejoin="round"/>
</svg>
