<svg width="64" height="64" viewBox="0 0 64 64" fill="none" xmlns="http://www.w3.org/2000/svg">
<path d="M12 0.5H52C58.3513 0.5 63.5 5.64873 63.5 12V52C63.5 58.3513 58.3513 63.5 52 63.5H12C5.64873 63.5 0.5 58.3513 0.5 52V12C0.5 5.64873 5.64873 0.5 12 0.5Z" stroke="#EAF5FF"/>
<path d="M36 20.6667H44" stroke="#C1DEFF" stroke-width="2" stroke-linecap="round" stroke-linejoin="round"/>
<path d="M36 28.6667H44" stroke="#C1DEFF" stroke-width="2" stroke-linecap="round" stroke-linejoin="round"/>
<path d="M20 36.6667H44" stroke="#C1DEFF" stroke-width="2" stroke-linecap="round" stroke-linejoin="round"/>
<path d="M20 44.6667H44" stroke="#C1DEFF" stroke-width="2" stroke-linecap="round" stroke-linejoin="round"/>
<path d="M20.7811 29.2189C21.5621 30 22.8192 30 25.3333 30C27.8475 30 29.1046 30 29.8856 29.2189C30.6667 28.4379 30.6667 27.1808 30.6667 24.6666C30.6667 22.1525 30.6667 20.8954 29.8856 20.1144C29.1046 19.3333 27.8475 19.3333 25.3333 19.3333C22.8192 19.3333 21.5621 19.3333 20.7811 20.1144C20 20.8954 20 22.1525 20 24.6666C20 27.1808 20 28.4379 20.7811 29.2189Z" stroke="#0077FF" stroke-width="2" stroke-linecap="round" stroke-linejoin="round"/>
</svg>
