<svg width="25" height="25" viewBox="0 0 25 25" fill="none" xmlns="http://www.w3.org/2000/svg">
<path fill-rule="evenodd" clip-rule="evenodd" d="M6.75916 13.1878C10.8341 13.1878 11.0154 14.5698 11.0154 17.444C11.0154 18.8841 11.0154 19.9086 10.4105 20.6587C9.71449 21.523 8.44764 21.7002 6.75916 21.7002C5.07069 21.7002 3.80384 21.523 3.10782 20.6587C2.50293 19.9086 2.50293 18.8851 2.50293 17.469L3.25403 17.444H2.50293C2.50293 14.5698 2.6842 13.1878 6.75916 13.1878ZM17.7753 13.1878C21.8503 13.1878 22.0315 14.5698 22.0315 17.444C22.0315 18.8841 22.0315 19.9086 21.4266 20.6587C20.7306 21.523 19.4638 21.7002 17.7753 21.7002C16.0868 21.7002 14.82 21.523 14.124 20.6587C13.5191 19.9086 13.5191 18.8851 13.5191 17.469L14.2702 17.444H13.5191C13.5191 14.5698 13.7003 13.1878 17.7753 13.1878ZM6.96563 14.6904L6.75916 14.69C4.14636 14.69 4.01237 14.8775 4.0055 17.0705L4.00592 17.9249C4.01067 18.7971 4.0439 19.4272 4.27653 19.7173C4.54192 20.0458 5.33007 20.198 6.75916 20.198C8.18826 20.198 8.97641 20.0448 9.2418 19.7163C9.5132 19.3788 9.5132 18.5777 9.5132 17.468C9.5132 14.9642 9.5132 14.7022 6.96563 14.6904ZM17.9818 14.6904L17.7753 14.69C15.1625 14.69 15.0285 14.8775 15.0216 17.0705L15.0221 17.9249C15.0268 18.7971 15.06 19.4272 15.2927 19.7173C15.5581 20.0458 16.3462 20.198 17.7753 20.198C19.2044 20.198 19.9925 20.0448 20.2579 19.7163C20.5293 19.3788 20.5293 18.5777 20.5293 17.468C20.5293 14.9642 20.5293 14.7022 17.9818 14.6904ZM6.75916 2.17163C10.8341 2.17163 11.0154 3.55366 11.0154 6.42787C11.0154 7.86797 11.0154 8.89248 10.4105 9.64257C9.71449 10.5068 8.44764 10.6841 6.75916 10.6841C5.07069 10.6841 3.80384 10.5068 3.10782 9.64257C2.50293 8.89248 2.50293 7.86898 2.50293 6.4529L3.25403 6.42787H2.50293C2.50293 3.55366 2.6842 2.17163 6.75916 2.17163ZM17.7753 2.17163C21.8503 2.17163 22.0315 3.55366 22.0315 6.42787C22.0315 7.86797 22.0315 8.89248 21.4266 9.64257C20.7306 10.5068 19.4638 10.6841 17.7753 10.6841C16.0868 10.6841 14.82 10.5068 14.124 9.64257C13.5191 8.89248 13.5191 7.86898 13.5191 6.4529L14.2702 6.42787H13.5191C13.5191 3.55366 13.7003 2.17163 17.7753 2.17163ZM6.96563 3.67428L6.75916 3.67383C4.14636 3.67383 4.01237 3.86132 4.0055 6.05437L4.00592 6.90875C4.01067 7.78099 4.0439 8.41106 4.27653 8.7012C4.54192 9.02968 5.33007 9.1819 6.75916 9.1819C8.18826 9.1819 8.97641 9.02868 9.2418 8.70019C9.5132 8.3627 9.5132 7.56153 9.5132 6.4519C9.5132 3.94803 9.5132 3.68607 6.96563 3.67428ZM17.9818 3.67428L17.7753 3.67383C15.1625 3.67383 15.0285 3.86132 15.0216 6.05437L15.0221 6.90875C15.0268 7.78099 15.06 8.41106 15.2927 8.7012C15.5581 9.02968 16.3462 9.1819 17.7753 9.1819C19.2044 9.1819 19.9925 9.02868 20.2579 8.70019C20.5293 8.3627 20.5293 7.56153 20.5293 6.4519C20.5293 3.94803 20.5293 3.68607 17.9818 3.67428Z" fill="#191919"/>
</svg>
