<svg width="25" height="25" viewBox="0 0 25 25" fill="none" xmlns="http://www.w3.org/2000/svg">
<path d="M21.3175 7.14151L20.8239 6.28491C20.4506 5.63708 20.264 5.31317 19.9464 5.184C19.6288 5.05484 19.2696 5.15676 18.5513 5.3606L17.3311 5.7043C16.8725 5.81006 16.3913 5.75006 15.9726 5.53491L15.6357 5.34054C15.2766 5.11055 15.0004 4.77145 14.8475 4.37286L14.5136 3.37548C14.294 2.71546 14.1842 2.38545 13.9228 2.19669C13.6615 2.00793 13.3143 2.00793 12.6199 2.00793H11.5051C10.8108 2.00793 10.4636 2.00793 10.2022 2.19669C9.94085 2.38545 9.83106 2.71546 9.61149 3.37548L9.27753 4.37286C9.12465 4.77145 8.84845 5.11055 8.48937 5.34054L8.15249 5.53491C7.73374 5.75006 7.25259 5.81006 6.79398 5.7043L5.57375 5.3606C4.85541 5.15676 4.49625 5.05484 4.17867 5.184C3.86109 5.31317 3.67445 5.63708 3.30115 6.28491L2.80757 7.14151C2.45766 7.74876 2.2827 8.05239 2.31666 8.37561C2.35061 8.69883 2.58483 8.9593 3.05326 9.48024L4.0843 10.6329C4.3363 10.9519 4.51521 11.5079 4.51521 12.0078C4.51521 12.5079 4.33636 13.0637 4.08433 13.3828L3.05326 14.5355C2.58483 15.0565 2.35062 15.3169 2.31666 15.6402C2.2827 15.9634 2.45766 16.267 2.80757 16.8742L3.30114 17.7308C3.67443 18.3786 3.86109 18.7026 4.17867 18.8317C4.49625 18.9609 4.85542 18.859 5.57377 18.6551L6.79394 18.3114C7.25263 18.2056 7.73387 18.2657 8.15267 18.4809L8.4895 18.6753C8.84851 18.9053 9.12464 19.2443 9.2775 19.6429L9.61149 20.6404C9.83106 21.3004 9.94085 21.6304 10.2022 21.8192C10.4636 22.0079 10.8108 22.0079 11.5051 22.0079H12.6199C13.3143 22.0079 13.6615 22.0079 13.9228 21.8192C14.1842 21.6304 14.294 21.3004 14.5136 20.6404L14.8476 19.6429C15.0004 19.2443 15.2765 18.9053 15.6356 18.6753L15.9724 18.4809C16.3912 18.2657 16.8724 18.2056 17.3311 18.3114L18.5513 18.6551C19.2696 18.859 19.6288 18.9609 19.9464 18.8317C20.264 18.7026 20.4506 18.3786 20.8239 17.7308L21.3175 16.8742C21.6674 16.267 21.8423 15.9634 21.8084 15.6402C21.7744 15.3169 21.5402 15.0565 21.0718 14.5355L20.0407 13.3828C19.7887 13.0637 19.6098 12.5079 19.6098 12.0078C19.6098 11.5079 19.7888 10.9519 20.0407 10.6329L21.0718 9.48024C21.5402 8.9593 21.7744 8.69883 21.8084 8.37561C21.8423 8.05239 21.6674 7.74876 21.3175 7.14151Z" stroke="#191919" stroke-width="1.5"/>
<path d="M15.5195 12.0001C15.5195 13.9331 13.9525 15.5001 12.0195 15.5001C10.0865 15.5001 8.51953 13.9331 8.51953 12.0001C8.51953 10.0671 10.0865 8.50012 12.0195 8.50012C13.9525 8.50012 15.5195 10.0671 15.5195 12.0001Z" stroke="#191919" stroke-width="1.5"/>
</svg>
