<svg width="25" height="25" viewBox="0 0 25 25" fill="none" xmlns="http://www.w3.org/2000/svg">
<path d="M20.8175 7.64151L20.3239 6.78491C19.9506 6.13708 19.764 5.81317 19.4464 5.684C19.1288 5.55484 18.7696 5.65676 18.0513 5.8606L16.8311 6.2043C16.3725 6.31006 15.8913 6.25006 15.4726 6.03491L15.1357 5.84054C14.7766 5.61055 14.5004 5.27145 14.3475 4.87286L14.0136 3.87548C13.794 3.21546 13.6842 2.88545 13.4228 2.69669C13.1615 2.50793 12.8143 2.50793 12.1199 2.50793H11.0051C10.3108 2.50793 9.9636 2.50793 9.7022 2.69669C9.44085 2.88545 9.33106 3.21546 9.11149 3.87548L8.77753 4.87286C8.62465 5.27145 8.34845 5.61055 7.98937 5.84054L7.65249 6.03491C7.23374 6.25006 6.75259 6.31006 6.29398 6.2043L5.07375 5.8606C4.35541 5.65676 3.99625 5.55484 3.67867 5.684C3.36109 5.81317 3.17445 6.13708 2.80115 6.78491L2.30757 7.64151C1.95766 8.24876 1.7827 8.55239 1.81666 8.87561C1.85061 9.19883 2.08483 9.4593 2.55326 9.98024L3.5843 11.1329C3.8363 11.4519 4.01521 12.0079 4.01521 12.5078C4.01521 13.0079 3.83636 13.5637 3.58433 13.8828L2.55326 15.0355C2.08483 15.5565 1.85062 15.8169 1.81666 16.1402C1.7827 16.4634 1.95766 16.767 2.30757 17.3742L2.80114 18.2308C3.17443 18.8786 3.36109 19.2026 3.67867 19.3317C3.99625 19.4609 4.35542 19.359 5.07377 19.1551L6.29394 18.8114C6.75263 18.7056 7.23387 18.7657 7.65267 18.9809L7.9895 19.1753C8.34851 19.4053 8.62464 19.7443 8.7775 20.1429L9.11149 21.1404C9.33106 21.8004 9.44085 22.1304 9.7022 22.3192C9.9636 22.5079 10.3108 22.5079 11.0051 22.5079H12.1199C12.8143 22.5079 13.1615 22.5079 13.4228 22.3192C13.6842 22.1304 13.794 21.8004 14.0136 21.1404L14.3476 20.1429C14.5004 19.7443 14.7765 19.4053 15.1356 19.1753L15.4724 18.9809C15.8912 18.7657 16.3724 18.7056 16.8311 18.8114L18.0513 19.1551C18.7696 19.359 19.1288 19.4609 19.4464 19.3317C19.764 19.2026 19.9506 18.8786 20.3239 18.2308L20.8175 17.3742C21.1674 16.767 21.3423 16.4634 21.3084 16.1402C21.2744 15.8169 21.0402 15.5565 20.5718 15.0355L19.5407 13.8828C19.2887 13.5637 19.1098 13.0079 19.1098 12.5078C19.1098 12.0079 19.2888 11.4519 19.5407 11.1329L20.5718 9.98024C21.0402 9.4593 21.2744 9.19883 21.3084 8.87561C21.3423 8.55239 21.1674 8.24876 20.8175 7.64151Z" stroke="white" stroke-width="1.5"/>
<path d="M15.0195 12.5001C15.0195 14.4331 13.4525 16.0001 11.5195 16.0001C9.5865 16.0001 8.01953 14.4331 8.01953 12.5001C8.01953 10.5671 9.5865 9.00012 11.5195 9.00012C13.4525 9.00012 15.0195 10.5671 15.0195 12.5001Z" stroke="white" stroke-width="1.5"/>
</svg>
