<svg width="20" height="21" viewBox="0 0 20 21" fill="none" xmlns="http://www.w3.org/2000/svg">
<g clip-path="url(#clip0_202_672)">
<path d="M10 15.6034C9 15.6034 8.06898 15.3276 7.24137 14.7759C6.41379 14.2241 5.79309 13.5345 5.3793 12.6724L1.24137 5.5C0.379297 7.05172 0 8.74137 0 10.5C0 13.0172 0.827578 15.1896 2.44828 17.0517C4.06898 18.9138 6.10344 20.0172 8.51727 20.3966L11.4138 15.3621C11.1379 15.4655 10.6207 15.6034 10 15.6034Z" fill="white"/>
<path d="M6.86216 6.36207C7.79317 5.63793 8.82767 5.32758 10.0001 5.32758H18.5863C17.6898 3.81035 16.4829 2.70687 14.9656 1.8448C13.4484 0.948281 11.7932 0.5 10.0001 0.5C8.44837 0.5 6.96559 0.844844 5.62079 1.5C4.27599 2.15516 3.00009 3.1207 2.10352 4.36207L5.00009 9.1207C5.27595 8.01723 5.9311 7.08621 6.86216 6.36207Z" fill="white"/>
<path d="M19.2414 6.74146H13.4483C14.4483 7.74146 15.1379 9.05181 15.1379 10.5001C15.1379 11.5691 14.8276 12.5346 14.2414 13.4311L10.1035 20.5001C12.8276 20.4656 15.1724 19.5001 17.1035 17.5346C19.0345 15.5691 20 13.2242 20 10.5001C20 9.22424 19.7931 7.87939 19.2414 6.74146Z" fill="white"/>
<path d="M10.0001 6.70703C12.0691 6.70703 13.7932 8.43117 13.7932 10.5001C13.7932 12.569 12.0691 14.2932 10.0001 14.2932C7.93113 14.2932 6.20703 12.5691 6.20703 10.5001C6.20703 8.43113 7.93113 6.70703 10.0001 6.70703Z" fill="white"/>
</g>
<defs>
<clipPath id="clip0_202_672">
<rect width="20" height="20" fill="white" transform="translate(0 0.5)"/>
</clipPath>
</defs>
</svg>
