<svg width="591" height="557" viewBox="0 0 591 557" fill="none" xmlns="http://www.w3.org/2000/svg">
<mask id="mask0_592_2918" style="mask-type:luminance" maskUnits="userSpaceOnUse" x="0" y="0" width="591" height="557">
<path d="M590.392 0.224609H0.60791V556.225H590.392V0.224609Z" fill="white"/>
</mask>
<g mask="url(#mask0_592_2918)">
<path d="M297.99 90.1175C217.922 112.318 233.983 164.988 225.029 223.35C213.852 296.19 165.544 258.84 110.044 298.177C14.1087 366.176 83.7994 516.283 202.939 493.486C266.204 481.383 279.131 437.412 304.934 390.43C338.313 329.652 393.666 346.222 443.313 306.544C544.004 226.082 411.574 58.6313 297.99 90.1175Z" fill="url(#paint0_linear_592_2918)"/>
<path d="M97.6895 427.241C87.5228 436.194 80.1735 442.666 77.9341 444.639" stroke="#9FE3FE" stroke-width="7" stroke-linecap="round" stroke-linejoin="round"/>
<path d="M130.645 295.713C113.432 309.329 95.3101 323.665 84.3784 332.312" stroke="#9FE3FE" stroke-width="7" stroke-linecap="round" stroke-linejoin="round"/>
<path d="M296.605 381.548C293.371 384.914 285.703 392.896 276.062 402.93" stroke="#9FE3FE" stroke-width="7" stroke-linecap="round" stroke-linejoin="round"/>
<path d="M440.898 173.948L216.401 254.124L207.198 280.068L216.791 372.896L440.898 173.948Z" fill="#0077FF"/>
<path d="M238.14 306.632L216.791 372.896L266.365 330.693L238.14 306.632Z" fill="#2DC2FF"/>
<path d="M440.898 173.944L313.367 377.235L238.137 306.633L440.898 173.944Z" fill="#7FDAFF"/>
<path d="M207.196 279.534L440.897 173.948L129.815 235.044L207.196 279.534Z" fill="#7FDAFF"/>
<path d="M260.719 202.11H214.104C184.668 202.11 160.805 179.614 160.805 151.865C160.805 124.115 184.668 101.62 214.104 101.62C243.539 101.62 267.402 124.115 267.402 151.865V195.81C267.402 199.29 264.41 202.11 260.719 202.11Z" fill="#00B6FF"/>
<path d="M246.402 147.848C246.402 151.973 242.858 155.314 238.481 155.314C234.111 155.314 230.566 151.973 230.566 147.848C230.566 143.727 234.111 140.386 238.481 140.386C242.858 140.386 246.402 143.727 246.402 147.848Z" fill="white"/>
<path d="M222.022 151.665C222.022 155.79 218.477 159.131 214.106 159.131C209.734 159.131 206.186 155.79 206.186 151.665C206.186 147.544 209.734 144.203 214.106 144.203C218.477 144.203 222.022 147.544 222.022 151.665Z" fill="white"/>
<path d="M197.643 151.862C197.643 155.987 194.099 159.329 189.723 159.329C185.352 159.329 181.808 155.987 181.808 151.862C181.808 147.741 185.352 144.4 189.723 144.4C194.099 144.4 197.643 147.741 197.643 151.862Z" fill="white"/>
<path d="M356.16 136.27L356.578 136.713L357.207 136.685L356.736 137.079L356.766 137.672L356.348 137.228L355.72 137.256L356.19 136.862L356.16 136.27Z" fill="#2DC2FF"/>
<path d="M356.16 136.27L356.578 136.713L357.207 136.685L356.736 137.079L356.766 137.672L356.348 137.228L355.72 137.256L356.19 136.862L356.16 136.27Z" stroke="#2DC2FF" stroke-width="0.474172" stroke-linecap="round" stroke-linejoin="round"/>
</g>
<defs>
<linearGradient id="paint0_linear_592_2918" x1="71.5171" y1="105.875" x2="438.36" y2="517.863" gradientUnits="userSpaceOnUse">
<stop stop-color="#DBF5FF"/>
<stop offset="0.5" stop-color="#DFF0F7"/>
<stop offset="1" stop-color="#D1F2FF"/>
</linearGradient>
</defs>
</svg>
