<svg width="49" height="49" viewBox="0 0 49 49" fill="none" xmlns="http://www.w3.org/2000/svg">
<g clip-path="url(#clip0_507_423)">
<path d="M48.6532 21.3747V24.955C48.6532 27.039 48.6532 28.1345 48.3056 29.0963C48.2789 29.1498 48.2789 29.1765 48.2522 29.2299C48.1452 29.4971 48.0116 29.7643 47.8244 30.0048C47.37 30.6727 46.6482 31.3941 45.5254 32.5163L33.0677 44.9671C32.0251 46.0091 31.33 46.7038 30.6884 47.158C30.5548 47.2648 30.4478 47.345 30.3142 47.3984C30.1538 47.532 29.9666 47.6122 29.7795 47.6923C28.7904 48.0931 27.6943 48.0931 25.5022 48.0931H21.9199C11.8415 48.0931 6.7889 48.0931 3.66112 44.9671C0.854124 42.1616 0.560059 37.8332 0.560059 29.7643H10.5048C14.595 29.7643 17.9367 26.4245 17.9367 22.3099C17.9367 18.9433 15.7178 16.1913 12.4831 15.3631C11.2266 15.0425 9.94343 14.9089 8.68697 14.7486C6.8691 14.5081 4.97104 13.947 3.60765 12.718C2.16405 11.4088 1.38879 9.35144 1.38879 7.42771V7.29412C1.46899 3.25964 4.78391 0 8.84736 0H17.0545C17.2416 0 17.402 0 17.5891 0.0267184H17.8297C19.0862 0 20.4496 0 21.9199 0H27.2666C37.345 0 42.3976 0 45.5254 3.12605C48.6532 6.2521 48.6532 11.3019 48.6532 21.3747Z" fill="url(#paint0_linear_507_423)"/>
<path d="M48.3056 29.0963C48.2789 29.1498 48.2789 29.1765 48.2522 29.2299C48.1452 29.4971 48.0116 29.7643 47.8244 30.0048C47.37 30.6727 46.6482 31.3941 45.5254 32.5163L33.0677 44.9671C32.0251 46.0091 31.33 46.7038 30.6884 47.158C30.5548 47.2648 30.4478 47.345 30.3142 47.3984C30.2072 47.3984 30.1538 47.4251 30.1003 47.4519V44.6464C30.1003 37.3256 30.1003 33.6652 32.3994 31.3674C34.6717 29.0963 38.3341 29.0963 45.659 29.0963H48.3056Z" fill="#0050B3"/>
</g>
<defs>
<linearGradient id="paint0_linear_507_423" x1="50.0032" y1="16.2646" x2="-1.5449" y2="28.8661" gradientUnits="userSpaceOnUse">
<stop stop-color="#0077FF"/>
<stop offset="1" stop-color="#2DC2FF"/>
</linearGradient>
<clipPath id="clip0_507_423">
<rect width="48.0931" height="48.0931" fill="white" transform="translate(0.560059)"/>
</clipPath>
</defs>
</svg>
