<svg width="19" height="19" viewBox="0 0 19 19" fill="none" xmlns="http://www.w3.org/2000/svg">
<path d="M7.125 11.875C7.125 9.63585 7.125 8.51628 7.82062 7.82062C8.51628 7.125 9.63585 7.125 11.875 7.125H12.6667C14.9058 7.125 16.0254 7.125 16.721 7.82062C17.4167 8.51628 17.4167 9.63585 17.4167 11.875V12.6667C17.4167 14.9058 17.4167 16.0254 16.721 16.721C16.0254 17.4167 14.9058 17.4167 12.6667 17.4167H11.875C9.63585 17.4167 8.51628 17.4167 7.82062 16.721C7.125 16.0254 7.125 14.9058 7.125 12.6667V11.875Z" stroke="#94A3B8" stroke-linecap="round" stroke-linejoin="round"/>
<path d="M13.4584 7.12504C13.4565 4.78401 13.4211 3.57142 12.7397 2.74113C12.6081 2.58079 12.4611 2.43377 12.3008 2.30218C11.4249 1.58337 10.1236 1.58337 7.521 1.58337C4.91841 1.58337 3.61711 1.58337 2.74125 2.30218C2.58091 2.43376 2.43389 2.58079 2.3023 2.74113C1.5835 3.61699 1.5835 4.91829 1.5835 7.52087C1.5835 10.1235 1.5835 11.4247 2.3023 12.3006C2.43388 12.461 2.58091 12.608 2.74125 12.7395C3.57154 13.421 4.78413 13.4564 7.12516 13.4583" stroke="#94A3B8" stroke-linecap="round" stroke-linejoin="round"/>
</svg>
