<svg width="15" height="15" viewBox="0 0 15 15" fill="none" xmlns="http://www.w3.org/2000/svg">
<g clip-path="url(#clip0_590_1678)">
<path d="M5.625 9.375C5.625 7.60725 5.625 6.72338 6.17418 6.17418C6.72338 5.625 7.60725 5.625 9.375 5.625H10C11.7677 5.625 12.6516 5.625 13.2008 6.17418C13.75 6.72338 13.75 7.60725 13.75 9.375V10C13.75 11.7677 13.75 12.6516 13.2008 13.2008C12.6516 13.75 11.7677 13.75 10 13.75H9.375C7.60725 13.75 6.72338 13.75 6.17418 13.2008C5.625 12.6516 5.625 11.7677 5.625 10V9.375Z" stroke="#94A3B8" stroke-linecap="round" stroke-linejoin="round"/>
<path d="M10.6249 5.625C10.6234 3.77682 10.5955 2.81951 10.0575 2.16402C9.95362 2.03743 9.83756 1.92136 9.711 1.81747C9.0195 1.25 7.99219 1.25 5.9375 1.25C3.88282 1.25 2.85549 1.25 2.16402 1.81747C2.03743 1.92136 1.92136 2.03743 1.81747 2.16402C1.25 2.85549 1.25 3.88282 1.25 5.9375C1.25 7.99219 1.25 9.0195 1.81747 9.711C1.92136 9.83756 2.03743 9.95362 2.16402 10.0575C2.81951 10.5955 3.77682 10.6234 5.625 10.6249" stroke="#94A3B8" stroke-linecap="round" stroke-linejoin="round"/>
</g>
<defs>
<clipPath id="clip0_590_1678">
<rect width="15" height="15" fill="white"/>
</clipPath>
</defs>
</svg>
