<svg width="31" height="31" viewBox="0 0 31 31" fill="none" xmlns="http://www.w3.org/2000/svg">
<g clip-path="url(#clip0_234_607)">
<path d="M30.1864 13.4162V15.6634C30.1864 16.9714 30.1864 17.659 29.9682 18.2628C29.9515 18.2963 29.9515 18.3131 29.9347 18.3466C29.8676 18.5143 29.7837 18.682 29.6662 18.8329C29.381 19.2522 28.9279 19.705 28.2232 20.4093L20.4039 28.2243C19.7495 28.8783 19.3132 29.3143 18.9105 29.5994C18.8266 29.6665 18.7595 29.7168 18.6756 29.7503C18.5749 29.8342 18.4575 29.8845 18.34 29.9348C17.7192 30.1864 17.0312 30.1864 15.6553 30.1864H13.4068C7.08096 30.1864 3.90963 30.1864 1.94643 28.2243C0.184575 26.4634 0 23.7466 0 18.682H6.24198C8.80925 18.682 10.9067 16.5857 10.9067 14.0031C10.9067 11.8901 9.51399 10.1627 7.48367 9.64287C6.69503 9.44163 5.88961 9.35777 5.10098 9.25715C3.95997 9.10622 2.76862 8.75405 1.91287 7.98262C1.00677 7.16088 0.520165 5.86957 0.520165 4.66212V4.57827C0.570504 2.04597 2.65117 0 5.20165 0H10.353C10.4704 0 10.5711 0 10.6886 0.0167702H10.8396C11.6282 0 12.484 0 13.4068 0H16.7627C23.0886 0 26.26 0 28.2232 1.96211C30.1864 3.92423 30.1864 7.0938 30.1864 13.4162Z" fill="url(#paint0_linear_234_607)"/>
<path d="M29.9682 18.2628C29.9515 18.2963 29.9515 18.3131 29.9347 18.3466C29.8676 18.5143 29.7837 18.682 29.6662 18.8329C29.381 19.2522 28.9279 19.705 28.2232 20.4093L20.4039 28.2243C19.7495 28.8783 19.3132 29.3143 18.9105 29.5994C18.8266 29.6665 18.7595 29.7168 18.6756 29.7503C18.6085 29.7503 18.5749 29.7671 18.5414 29.7839V28.023C18.5414 23.428 18.5414 21.1305 19.9844 19.6882C21.4107 18.2628 23.7095 18.2628 28.3071 18.2628H29.9682Z" fill="#0050B3"/>
</g>
<defs>
<linearGradient id="paint0_linear_234_607" x1="31.0337" y1="10.2087" x2="-1.32121" y2="18.1183" gradientUnits="userSpaceOnUse">
<stop stop-color="#0077FF"/>
<stop offset="1" stop-color="#2DC2FF"/>
</linearGradient>
<clipPath id="clip0_234_607">
<rect width="30.1864" height="30.1864" fill="white"/>
</clipPath>
</defs>
</svg>
