<svg width="24" height="25" viewBox="0 0 24 25" fill="none" xmlns="http://www.w3.org/2000/svg">
<path d="M14.491 15.593H14.5M9.5 15.593H9.50897" stroke="#8D9199" stroke-width="2" stroke-linecap="round" stroke-linejoin="round"/>
<path d="M4.26781 18.9377C4.49269 20.608 5.87613 21.9165 7.55966 21.9939C8.97627 22.059 10.4153 22.093 12 22.093C13.5847 22.093 15.0237 22.059 16.4403 21.9939C18.1239 21.9165 19.5073 20.608 19.7322 18.9377C19.879 17.8477 20 16.7306 20 15.593C20 14.4554 19.879 13.3383 19.7322 12.2483C19.5073 10.578 18.1239 9.26951 16.4403 9.19211C15.0237 9.12699 13.5847 9.09302 12 9.09302C10.4153 9.09302 8.97627 9.12699 7.55966 9.19211C5.87613 9.26951 4.49269 10.578 4.26781 12.2483C4.12105 13.3383 4 14.4554 4 15.593C4 16.7306 4.12105 17.8477 4.26781 18.9377Z" stroke="#8D9199" stroke-width="1.5"/>
<path d="M7.5 9.09302V6.59302C7.5 4.10774 9.51472 2.09302 12 2.09302C14.4853 2.09302 16.5 4.10774 16.5 6.59302V9.09302" stroke="#8D9199" stroke-width="1.5" stroke-linecap="round" stroke-linejoin="round"/>
</svg>
