<svg width="79" height="79" viewBox="0 0 79 79" fill="none" xmlns="http://www.w3.org/2000/svg">
<circle cx="39.5" cy="39.5" r="39.5" fill="white"/>
<path d="M44.4998 20.6667L45.4875 25.0513C46.3253 28.7704 49.2295 31.6746 52.9486 32.5124L57.3332 33.5001L52.9486 34.4878C49.2295 35.3255 46.3253 38.2297 45.4875 41.9488L44.4998 46.3334L43.5122 41.9488C42.6744 38.2297 39.7702 35.3255 36.0511 34.4878L31.6665 33.5001L36.0511 32.5124C39.77 31.6746 42.6744 28.7704 43.5122 25.0513L44.4998 20.6667Z" stroke="#FFC107" stroke-width="2.5" stroke-linejoin="round"/>
<path d="M29.8332 39L30.5387 42.1319C31.1371 44.7882 33.2115 46.8628 35.868 47.4612L38.9998 48.1667L35.868 48.8721C33.2115 49.4705 31.1371 51.545 30.5387 54.2015L29.8332 57.3333L29.1277 54.2015C28.5293 51.545 26.4548 49.4705 23.7983 48.8721L20.6665 48.1667L23.7983 47.4612C26.4548 46.8628 28.5293 44.7884 29.1277 42.1319L29.8332 39Z" stroke="#FFDF80" stroke-width="2.5" stroke-linejoin="round"/>
</svg>
