<svg width="32" height="22" viewBox="0 0 32 22" fill="none" xmlns="http://www.w3.org/2000/svg">
<path d="M18.8567 21L14.7237 9.21129C12.8046 3.7371 11.845 1 10.2853 1C8.72562 1 7.76604 3.7371 5.84685 9.21129L1.71387 21M5.2853 11H15.2853" stroke="#0077FF" stroke-width="2" stroke-linecap="round" stroke-linejoin="round"/>
<path d="M30.2411 13.7703V20.1989M30.2411 13.7703C30.3085 12.5944 30.3111 11.6987 30.17 10.9676C29.8371 9.24415 28.0362 8.20558 26.2937 7.99428C24.6258 7.7921 23.2872 8.22143 21.933 10.1947M30.2411 13.7703H26.1788C25.5547 13.7703 24.9252 13.8004 24.324 13.9676C20.6487 14.9893 20.9181 20.1433 24.6041 20.7786C25.0135 20.8491 25.4315 20.8794 25.8461 20.8609C26.8141 20.8177 27.7072 20.35 28.4738 19.7573C29.3715 19.0629 30.2411 18.0936 30.2411 16.6274V13.7703Z" stroke="#C1DEFF" stroke-width="2" stroke-linecap="round" stroke-linejoin="round"/>
</svg>
