<svg width="21" height="20" viewBox="0 0 21 20" fill="none" xmlns="http://www.w3.org/2000/svg">
<path d="M1.66692 7.11321H19.6663M5.65275 1.05143L10.6666 7.11327L15.689 1.05568M19.4624 6.63337L15.9703 1.36296C15.8823 1.23026 15.8384 1.16391 15.7803 1.11587C15.7289 1.07335 15.6696 1.04144 15.6059 1.02198C15.534 1 15.4547 1 15.2962 1H6.03703C5.87852 1 5.79926 1 5.72732 1.02198C5.66363 1.04144 5.60438 1.07335 5.55296 1.11587C5.49487 1.16391 5.45091 1.23026 5.36298 1.36296L1.87089 6.63337C1.75642 6.80613 1.69918 6.89251 1.67867 6.98544C1.66055 7.06751 1.66291 7.15283 1.68552 7.23376C1.71112 7.3254 1.77303 7.40845 1.89685 7.57456L10.0185 18.4702C10.2384 18.7651 10.3483 18.9126 10.4831 18.9654C10.6011 19.0115 10.7321 19.0115 10.8502 18.9654C10.9849 18.9126 11.0948 18.7651 11.3147 18.4702L19.4364 7.57456C19.5602 7.40845 19.6221 7.3254 19.6477 7.23376C19.6703 7.15283 19.6727 7.06751 19.6546 6.98544C19.6341 6.89251 19.5768 6.80613 19.4624 6.63337Z" stroke="#9D00FF" stroke-width="2" stroke-linecap="round" stroke-linejoin="round"/>
</svg>
