<svg width="20" height="21" viewBox="0 0 20 21" fill="none" xmlns="http://www.w3.org/2000/svg">
<g clip-path="url(#clip0_592_2975)">
<path d="M16.9377 6.30322L16.8262 5.77596C16.7257 5.30253 16.4986 4.85523 15.981 4.68423C15.8146 4.6296 15.6263 4.60664 15.4997 4.49343C15.3713 4.38022 15.3341 4.20368 15.3046 4.04059C15.2497 3.74133 15.199 3.44208 15.1425 3.14361C15.0943 2.88632 15.0563 2.59735 14.9314 2.36222C14.7667 2.04555 14.4273 1.8603 14.0904 1.73838C13.9174 1.67776 13.7409 1.62648 13.5618 1.58479C12.7174 1.37658 11.8308 1.29979 10.9636 1.25545C9.92223 1.20177 8.87813 1.21818 7.8393 1.30454C7.06668 1.37025 6.25184 1.45021 5.51722 1.70038C5.2487 1.79221 4.97174 1.90305 4.7674 2.09701C4.51661 2.3361 4.43555 2.70661 4.61794 3.00428C4.74797 3.21566 4.96836 3.36529 5.20226 3.46345C5.50624 3.59171 5.82458 3.68829 6.15051 3.75321C7.05824 3.94163 7.99889 4.01526 8.92604 4.04613C9.95451 4.08572 10.9838 4.05405 12.0081 3.95271C12.2606 3.92659 12.513 3.89492 12.7647 3.8585C13.0619 3.81575 13.2527 3.45237 13.1649 3.19824C13.0602 2.89503 12.779 2.77786 12.4607 2.82378C12.0672 2.88236 11.6501 2.90928 11.2937 2.93936C10.2999 3.0027 9.30264 3.00428 8.30794 2.94411C7.98156 2.92386 7.65579 2.89561 7.33098 2.8594C7.25836 2.85148 7.17899 2.83961 7.11312 2.8309C6.90794 2.8024 6.70444 2.76757 6.50178 2.72798C6.40805 2.70661 6.40805 2.58152 6.50178 2.56015H6.506C6.7399 2.51264 6.97633 2.47464 7.21361 2.44377H7.21529C7.32591 2.43664 7.43737 2.41843 7.54799 2.40577C8.50884 2.31227 9.4754 2.28052 10.4409 2.31077C11.01 2.32581 11.5783 2.36381 12.144 2.42477L12.3365 2.44931C12.562 2.48098 12.7866 2.51898 13.0104 2.5641C13.3414 2.6314 13.7661 2.65356 13.9139 2.9932C13.9603 3.10166 13.9814 3.2212 14.0076 3.33441L14.277 4.50927C14.2827 4.53446 14.2828 4.56048 14.2773 4.58572C14.2718 4.61095 14.2609 4.63486 14.2451 4.65595C14.2293 4.67704 14.2091 4.69487 14.1857 4.70831C14.1623 4.72176 14.1361 4.73054 14.1089 4.7341H14.1064C14.0752 4.73885 14.0431 4.74202 14.0118 4.74598C12.6836 4.90486 11.3458 4.98287 10.0069 4.97952C8.68016 4.97824 7.35488 4.89786 6.03905 4.73885C5.92084 4.72539 5.79165 4.7056 5.68694 4.69135C5.41167 4.65335 5.13893 4.60585 4.86535 4.56389C4.5335 4.51243 4.21685 4.53856 3.91709 4.69135C3.67222 4.81802 3.47209 5.01119 3.34712 5.24632C3.21709 5.49649 3.17909 5.76883 3.12167 6.038C3.06341 6.30717 2.97306 6.59772 3.00768 6.87402C3.08114 7.47015 3.52529 7.95466 4.1645 8.06312C7.32546 8.59201 10.5511 8.69226 13.7425 8.3608C13.8031 8.35433 13.8645 8.3607 13.9222 8.37944C13.9798 8.39818 14.0323 8.42881 14.0756 8.46908C14.119 8.50934 14.1521 8.55822 14.1726 8.61209C14.1932 8.66597 14.2005 8.72348 14.1942 8.78039L14.1343 9.33219L13.2747 17.1754C13.2401 17.5 13.235 17.8341 13.1691 18.1547C13.0661 18.659 12.7022 18.9685 12.171 19.0817C11.6838 19.1855 11.1873 19.2401 10.6883 19.244C10.1344 19.2472 9.58213 19.2243 9.02821 19.2266C8.43798 19.2298 7.71433 19.1791 7.2592 18.7675C6.85812 18.4049 6.80323 17.838 6.74835 17.348L6.13109 11.7959L5.8592 9.34644C5.82795 9.06856 5.6177 8.79622 5.2867 8.80968C5.00298 8.82156 4.68042 9.04718 4.7142 9.34723L4.90672 11.0771L5.70805 18.2909C5.83218 19.3549 6.69937 19.9281 7.77344 20.0896C8.39998 20.1846 9.04257 20.2036 9.67924 20.2131C10.4949 20.2257 11.3191 20.255 12.1212 20.1165C13.3101 19.9122 14.2027 19.168 14.3302 18.013C14.6173 15.3751 14.9069 12.738 15.1948 10.1001L15.3764 8.44788C15.3853 8.36595 15.4222 8.2889 15.4815 8.22815C15.5408 8.1674 15.6194 8.12619 15.7057 8.11063C16.0451 8.04887 16.3702 7.94279 16.6126 7.70053C16.9968 7.31419 17.0736 6.81148 16.9377 6.30322ZM15.6896 6.91439C15.5672 7.02285 15.3831 7.07352 15.2016 7.09886C13.1615 7.38307 11.0928 7.52636 9.03074 7.46303C7.55474 7.41553 6.09478 7.26194 4.63398 7.06877C4.49043 7.04977 4.33591 7.02523 4.23712 6.92627C4.05135 6.73943 4.14339 6.36418 4.19152 6.13855C4.23543 5.93271 4.31987 5.65641 4.58247 5.62712C4.99116 5.58199 5.46571 5.74429 5.87102 5.80129C6.35823 5.87096 6.84714 5.92717 7.33773 5.96913C9.43183 6.14805 11.5614 6.11955 13.647 5.85829C14.027 5.81079 14.4062 5.75537 14.7828 5.69204C15.1197 5.63504 15.4921 5.52895 15.6947 5.85512C15.8349 6.07759 15.8535 6.37526 15.8315 6.62622C15.8248 6.73582 15.7746 6.8389 15.6896 6.91439ZM10.489 10.002C9.76115 10.2949 8.93533 10.6258 7.86379 10.6258C7.41593 10.6248 6.97028 10.567 6.53894 10.454L7.27947 17.5823C7.33435 18.1998 7.8849 18.6748 8.54606 18.6748C8.54606 18.6748 9.59564 18.7263 9.94607 18.7263C10.3235 18.7263 11.4542 18.6748 11.4542 18.6748C12.1153 18.6748 12.665 18.1998 12.7199 17.5823L13.5136 9.70507C13.1555 9.58366 12.7781 9.51995 12.3973 9.51665C11.6999 9.51665 11.1384 9.74149 10.489 10.002Z" fill="#8D9199"/>
</g>
<defs>
<clipPath id="clip0_592_2975">
<rect width="20" height="20" fill="white" transform="translate(0 0.724609)"/>
</clipPath>
</defs>
</svg>
