<svg width="20" height="21" viewBox="0 0 20 21" fill="none" xmlns="http://www.w3.org/2000/svg">
<g clip-path="url(#clip0_592_2979)">
<path d="M10 6.33999C9.1328 6.33999 8.28508 6.59715 7.56404 7.07894C6.84299 7.56072 6.281 8.24551 5.94914 9.04669C5.61728 9.84787 5.53045 10.7295 5.69963 11.58C5.86882 12.4305 6.28641 13.2118 6.89961 13.825C7.51281 14.4382 8.29407 14.8558 9.1446 15.025C9.99514 15.1942 10.8767 15.1073 11.6779 14.7755C12.4791 14.4436 13.1639 13.8816 13.6457 13.1606C14.1275 12.4395 14.3846 11.5918 14.3846 10.7246C14.3834 9.56211 13.9211 8.44757 13.0991 7.62555C12.277 6.80354 11.1625 6.3412 10 6.33999ZM10 13.6477C9.42187 13.6477 8.85672 13.4763 8.37603 13.1551C7.89533 12.8339 7.52067 12.3773 7.29943 11.8432C7.07819 11.3091 7.0203 10.7214 7.13309 10.1543C7.24588 9.58732 7.52427 9.06648 7.93307 8.65768C8.34187 8.24888 8.86271 7.97049 9.42974 7.8577C9.99676 7.74491 10.5845 7.8028 11.1186 8.02404C11.6527 8.24528 12.1093 8.61994 12.4304 9.10064C12.7516 9.58133 12.9231 10.1465 12.9231 10.7246C12.9231 11.4999 12.6151 12.2434 12.0669 12.7915C11.5187 13.3397 10.7752 13.6477 10 13.6477ZM14.3846 1.22461H5.61538C4.25915 1.22606 2.95887 1.76547 1.99986 2.72447C1.04086 3.68348 0.501451 4.98375 0.5 6.33999V15.1092C0.501451 16.4655 1.04086 17.7657 1.99986 18.7247C2.95887 19.6838 4.25915 20.2232 5.61538 20.2246H14.3846C15.7409 20.2232 17.0411 19.6838 18.0001 18.7247C18.9591 17.7657 19.4985 16.4655 19.5 15.1092V6.33999C19.4985 4.98375 18.9591 3.68348 18.0001 2.72447C17.0411 1.76547 15.7409 1.22606 14.3846 1.22461ZM18.0385 15.1092C18.0385 16.0783 17.6535 17.0077 16.9683 17.6929C16.283 18.3781 15.3537 18.7631 14.3846 18.7631H5.61538C4.64632 18.7631 3.71695 18.3781 3.03173 17.6929C2.3465 17.0077 1.96154 16.0783 1.96154 15.1092V6.33999C1.96154 5.37093 2.3465 4.44156 3.03173 3.75633C3.71695 3.07111 4.64632 2.68615 5.61538 2.68615H14.3846C15.3537 2.68615 16.283 3.07111 16.9683 3.75633C17.6535 4.44156 18.0385 5.37093 18.0385 6.33999V15.1092ZM15.8462 5.97461C15.8462 6.19141 15.7819 6.40334 15.6614 6.5836C15.541 6.76386 15.3698 6.90436 15.1695 6.98732C14.9692 7.07029 14.7488 7.092 14.5362 7.0497C14.3235 7.00741 14.1282 6.90301 13.9749 6.74971C13.8216 6.59641 13.7172 6.40109 13.6749 6.18846C13.6326 5.97583 13.6543 5.75543 13.7373 5.55513C13.8203 5.35483 13.9607 5.18364 14.141 5.06319C14.3213 4.94274 14.5332 4.87846 14.75 4.87846C15.0407 4.87846 15.3195 4.99394 15.5251 5.19951C15.7307 5.40508 15.8462 5.68389 15.8462 5.97461Z" fill="#8D9199"/>
</g>
<defs>
<clipPath id="clip0_592_2979">
<rect width="20" height="20" fill="white" transform="translate(0 0.724609)"/>
</clipPath>
</defs>
</svg>
