<svg width="20" height="21" viewBox="0 0 20 21" fill="none" xmlns="http://www.w3.org/2000/svg">
<g clip-path="url(#clip0_592_2973)">
<path d="M18.5817 1.23163L5.07051 1.22461C4.92079 1.22461 4.78385 1.30009 4.70899 1.42296L0.0585659 9.02004C-0.10576 9.28861 0.0950847 9.62914 0.420085 9.62914H6.41797C6.56769 9.62914 6.70463 9.55366 6.77949 9.42903L8.14157 7.19976C8.21643 7.07689 8.3552 6.99965 8.50492 7.00141L15.7772 7.00492C15.9306 7.00492 16.073 6.92417 16.1461 6.79428L18.9487 1.82844C19.1003 1.55988 18.8976 1.23163 18.5799 1.23163H18.5817Z" fill="#8D9199"/>
<path d="M12.8757 9.84329C12.8026 9.7134 12.6602 9.63266 12.5068 9.63266L6.86132 9.62914C6.7116 9.62914 6.57466 9.70463 6.49798 9.8275L3.62775 14.5177C3.55289 14.6406 3.55107 14.7916 3.62045 14.9144L6.49798 20.0137C6.65317 20.2893 7.06399 20.2963 7.23014 20.026L9.93422 15.6043C10.0091 15.4814 10.1478 15.4042 10.2976 15.4042L15.3113 15.4077C15.6308 15.4077 15.8335 15.0812 15.6801 14.8109L12.8757 9.84329Z" fill="#8D9199"/>
</g>
<defs>
<clipPath id="clip0_592_2973">
<rect width="20" height="20" fill="white" transform="translate(0 0.724609)"/>
</clipPath>
</defs>
</svg>
