<svg width="502" height="191" viewBox="0 0 502 191" fill="none" xmlns="http://www.w3.org/2000/svg">
<mask id="mask0_590_2305" style="mask-type:alpha" maskUnits="userSpaceOnUse" x="0" y="0" width="502" height="191">
<rect width="502" height="191" fill="#D9D9D9"/>
</mask>
<g mask="url(#mask0_590_2305)">
<rect x="257" y="33" width="520" height="580" rx="32" fill="#F0F7FF"/>
<rect x="276" y="53" width="483" height="540" rx="24" fill="white"/>
<rect x="276.5" y="53.5" width="482" height="539" rx="23.5" stroke="white" stroke-opacity="0.03"/>
<path d="M311.538 79.6172C311.491 79.183 311.296 78.8449 310.951 78.603C310.61 78.361 310.165 78.2401 309.619 78.2401C309.234 78.2401 308.904 78.2981 308.629 78.4141C308.354 78.5301 308.144 78.6875 307.998 78.8864C307.852 79.0852 307.777 79.3123 307.774 79.5675C307.774 79.7796 307.822 79.9635 307.918 80.1193C308.018 80.2751 308.152 80.4077 308.321 80.517C308.49 80.6231 308.677 80.7126 308.883 80.7855C309.088 80.8584 309.295 80.9197 309.504 80.9695L310.459 81.2081C310.843 81.2976 311.213 81.4186 311.567 81.571C311.925 81.7235 312.245 81.9157 312.527 82.1477C312.812 82.3797 313.037 82.6598 313.203 82.9879C313.369 83.3161 313.452 83.7005 313.452 84.1413C313.452 84.7379 313.299 85.2633 312.994 85.7173C312.689 86.1681 312.249 86.5211 311.672 86.7763C311.098 87.0282 310.404 87.1541 309.589 87.1541C308.797 87.1541 308.109 87.0315 307.526 86.7862C306.946 86.541 306.491 86.183 306.163 85.7124C305.839 85.2417 305.663 84.6683 305.636 83.9922H307.451C307.478 84.3468 307.587 84.6418 307.779 84.8771C307.971 85.1125 308.222 85.2881 308.53 85.4041C308.841 85.5201 309.189 85.5781 309.574 85.5781C309.975 85.5781 310.326 85.5185 310.628 85.3991C310.933 85.2765 311.171 85.1075 311.344 84.892C311.516 84.6733 311.604 84.4181 311.607 84.1264C311.604 83.8613 311.526 83.6425 311.374 83.4702C311.221 83.2945 311.007 83.1487 310.732 83.0327C310.46 82.9134 310.142 82.8073 309.778 82.7145L308.619 82.4162C307.781 82.2008 307.118 81.8743 306.631 81.4368C306.147 80.996 305.905 80.411 305.905 79.6818C305.905 79.0819 306.067 78.5566 306.392 78.1058C306.72 77.6551 307.166 77.3054 307.729 77.0568C308.293 76.8049 308.931 76.679 309.643 76.679C310.366 76.679 310.999 76.8049 311.543 77.0568C312.089 77.3054 312.519 77.6518 312.83 78.0959C313.142 78.5367 313.303 79.0438 313.312 79.6172H311.538ZM318.83 79.3636V80.7557H314.44V79.3636H318.83ZM315.524 77.5341H317.323V84.7031C317.323 84.9451 317.36 85.1307 317.433 85.2599C317.509 85.3859 317.608 85.4721 317.731 85.5185C317.854 85.5649 317.99 85.5881 318.139 85.5881C318.251 85.5881 318.354 85.5798 318.447 85.5632C318.543 85.5466 318.616 85.5317 318.666 85.5185L318.969 86.9254C318.873 86.9586 318.735 86.995 318.556 87.0348C318.381 87.0746 318.165 87.0978 317.91 87.1044C317.459 87.1177 317.053 87.0497 316.692 86.9006C316.331 86.7481 316.044 86.5128 315.832 86.1946C315.623 85.8764 315.52 85.4787 315.524 85.0014V77.5341ZM322.532 87.1541C322.048 87.1541 321.613 87.0679 321.225 86.8956C320.84 86.7199 320.535 86.4614 320.31 86.12C320.088 85.7786 319.977 85.3577 319.977 84.8572C319.977 84.4264 320.056 84.0701 320.216 83.7884C320.375 83.5066 320.592 83.2812 320.867 83.1122C321.142 82.9432 321.452 82.8156 321.797 82.7294C322.145 82.6399 322.504 82.5753 322.875 82.5355C323.323 82.4891 323.686 82.4477 323.964 82.4112C324.243 82.3714 324.445 82.3118 324.571 82.2322C324.7 82.1494 324.765 82.0218 324.765 81.8494V81.8196C324.765 81.4451 324.654 81.1551 324.431 80.9496C324.209 80.7441 323.89 80.6413 323.472 80.6413C323.031 80.6413 322.681 80.7375 322.423 80.9297C322.168 81.1219 321.995 81.349 321.906 81.6108L320.225 81.3722C320.358 80.9081 320.577 80.5204 320.882 80.2088C321.187 79.8939 321.56 79.6586 322 79.5028C322.441 79.3438 322.928 79.2642 323.462 79.2642C323.83 79.2642 324.196 79.3073 324.561 79.3935C324.925 79.4796 325.258 79.6222 325.56 79.821C325.862 80.0166 326.104 80.2834 326.286 80.6214C326.471 80.9595 326.564 81.3821 326.564 81.8892V87H324.834V85.951H324.775C324.665 86.1631 324.511 86.362 324.312 86.5476C324.117 86.7299 323.87 86.8774 323.571 86.9901C323.276 87.0994 322.93 87.1541 322.532 87.1541ZM323 85.8317C323.361 85.8317 323.674 85.7604 323.939 85.6179C324.204 85.4721 324.408 85.2798 324.551 85.0412C324.697 84.8026 324.77 84.5424 324.77 84.2607V83.3608C324.713 83.4072 324.617 83.4503 324.481 83.4901C324.349 83.5298 324.199 83.5646 324.034 83.5945C323.868 83.6243 323.704 83.6508 323.542 83.674C323.379 83.6972 323.238 83.7171 323.119 83.7337C322.85 83.7701 322.61 83.8298 322.398 83.9126C322.186 83.9955 322.019 84.1115 321.896 84.2607C321.773 84.4065 321.712 84.5954 321.712 84.8274C321.712 85.1589 321.833 85.4091 322.075 85.5781C322.317 85.7472 322.625 85.8317 323 85.8317ZM328.374 87V79.3636H330.119V80.6364H330.199C330.338 80.1955 330.576 79.8558 330.914 79.6172C331.256 79.3752 331.645 79.2543 332.083 79.2543C332.182 79.2543 332.293 79.2592 332.416 79.2692C332.542 79.2758 332.646 79.2874 332.729 79.304V80.9595C332.653 80.933 332.532 80.9098 332.366 80.8899C332.204 80.8667 332.046 80.8551 331.894 80.8551C331.566 80.8551 331.271 80.9264 331.009 81.0689C330.75 81.2081 330.547 81.402 330.397 81.6506C330.248 81.8991 330.174 82.1858 330.174 82.5107V87H328.374ZM338.148 79.3636V80.7557H333.758V79.3636H338.148ZM334.842 77.5341H336.642V84.7031C336.642 84.9451 336.678 85.1307 336.751 85.2599C336.827 85.3859 336.927 85.4721 337.049 85.5185C337.172 85.5649 337.308 85.5881 337.457 85.5881C337.57 85.5881 337.672 85.5798 337.765 85.5632C337.861 85.5466 337.934 85.5317 337.984 85.5185L338.287 86.9254C338.191 86.9586 338.054 86.995 337.875 87.0348C337.699 87.0746 337.484 87.0978 337.228 87.1044C336.778 87.1177 336.372 87.0497 336.01 86.9006C335.649 86.7481 335.362 86.5128 335.15 86.1946C334.941 85.8764 334.839 85.4787 334.842 85.0014V77.5341ZM344.244 89.8636C343.999 89.8636 343.772 89.8438 343.563 89.804C343.358 89.7675 343.194 89.7244 343.071 89.6747L343.489 88.2727C343.751 88.349 343.984 88.3854 344.19 88.3821C344.395 88.3788 344.576 88.3142 344.732 88.1882C344.891 88.0656 345.025 87.8601 345.134 87.5717L345.289 87.1591L342.519 79.3636H344.428L346.188 85.1307H346.268L348.033 79.3636H349.947L346.889 87.9247C346.747 88.3291 346.558 88.6754 346.323 88.9638C346.087 89.2554 345.799 89.4775 345.458 89.63C345.119 89.7857 344.715 89.8636 344.244 89.8636ZM354.263 87.1491C353.518 87.1491 352.871 86.9851 352.325 86.657C351.778 86.3288 351.353 85.8698 351.052 85.2798C350.754 84.6899 350.604 84.0005 350.604 83.2116C350.604 82.4228 350.754 81.7318 351.052 81.1385C351.353 80.5452 351.778 80.0845 352.325 79.7564C352.871 79.4283 353.518 79.2642 354.263 79.2642C355.009 79.2642 355.656 79.4283 356.202 79.7564C356.749 80.0845 357.172 80.5452 357.47 81.1385C357.772 81.7318 357.923 82.4228 357.923 83.2116C357.923 84.0005 357.772 84.6899 357.47 85.2798C357.172 85.8698 356.749 86.3288 356.202 86.657C355.656 86.9851 355.009 87.1491 354.263 87.1491ZM354.273 85.7074C354.678 85.7074 355.016 85.5964 355.288 85.3743C355.559 85.1489 355.762 84.8473 355.894 84.4695C356.03 84.0916 356.098 83.6707 356.098 83.2067C356.098 82.7393 356.03 82.3168 355.894 81.9389C355.762 81.5578 355.559 81.2545 355.288 81.0291C355.016 80.8037 354.678 80.6911 354.273 80.6911C353.859 80.6911 353.514 80.8037 353.239 81.0291C352.968 81.2545 352.764 81.5578 352.628 81.9389C352.495 82.3168 352.429 82.7393 352.429 83.2067C352.429 83.6707 352.495 84.0916 352.628 84.4695C352.764 84.8473 352.968 85.1489 353.239 85.3743C353.514 85.5964 353.859 85.7074 354.273 85.7074ZM364.317 83.7884V79.3636H366.117V87H364.372V85.6428H364.292C364.12 86.0703 363.837 86.42 363.442 86.6918C363.051 86.9635 362.569 87.0994 361.996 87.0994C361.495 87.0994 361.053 86.9884 360.668 86.7663C360.287 86.541 359.989 86.2145 359.773 85.7869C359.558 85.3561 359.45 84.8357 359.45 84.2259V79.3636H361.25V83.9474C361.25 84.4313 361.382 84.8158 361.648 85.1009C361.913 85.3859 362.261 85.5284 362.692 85.5284C362.957 85.5284 363.214 85.4638 363.462 85.3345C363.711 85.2053 363.915 85.013 364.074 84.7578C364.236 84.4993 364.317 84.1761 364.317 83.7884ZM367.968 87V79.3636H369.713V80.6364H369.792C369.931 80.1955 370.17 79.8558 370.508 79.6172C370.85 79.3752 371.239 79.2543 371.676 79.2543C371.776 79.2543 371.887 79.2592 372.01 79.2692C372.136 79.2758 372.24 79.2874 372.323 79.304V80.9595C372.247 80.933 372.126 80.9098 371.96 80.8899C371.797 80.8667 371.64 80.8551 371.488 80.8551C371.159 80.8551 370.864 80.9264 370.603 81.0689C370.344 81.2081 370.14 81.402 369.991 81.6506C369.842 81.8991 369.767 82.1858 369.767 82.5107V87H367.968ZM378.791 82.5256V87H376.991V79.3636H378.711V80.6612H378.801C378.976 80.2337 379.257 79.8939 379.641 79.642C380.029 79.3902 380.508 79.2642 381.078 79.2642C381.605 79.2642 382.064 79.3769 382.455 79.6023C382.849 79.8277 383.154 80.1541 383.37 80.5817C383.588 81.0092 383.696 81.5279 383.693 82.1378V87H381.893V82.4162C381.893 81.9058 381.761 81.5064 381.495 81.218C381.234 80.9297 380.871 80.7855 380.407 80.7855C380.092 80.7855 379.812 80.8551 379.566 80.9943C379.324 81.1302 379.134 81.3274 378.995 81.5859C378.859 81.8445 378.791 82.1577 378.791 82.5256ZM388.853 87.1491C388.108 87.1491 387.461 86.9851 386.914 86.657C386.368 86.3288 385.943 85.8698 385.642 85.2798C385.343 84.6899 385.194 84.0005 385.194 83.2116C385.194 82.4228 385.343 81.7318 385.642 81.1385C385.943 80.5452 386.368 80.0845 386.914 79.7564C387.461 79.4283 388.108 79.2642 388.853 79.2642C389.599 79.2642 390.245 79.4283 390.792 79.7564C391.339 80.0845 391.762 80.5452 392.06 81.1385C392.362 81.7318 392.512 82.4228 392.512 83.2116C392.512 84.0005 392.362 84.6899 392.06 85.2798C391.762 85.8698 391.339 86.3288 390.792 86.657C390.245 86.9851 389.599 87.1491 388.853 87.1491ZM388.863 85.7074C389.268 85.7074 389.606 85.5964 389.877 85.3743C390.149 85.1489 390.351 84.8473 390.484 84.4695C390.62 84.0916 390.688 83.6707 390.688 83.2067C390.688 82.7393 390.62 82.3168 390.484 81.9389C390.351 81.5578 390.149 81.2545 389.877 81.0291C389.606 80.8037 389.268 80.6911 388.863 80.6911C388.449 80.6911 388.104 80.8037 387.829 81.0291C387.557 81.2545 387.354 81.5578 387.218 81.9389C387.085 82.3168 387.019 82.7393 387.019 83.2067C387.019 83.6707 387.085 84.0916 387.218 84.4695C387.354 84.8473 387.557 85.1489 387.829 85.3743C388.104 85.5964 388.449 85.7074 388.863 85.7074ZM397.853 79.3636V80.7557H393.463V79.3636H397.853ZM394.547 77.5341H396.347V84.7031C396.347 84.9451 396.383 85.1307 396.456 85.2599C396.532 85.3859 396.632 85.4721 396.754 85.5185C396.877 85.5649 397.013 85.5881 397.162 85.5881C397.275 85.5881 397.378 85.5798 397.47 85.5632C397.566 85.5466 397.639 85.5317 397.689 85.5185L397.992 86.9254C397.896 86.9586 397.759 86.995 397.58 87.0348C397.404 87.0746 397.189 87.0978 396.933 87.1044C396.483 87.1177 396.077 87.0497 395.715 86.9006C395.354 86.7481 395.067 86.5128 394.855 86.1946C394.646 85.8764 394.544 85.4787 394.547 85.0014V77.5341ZM402.657 87.1491C401.891 87.1491 401.23 86.9901 400.673 86.6719C400.12 86.3504 399.694 85.8963 399.396 85.3097C399.097 84.7197 398.948 84.0253 398.948 83.2266C398.948 82.4411 399.097 81.7517 399.396 81.1584C399.697 80.5618 400.118 80.0978 400.658 79.7663C401.199 79.4316 401.833 79.2642 402.562 79.2642C403.033 79.2642 403.477 79.3404 403.895 79.4929C404.316 79.642 404.687 79.8741 405.009 80.1889C405.333 80.5038 405.589 80.9048 405.774 81.392C405.96 81.8759 406.053 82.4527 406.053 83.1222V83.674H399.793V82.4609H404.327C404.324 82.1162 404.25 81.8097 404.104 81.5412C403.958 81.2694 403.754 81.0556 403.492 80.8999C403.234 80.7441 402.932 80.6662 402.587 80.6662C402.219 80.6662 401.896 80.7557 401.618 80.9347C401.339 81.1103 401.122 81.3423 400.967 81.6307C400.814 81.9157 400.736 82.2289 400.733 82.5703V83.6293C400.733 84.0734 400.814 84.4545 400.977 84.7727C401.139 85.0876 401.366 85.3295 401.658 85.4986C401.949 85.6643 402.291 85.7472 402.682 85.7472C402.944 85.7472 403.181 85.7107 403.393 85.6378C403.605 85.5616 403.789 85.4505 403.945 85.3047C404.1 85.1589 404.218 84.9782 404.298 84.7628L405.978 84.9517C405.872 85.3958 405.67 85.7836 405.371 86.1151C405.076 86.4432 404.699 86.6984 404.238 86.8807C403.777 87.0597 403.25 87.1491 402.657 87.1491ZM408.684 87.1094C408.382 87.1094 408.124 87.0033 407.908 86.7912C407.693 86.5791 407.587 86.3205 407.59 86.0156C407.587 85.7173 407.693 85.4621 407.908 85.25C408.124 85.0379 408.382 84.9318 408.684 84.9318C408.975 84.9318 409.229 85.0379 409.444 85.25C409.663 85.4621 409.774 85.7173 409.778 86.0156C409.774 86.2178 409.721 86.4018 409.618 86.5675C409.519 86.7332 409.386 86.8658 409.221 86.9652C409.058 87.0613 408.879 87.1094 408.684 87.1094ZM412.744 87.1094C412.443 87.1094 412.184 87.0033 411.969 86.7912C411.753 86.5791 411.647 86.3205 411.651 86.0156C411.647 85.7173 411.753 85.4621 411.969 85.25C412.184 85.0379 412.443 84.9318 412.744 84.9318C413.036 84.9318 413.29 85.0379 413.505 85.25C413.724 85.4621 413.835 85.7173 413.838 86.0156C413.835 86.2178 413.782 86.4018 413.679 86.5675C413.58 86.7332 413.447 86.8658 413.281 86.9652C413.119 87.0613 412.94 87.1094 412.744 87.1094ZM416.805 87.1094C416.503 87.1094 416.245 87.0033 416.029 86.7912C415.814 86.5791 415.708 86.3205 415.711 86.0156C415.708 85.7173 415.814 85.4621 416.029 85.25C416.245 85.0379 416.503 84.9318 416.805 84.9318C417.097 84.9318 417.35 85.0379 417.566 85.25C417.784 85.4621 417.895 85.7173 417.899 86.0156C417.895 86.2178 417.842 86.4018 417.74 86.5675C417.64 86.7332 417.508 86.8658 417.342 86.9652C417.179 87.0613 417 87.1094 416.805 87.1094ZM420.865 87.1094C420.564 87.1094 420.305 87.0033 420.09 86.7912C419.874 86.5791 419.768 86.3205 419.772 86.0156C419.768 85.7173 419.874 85.4621 420.09 85.25C420.305 85.0379 420.564 84.9318 420.865 84.9318C421.157 84.9318 421.411 85.0379 421.626 85.25C421.845 85.4621 421.956 85.7173 421.959 86.0156C421.956 86.2178 421.903 86.4018 421.8 86.5675C421.701 86.7332 421.568 86.8658 421.402 86.9652C421.24 87.0613 421.061 87.1094 420.865 87.1094Z" fill="#94A3B8"/>
<rect x="-276" y="-428" width="520" height="580" rx="32" fill="#F0F7FF"/>
<rect x="-257" y="-408" width="483" height="540" rx="24" fill="white"/>
<rect x="-256.5" y="-407.5" width="482" height="539" rx="23.5" stroke="white" stroke-opacity="0.03"/>
<rect x="136" y="89" width="48" height="25" rx="4" fill="black"/>
<path d="M153.831 99.7173H152.237C152.192 99.456 152.108 99.2244 151.986 99.0227C151.864 98.8182 151.712 98.6449 151.53 98.5028C151.348 98.3608 151.141 98.2543 150.908 98.1832C150.678 98.1094 150.429 98.0724 150.162 98.0724C149.688 98.0724 149.267 98.1918 148.901 98.4304C148.534 98.6662 148.247 99.0128 148.04 99.4702C147.832 99.9247 147.729 100.48 147.729 101.136C147.729 101.804 147.832 102.366 148.04 102.824C148.25 103.278 148.537 103.622 148.901 103.855C149.267 104.085 149.686 104.2 150.158 104.2C150.419 104.2 150.663 104.166 150.891 104.098C151.121 104.027 151.327 103.923 151.509 103.787C151.693 103.651 151.848 103.483 151.973 103.284C152.101 103.085 152.189 102.858 152.237 102.602L153.831 102.611C153.771 103.026 153.642 103.415 153.443 103.778C153.247 104.142 152.99 104.463 152.672 104.741C152.354 105.017 151.982 105.233 151.555 105.389C151.129 105.543 150.656 105.619 150.136 105.619C149.369 105.619 148.685 105.442 148.082 105.087C147.48 104.732 147.006 104.219 146.659 103.548C146.313 102.878 146.139 102.074 146.139 101.136C146.139 100.196 146.314 99.392 146.663 98.7244C147.013 98.054 147.489 97.5412 148.091 97.1861C148.693 96.831 149.375 96.6534 150.136 96.6534C150.622 96.6534 151.074 96.7216 151.491 96.858C151.909 96.9943 152.281 97.1946 152.608 97.4588C152.935 97.7202 153.203 98.0412 153.413 98.4219C153.626 98.7997 153.766 99.2315 153.831 99.7173ZM157.982 105.628C157.342 105.628 156.789 105.487 156.32 105.206C155.851 104.925 155.487 104.531 155.229 104.026C154.973 103.52 154.845 102.929 154.845 102.253C154.845 101.577 154.973 100.984 155.229 100.476C155.487 99.9673 155.851 99.5724 156.32 99.2912C156.789 99.0099 157.342 98.8693 157.982 98.8693C158.621 98.8693 159.175 99.0099 159.644 99.2912C160.112 99.5724 160.475 99.9673 160.73 100.476C160.989 100.984 161.118 101.577 161.118 102.253C161.118 102.929 160.989 103.52 160.73 104.026C160.475 104.531 160.112 104.925 159.644 105.206C159.175 105.487 158.621 105.628 157.982 105.628ZM157.99 104.392C158.337 104.392 158.627 104.297 158.86 104.107C159.092 103.913 159.266 103.655 159.379 103.331C159.496 103.007 159.554 102.646 159.554 102.249C159.554 101.848 159.496 101.486 159.379 101.162C159.266 100.835 159.092 100.575 158.86 100.382C158.627 100.189 158.337 100.092 157.99 100.092C157.635 100.092 157.34 100.189 157.104 100.382C156.871 100.575 156.696 100.835 156.58 101.162C156.466 101.486 156.409 101.848 156.409 102.249C156.409 102.646 156.466 103.007 156.58 103.331C156.696 103.655 156.871 103.913 157.104 104.107C157.34 104.297 157.635 104.392 157.99 104.392ZM162.343 107.955V98.9545H163.86V100.037H163.95C164.029 99.8778 164.142 99.7088 164.287 99.5298C164.431 99.348 164.627 99.1932 164.875 99.0653C165.122 98.9347 165.437 98.8693 165.821 98.8693C166.326 98.8693 166.782 98.9986 167.189 99.2571C167.598 99.5128 167.921 99.892 168.16 100.395C168.402 100.895 168.522 101.509 168.522 102.236C168.522 102.955 168.404 103.565 168.169 104.068C167.933 104.571 167.612 104.955 167.206 105.219C166.799 105.483 166.339 105.615 165.825 105.615C165.45 105.615 165.139 105.553 164.892 105.428C164.645 105.303 164.446 105.152 164.295 104.976C164.147 104.797 164.032 104.628 163.95 104.469H163.886V107.955H162.343ZM163.856 102.227C163.856 102.651 163.916 103.021 164.035 103.339C164.157 103.658 164.332 103.906 164.559 104.085C164.789 104.261 165.068 104.349 165.395 104.349C165.735 104.349 166.021 104.259 166.251 104.077C166.481 103.892 166.654 103.641 166.771 103.322C166.89 103.001 166.95 102.636 166.95 102.227C166.95 101.821 166.892 101.46 166.775 101.145C166.659 100.83 166.485 100.582 166.255 100.403C166.025 100.224 165.738 100.135 165.395 100.135C165.065 100.135 164.785 100.222 164.555 100.395C164.325 100.568 164.15 100.811 164.031 101.124C163.914 101.436 163.856 101.804 163.856 102.227ZM170.496 107.955C170.285 107.955 170.091 107.938 169.912 107.903C169.736 107.872 169.595 107.835 169.49 107.793L169.848 106.591C170.072 106.656 170.273 106.688 170.449 106.685C170.625 106.682 170.78 106.626 170.913 106.518C171.049 106.413 171.165 106.237 171.258 105.99L171.39 105.636L169.017 98.9545H170.653L172.162 103.898H172.23L173.743 98.9545H175.383L172.763 106.293C172.64 106.639 172.478 106.936 172.277 107.183C172.075 107.433 171.828 107.624 171.535 107.754C171.246 107.888 170.899 107.955 170.496 107.955Z" fill="white" fill-opacity="0.8"/>
<path d="M191.125 81.875C191.125 79.6359 191.125 78.5163 191.821 77.8206C192.516 77.125 193.636 77.125 195.875 77.125H196.667C198.906 77.125 200.025 77.125 200.721 77.8206C201.417 78.5163 201.417 79.6359 201.417 81.875V82.6667C201.417 84.9058 201.417 86.0254 200.721 86.721C200.025 87.4167 198.906 87.4167 196.667 87.4167H195.875C193.636 87.4167 192.516 87.4167 191.821 86.721C191.125 86.0254 191.125 84.9058 191.125 82.6667V81.875Z" stroke="#94A3B8" stroke-linecap="round" stroke-linejoin="round"/>
<path d="M197.458 77.125C197.457 74.784 197.421 73.5714 196.74 72.7411C196.608 72.5808 196.461 72.4337 196.301 72.3021C195.425 71.5833 194.124 71.5833 191.521 71.5833C188.918 71.5833 187.617 71.5833 186.741 72.3021C186.581 72.4337 186.434 72.5808 186.302 72.7411C185.583 73.617 185.583 74.9183 185.583 77.5208C185.583 80.1234 185.583 81.4247 186.302 82.3006C186.434 82.4609 186.581 82.6079 186.741 82.7395C187.572 83.421 188.784 83.4564 191.125 83.4583" stroke="#94A3B8" stroke-linecap="round" stroke-linejoin="round"/>
<path d="M5.92688 75.9C5.92688 75.7344 5.99701 75.575 6.12294 75.4569C6.24898 75.3387 6.42054 75.2719 6.6 75.2719H14.28C14.4595 75.2719 14.631 75.3387 14.7571 75.4569C14.883 75.575 14.9531 75.7344 14.9531 75.9C14.9531 76.0656 14.883 76.225 14.7571 76.3431C14.631 76.4613 14.4595 76.5281 14.28 76.5281H6.6C6.42054 76.5281 6.24898 76.4613 6.12294 76.3431C5.99701 76.225 5.92688 76.0656 5.92688 75.9ZM6.6 78.8719H14.28C14.4595 78.8719 14.631 78.9387 14.7571 79.0569C14.883 79.175 14.9531 79.3344 14.9531 79.5C14.9531 79.6656 14.883 79.825 14.7571 79.9431C14.631 80.0613 14.4595 80.1281 14.28 80.1281H6.6C6.42054 80.1281 6.24898 80.0613 6.12294 79.9431C5.99701 79.825 5.92688 79.6656 5.92688 79.5C5.92688 79.3344 5.99701 79.175 6.12294 79.0569C6.24898 78.9387 6.42054 78.8719 6.6 78.8719ZM6.6 82.4719H14.28C14.4595 82.4719 14.631 82.5387 14.7571 82.6569C14.883 82.775 14.9531 82.9344 14.9531 83.1C14.9531 83.2656 14.883 83.425 14.7571 83.5431C14.631 83.6613 14.4595 83.7281 14.28 83.7281H6.6C6.42054 83.7281 6.24898 83.6613 6.12294 83.5431C5.99701 83.425 5.92688 83.2656 5.92688 83.1C5.92688 82.9344 5.99701 82.775 6.12294 82.6569C6.24898 82.5387 6.42054 82.4719 6.6 82.4719ZM3.45154 78.7914C3.6018 78.6973 3.77875 78.6469 3.96 78.6469C4.20312 78.6469 4.43572 78.7374 4.60676 78.8978C4.77771 79.0581 4.87313 79.2747 4.87313 79.5C4.87313 79.668 4.81999 79.8326 4.72004 79.9728C4.62006 80.1131 4.47762 80.2229 4.31041 80.2878C4.14318 80.3527 3.95901 80.3698 3.78131 80.3366C3.60361 80.3035 3.44077 80.2218 3.31324 80.1022C3.18574 79.9827 3.09929 79.8308 3.0643 79.6659C3.02932 79.501 3.04724 79.33 3.11595 79.1745C3.18468 79.019 3.3013 78.8855 3.45154 78.7914ZM3.45154 75.1914C3.6018 75.0973 3.77875 75.0469 3.96 75.0469C4.20312 75.0469 4.43572 75.1374 4.60676 75.2978C4.77771 75.4581 4.87313 75.6747 4.87313 75.9C4.87313 76.068 4.81999 76.2326 4.72004 76.3728C4.62006 76.5131 4.47762 76.6229 4.31041 76.6878C4.14318 76.7527 3.95901 76.7698 3.78131 76.7366C3.60361 76.7035 3.44077 76.6218 3.31324 76.5022C3.18574 76.3827 3.09929 76.2308 3.0643 76.0659C3.02932 75.901 3.04724 75.73 3.11595 75.5745C3.18468 75.419 3.3013 75.2855 3.45154 75.1914ZM3.45154 82.3914C3.6018 82.2973 3.77875 82.2469 3.96 82.2469C4.20312 82.2469 4.43572 82.3374 4.60676 82.4978C4.77771 82.6581 4.87313 82.8747 4.87313 83.1C4.87313 83.268 4.81999 83.4326 4.72004 83.5728C4.62006 83.7131 4.47762 83.8229 4.31041 83.8878C4.14318 83.9527 3.95901 83.9698 3.78131 83.9366C3.60361 83.9035 3.44077 83.8218 3.31324 83.7022C3.18574 83.5827 3.09929 83.4308 3.0643 83.2659C3.02932 83.101 3.04724 82.93 3.11595 82.7745C3.18468 82.619 3.3013 82.4855 3.45154 82.3914Z" fill="#94A3B8" stroke="#94A3B8" stroke-width="0.09375"/>
<path d="M50 73.5H39.8523L41.9367 75.6714H43.692L43.0886 76.9857L44.6793 78.5857L45.8861 75.6714H50V73.5Z" fill="#94A3B8"/>
<path d="M42.3755 84.0143H40.2363L41.9916 79.8429L37 74.4714L37.8776 73.5571L48.4641 84.5857L47.5865 85.5L43.5274 81.3286L42.3755 84.0143Z" fill="#94A3B8"/>
<path d="M73.9128 79.5363L77.9069 82.7911C77.9069 82.7911 77.9069 82.7911 77.9069 82.7911C78.0513 82.9089 78.1378 83.0736 78.149 83.2486C78.1602 83.4234 78.0954 83.596 77.9673 83.7282C77.8392 83.8606 77.6581 83.9415 77.4637 83.952C77.2693 83.9625 77.0789 83.9016 76.9344 83.7837L72.2916 79.9963L72.2915 79.9962C72.2142 79.9336 72.1527 79.857 72.1106 79.7715C72.0685 79.686 72.0469 79.5935 72.0469 79.5C72.0469 79.4065 72.0685 79.314 72.1106 79.2285C72.1527 79.143 72.2142 79.0664 72.2915 79.0038L72.2916 79.0037L76.9344 75.2163C77.0789 75.0984 77.2693 75.0375 77.4637 75.048C77.6581 75.0585 77.8392 75.1394 77.9673 75.2718C78.0954 75.404 78.1602 75.5766 78.149 75.7514C78.1378 75.9264 78.0513 76.0911 77.9069 76.2089C77.9069 76.2089 77.9069 76.2089 77.9069 76.2089L73.9128 79.4637L73.8682 79.5L73.9128 79.5363ZM87.7084 79.0037L87.7085 79.0038C87.7858 79.0664 87.8473 79.143 87.8894 79.2285C87.9315 79.314 87.9531 79.4065 87.9531 79.5C87.9531 79.5935 87.9315 79.686 87.8894 79.7715C87.8473 79.857 87.7858 79.9336 87.7085 79.9962L87.7084 79.9963L83.0656 83.7837C82.9941 83.842 82.9105 83.887 82.8196 83.916C82.7287 83.9449 82.6324 83.9572 82.5363 83.952C82.4401 83.9468 82.3461 83.9242 82.2596 83.8858C82.1732 83.8473 82.0961 83.7937 82.0327 83.7282C81.9692 83.6627 81.9207 83.5866 81.8896 83.5044C81.8585 83.4222 81.8454 83.3352 81.851 83.2486C81.8565 83.1619 81.8806 83.0769 81.9221 82.9984C81.9636 82.9199 82.0216 82.8495 82.0931 82.7911L86.0853 79.5363L86.1298 79.5L86.0853 79.4637L82.0931 76.2089C82.0216 76.1505 81.9636 76.0801 81.9221 76.0016C81.8806 75.9231 81.8565 75.8381 81.851 75.7514C81.8454 75.6648 81.8585 75.5778 81.8896 75.4956C81.9207 75.4134 81.9692 75.3373 82.0327 75.2718C82.0961 75.2063 82.1732 75.1527 82.2596 75.1142C82.3461 75.0758 82.4401 75.0532 82.5363 75.048C82.6324 75.0428 82.7287 75.0551 82.8196 75.084C82.9105 75.113 82.9941 75.158 83.0656 75.2163L87.7084 79.0037Z" fill="#94A3B8" stroke="#94A3B8" stroke-width="0.09375"/>
</g>
</svg>
