<svg width="502" height="217" viewBox="0 0 502 217" fill="none" xmlns="http://www.w3.org/2000/svg">
<mask id="mask0_590_2358" style="mask-type:alpha" maskUnits="userSpaceOnUse" x="0" y="0" width="502" height="217">
<rect width="502" height="217" rx="40" fill="#D9D9D9"/>
</mask>
<g mask="url(#mask0_590_2358)">
<g clip-path="url(#clip0_590_2358)">
<path d="M0 46.9655C0 29.2924 14.3269 14.9655 32 14.9655L470 14.9655C487.673 14.9655 502 29.2924 502 46.9655V248.178L0 248.178L0 46.9655Z" fill="#1C1C1D"/>
<rect x="32" y="28.9655" width="461" height="48" rx="24" fill="#242424"/>
<rect x="32" y="127.966" width="246" height="445" rx="24" fill="#242424"/>
<rect x="32.5" y="128.466" width="245" height="444" rx="23.5" stroke="white" stroke-opacity="0.03"/>
<rect x="260" y="127.966" width="233" height="408" rx="24" fill="#242424"/>
<rect x="260.5" y="128.466" width="232" height="407" rx="23.5" stroke="white" stroke-opacity="0.03"/>
<path d="M101.694 99.1928V106.466H100.522L97.0952 101.512H97.0348V106.466H95.7173V99.1928H96.8963L100.32 104.15H100.384L100.384 99.1928H101.694ZM105.382 106.572C104.849 106.572 104.388 106.455 103.997 106.22C103.606 105.986 103.303 105.658 103.088 105.237C102.875 104.815 102.768 104.323 102.768 103.76C102.768 103.196 102.875 102.702 103.088 102.279C103.303 101.855 103.606 101.526 103.997 101.292C104.388 101.057 104.849 100.94 105.382 100.94C105.915 100.94 106.376 101.057 106.767 101.292C107.157 101.526 107.459 101.855 107.672 102.279C107.888 102.702 107.996 103.196 107.996 103.76C107.996 104.323 107.888 104.815 107.672 105.237C107.459 105.658 107.157 105.986 106.767 106.22C106.376 106.455 105.915 106.572 105.382 106.572ZM105.389 105.542C105.678 105.542 105.919 105.463 106.113 105.304C106.308 105.143 106.452 104.928 106.547 104.658C106.644 104.388 106.692 104.087 106.692 103.756C106.692 103.422 106.644 103.12 106.547 102.85C106.452 102.578 106.308 102.362 106.113 102.201C105.919 102.04 105.678 101.959 105.389 101.959C105.093 101.959 104.847 102.04 104.65 102.201C104.456 102.362 104.311 102.578 104.214 102.85C104.119 103.12 104.072 103.422 104.072 103.756C104.072 104.087 104.119 104.388 104.214 104.658C104.311 104.928 104.456 105.143 104.65 105.304C104.847 105.463 105.093 105.542 105.389 105.542ZM111.74 101.011V102.005H108.605V101.011L111.74 101.011ZM109.379 99.7042H110.664V104.825C110.664 104.998 110.69 105.13 110.742 105.223C110.797 105.313 110.868 105.374 110.956 105.407C111.043 105.44 111.14 105.457 111.247 105.457C111.327 105.457 111.401 105.451 111.467 105.439C111.536 105.427 111.588 105.417 111.623 105.407L111.84 106.412C111.771 106.436 111.673 106.462 111.545 106.49C111.42 106.519 111.266 106.535 111.083 106.54C110.761 106.55 110.471 106.501 110.213 106.394C109.955 106.286 109.751 106.118 109.599 105.89C109.45 105.663 109.376 105.379 109.379 105.038V99.7042ZM115.102 106.572C114.555 106.572 114.082 106.458 113.685 106.231C113.289 106.001 112.985 105.677 112.772 105.258C112.559 104.837 112.452 104.341 112.452 103.77C112.452 103.209 112.559 102.717 112.772 102.293C112.988 101.867 113.288 101.535 113.674 101.299C114.06 101.06 114.513 100.94 115.034 100.94C115.37 100.94 115.688 100.994 115.986 101.103C116.287 101.21 116.552 101.376 116.781 101.6C117.013 101.825 117.196 102.112 117.328 102.46C117.461 102.805 117.527 103.217 117.527 103.696V104.09H113.056V103.223H116.295C116.292 102.977 116.239 102.758 116.135 102.566C116.031 102.372 115.885 102.22 115.698 102.108C115.514 101.997 115.298 101.941 115.052 101.941C114.789 101.941 114.558 102.005 114.359 102.133C114.161 102.259 114.005 102.424 113.894 102.63C113.785 102.834 113.73 103.058 113.727 103.301V104.058C113.727 104.375 113.785 104.647 113.901 104.875C114.017 105.1 114.18 105.272 114.388 105.393C114.596 105.511 114.84 105.571 115.119 105.571C115.306 105.571 115.476 105.545 115.627 105.493C115.779 105.438 115.91 105.359 116.021 105.255C116.133 105.15 116.217 105.021 116.273 104.868L117.474 105.002C117.398 105.32 117.254 105.597 117.041 105.833C116.83 106.068 116.56 106.25 116.231 106.38C115.902 106.508 115.525 106.572 115.102 106.572ZM122.575 106.466V107.492H117.877V106.466H122.575ZM125.012 99.1928V106.466H123.695V100.475H123.652L121.951 101.561V100.354L123.759 99.1928H125.012Z" fill="#B0B3B8"/>
<path d="M151.694 99.1928V106.466H150.522L147.095 101.512H147.035V106.466H145.717V99.1928H146.896L150.32 104.15H150.384V99.1928H151.694ZM155.382 106.572C154.849 106.572 154.388 106.455 153.997 106.22C153.606 105.986 153.303 105.658 153.088 105.237C152.875 104.815 152.768 104.323 152.768 103.76C152.768 103.196 152.875 102.702 153.088 102.279C153.303 101.855 153.606 101.526 153.997 101.292C154.388 101.057 154.849 100.94 155.382 100.94C155.915 100.94 156.376 101.057 156.767 101.292C157.157 101.526 157.459 101.855 157.672 102.279C157.888 102.702 157.996 103.196 157.996 103.76C157.996 104.323 157.888 104.815 157.672 105.237C157.459 105.658 157.157 105.986 156.767 106.22C156.376 106.455 155.915 106.572 155.382 106.572ZM155.389 105.542C155.678 105.542 155.919 105.463 156.113 105.304C156.308 105.143 156.452 104.928 156.547 104.658C156.644 104.388 156.692 104.087 156.692 103.756C156.692 103.422 156.644 103.12 156.547 102.85C156.452 102.578 156.308 102.362 156.113 102.201C155.919 102.04 155.678 101.959 155.389 101.959C155.093 101.959 154.847 102.04 154.65 102.201C154.456 102.362 154.311 102.578 154.214 102.85C154.119 103.12 154.072 103.422 154.072 103.756C154.072 104.087 154.119 104.388 154.214 104.658C154.311 104.928 154.456 105.143 154.65 105.304C154.847 105.463 155.093 105.542 155.389 105.542ZM161.74 101.011V102.005H158.605V101.011L161.74 101.011ZM159.379 99.7042H160.664V104.825C160.664 104.998 160.69 105.13 160.742 105.223C160.797 105.313 160.868 105.374 160.956 105.407C161.043 105.44 161.14 105.457 161.247 105.457C161.327 105.457 161.401 105.451 161.467 105.439C161.536 105.427 161.588 105.417 161.623 105.407L161.84 106.412C161.771 106.436 161.673 106.462 161.545 106.49C161.42 106.519 161.266 106.535 161.083 106.54C160.761 106.55 160.471 106.501 160.213 106.394C159.955 106.286 159.751 106.118 159.599 105.89C159.45 105.663 159.376 105.379 159.379 105.038V99.7042ZM165.102 106.572C164.555 106.572 164.082 106.458 163.685 106.231C163.289 106.001 162.985 105.677 162.772 105.258C162.559 104.837 162.452 104.341 162.452 103.77C162.452 103.209 162.559 102.717 162.772 102.293C162.988 101.867 163.288 101.535 163.674 101.299C164.06 101.06 164.513 100.94 165.034 100.94C165.37 100.94 165.688 100.994 165.986 101.103C166.287 101.21 166.552 101.376 166.781 101.6C167.013 101.825 167.196 102.112 167.328 102.46C167.461 102.805 167.527 103.217 167.527 103.696V104.09H163.056V103.223H166.295C166.292 102.977 166.239 102.758 166.135 102.566C166.031 102.372 165.885 102.22 165.698 102.108C165.514 101.997 165.298 101.941 165.052 101.941C164.789 101.941 164.558 102.005 164.359 102.133C164.161 102.259 164.005 102.424 163.894 102.63C163.785 102.834 163.73 103.058 163.727 103.301V104.058C163.727 104.375 163.785 104.647 163.901 104.875C164.017 105.1 164.18 105.272 164.388 105.393C164.596 105.511 164.84 105.571 165.119 105.571C165.306 105.571 165.476 105.545 165.627 105.493C165.779 105.438 165.91 105.359 166.021 105.255C166.133 105.15 166.217 105.021 166.273 104.868L167.474 105.002C167.398 105.32 167.254 105.597 167.041 105.833C166.83 106.068 166.56 106.25 166.231 106.38C165.902 106.508 165.525 106.572 165.102 106.572ZM172.575 106.466V107.492H167.877V106.466H172.575ZM173.138 106.466V105.514L175.663 103.039C175.904 102.795 176.106 102.578 176.267 102.389C176.428 102.199 176.548 102.016 176.629 101.838C176.709 101.661 176.75 101.471 176.75 101.27C176.75 101.041 176.698 100.844 176.593 100.681C176.489 100.515 176.346 100.387 176.164 100.297C175.981 100.207 175.774 100.162 175.542 100.162C175.303 100.162 175.094 100.212 174.914 100.311C174.734 100.408 174.594 100.547 174.495 100.727C174.398 100.907 174.349 101.121 174.349 101.37H173.095C173.095 100.908 173.201 100.507 173.412 100.166C173.622 99.8249 173.912 99.5609 174.282 99.3739C174.653 99.1869 175.079 99.0934 175.56 99.0934C176.048 99.0934 176.476 99.1845 176.845 99.3668C177.215 99.5491 177.501 99.7988 177.705 100.116C177.911 100.433 178.014 100.796 178.014 101.203C178.014 101.475 177.962 101.743 177.858 102.005C177.753 102.268 177.57 102.559 177.307 102.879C177.047 103.198 176.681 103.586 176.21 104.04L174.956 105.315V105.365H178.124V106.466H173.138Z" fill="#B0B3B8"/>
<rect x="196" y="87.9655" width="83" height="29" rx="14.5" fill="url(#paint0_linear_590_2358)"/>
<path d="M218.058 97.7382V106.466H216.464L212.668 100.973H212.604L212.604 106.466H210.759V97.7382H212.378L216.145 103.227H216.222V97.7382H218.058ZM222.422 106.593C221.76 106.593 221.188 106.453 220.705 106.171C220.225 105.887 219.854 105.493 219.592 104.987C219.331 104.478 219.2 103.889 219.2 103.218C219.2 102.542 219.331 101.951 219.592 101.446C219.854 100.937 220.225 100.542 220.705 100.261C221.188 99.9769 221.76 99.8348 222.422 99.8348C223.084 99.8348 223.655 99.9769 224.135 100.261C224.618 100.542 224.99 100.937 225.252 101.446C225.513 101.951 225.644 102.542 225.644 103.218C225.644 103.889 225.513 104.478 225.252 104.987C224.99 105.493 224.618 105.887 224.135 106.171C223.655 106.453 223.084 106.593 222.422 106.593ZM222.431 105.187C222.732 105.187 222.983 105.102 223.185 104.931C223.387 104.758 223.539 104.522 223.641 104.224C223.746 103.926 223.798 103.586 223.798 103.206C223.798 102.825 223.746 102.485 223.641 102.187C223.539 101.889 223.387 101.653 223.185 101.48C222.983 101.306 222.732 101.22 222.431 101.22C222.127 101.22 221.871 101.306 221.664 101.48C221.459 101.653 221.304 101.889 221.199 102.187C221.097 102.485 221.046 102.825 221.046 103.206C221.046 103.586 221.097 103.926 221.199 104.224C221.304 104.522 221.459 104.758 221.664 104.931C221.871 105.102 222.127 105.187 222.431 105.187ZM230.222 99.9201V101.284H226.28V99.9201H230.222ZM227.175 98.3519H228.99V104.454C228.99 104.622 229.016 104.752 229.067 104.846C229.118 104.937 229.189 105.001 229.28 105.038C229.374 105.075 229.482 105.093 229.604 105.093C229.689 105.093 229.774 105.086 229.859 105.072C229.945 105.055 230.01 105.042 230.055 105.034L230.341 106.385C230.25 106.413 230.122 106.446 229.957 106.483C229.793 106.522 229.592 106.546 229.357 106.555C228.919 106.572 228.535 106.514 228.206 106.38C227.879 106.247 227.625 106.039 227.443 105.758C227.261 105.477 227.172 105.122 227.175 104.693V98.3519ZM234.233 106.593C233.559 106.593 232.98 106.457 232.494 106.184C232.011 105.909 231.639 105.519 231.378 105.017C231.116 104.511 230.986 103.913 230.986 103.223C230.986 102.549 231.116 101.958 231.378 101.45C231.639 100.941 232.007 100.545 232.481 100.261C232.959 99.9769 233.518 99.8348 234.16 99.8348C234.592 99.8348 234.994 99.9044 235.366 100.044C235.741 100.18 236.068 100.386 236.346 100.662C236.628 100.937 236.846 101.284 237.003 101.701C237.159 102.116 237.237 102.602 237.237 103.159V103.657H231.71V102.532H235.528C235.528 102.271 235.471 102.039 235.358 101.838C235.244 101.636 235.086 101.478 234.885 101.365C234.686 101.248 234.454 101.19 234.19 101.19C233.915 101.19 233.67 101.254 233.457 101.382C233.247 101.507 233.082 101.676 232.963 101.889C232.844 102.099 232.782 102.333 232.78 102.592V103.662C232.78 103.985 232.839 104.265 232.959 104.501C233.081 104.737 233.253 104.919 233.474 105.046C233.696 105.174 233.959 105.238 234.263 105.238C234.464 105.238 234.649 105.21 234.817 105.153C234.984 105.096 235.128 105.011 235.247 104.897C235.366 104.784 235.457 104.644 235.52 104.48L237.199 104.591C237.113 104.994 236.939 105.346 236.674 105.647C236.413 105.946 236.075 106.179 235.66 106.346C235.248 106.511 234.773 106.593 234.233 106.593ZM243.336 106.466V107.842H237.605V106.466H243.336ZM246.63 106.585C245.994 106.585 245.427 106.475 244.93 106.257C244.436 106.035 244.045 105.731 243.758 105.345C243.474 104.956 243.328 104.507 243.319 103.998H245.177C245.189 104.211 245.258 104.399 245.386 104.561C245.517 104.72 245.69 104.843 245.906 104.931C246.122 105.019 246.365 105.064 246.635 105.064C246.916 105.064 247.165 105.014 247.38 104.914C247.596 104.815 247.765 104.677 247.888 104.501C248.01 104.325 248.071 104.122 248.071 103.892C248.071 103.659 248.005 103.453 247.875 103.274C247.747 103.092 247.562 102.95 247.321 102.848C247.082 102.745 246.798 102.694 246.468 102.694H245.655V101.339H246.468C246.747 101.339 246.993 101.291 247.206 101.194C247.422 101.098 247.589 100.964 247.709 100.794C247.828 100.62 247.888 100.419 247.888 100.189C247.888 99.9698 247.835 99.778 247.73 99.6132C247.628 99.4456 247.483 99.3149 247.295 99.2212C247.111 99.1274 246.895 99.0806 246.647 99.0806C246.397 99.0806 246.169 99.126 245.961 99.2169C245.754 99.305 245.588 99.4314 245.463 99.5962C245.338 99.761 245.271 99.9542 245.263 100.176H243.494C243.503 99.6729 243.646 99.2297 243.924 98.8462C244.203 98.4627 244.578 98.163 245.049 97.947C245.524 97.7283 246.059 97.6189 246.656 97.6189C247.258 97.6189 247.785 97.7283 248.237 97.947C248.689 98.1658 249.04 98.4613 249.29 98.8334C249.542 99.2027 249.667 99.6175 249.665 100.078C249.667 100.566 249.515 100.974 249.209 101.301C248.905 101.627 248.508 101.835 248.02 101.923V101.991C248.662 102.073 249.15 102.296 249.486 102.66C249.824 103.021 249.991 103.473 249.988 104.015C249.991 104.512 249.848 104.954 249.558 105.341C249.271 105.727 248.875 106.031 248.369 106.252C247.863 106.474 247.284 106.585 246.63 106.585Z" fill="white"/>
<path d="M262.917 99.5488L257.083 105.382M257.083 99.5488L262.917 105.382" stroke="white" stroke-linecap="round" stroke-linejoin="round"/>
<path d="M302.694 99.1928V106.466H301.522L298.095 101.512H298.035V106.466H296.717V99.1928H297.896L301.32 104.15H301.384V99.1928H302.694ZM306.382 106.572C305.849 106.572 305.388 106.455 304.997 106.22C304.606 105.986 304.303 105.658 304.088 105.237C303.875 104.815 303.768 104.323 303.768 103.76C303.768 103.196 303.875 102.702 304.088 102.279C304.303 101.855 304.606 101.526 304.997 101.292C305.388 101.057 305.849 100.94 306.382 100.94C306.915 100.94 307.376 101.057 307.767 101.292C308.157 101.526 308.459 101.855 308.672 102.279C308.888 102.702 308.996 103.196 308.996 103.76C308.996 104.323 308.888 104.815 308.672 105.237C308.459 105.658 308.157 105.986 307.767 106.22C307.376 106.455 306.915 106.572 306.382 106.572ZM306.389 105.542C306.678 105.542 306.919 105.463 307.113 105.304C307.308 105.143 307.452 104.928 307.547 104.658C307.644 104.388 307.692 104.087 307.692 103.756C307.692 103.422 307.644 103.12 307.547 102.85C307.452 102.578 307.308 102.362 307.113 102.201C306.919 102.04 306.678 101.959 306.389 101.959C306.093 101.959 305.847 102.04 305.65 102.201C305.456 102.362 305.311 102.578 305.214 102.85C305.119 103.12 305.072 103.422 305.072 103.756C305.072 104.087 305.119 104.388 305.214 104.658C305.311 104.928 305.456 105.143 305.65 105.304C305.847 105.463 306.093 105.542 306.389 105.542ZM312.74 101.011V102.005H309.605V101.011L312.74 101.011ZM310.379 99.7042H311.664V104.825C311.664 104.998 311.69 105.13 311.742 105.223C311.797 105.313 311.868 105.374 311.956 105.407C312.043 105.44 312.14 105.457 312.247 105.457C312.327 105.457 312.401 105.451 312.467 105.439C312.536 105.427 312.588 105.417 312.623 105.407L312.84 106.412C312.771 106.436 312.673 106.462 312.545 106.49C312.42 106.519 312.266 106.535 312.083 106.54C311.761 106.55 311.471 106.501 311.213 106.394C310.955 106.286 310.751 106.118 310.599 105.89C310.45 105.663 310.376 105.379 310.379 105.038V99.7042ZM316.102 106.572C315.555 106.572 315.082 106.458 314.685 106.231C314.289 106.001 313.985 105.677 313.772 105.258C313.559 104.837 313.452 104.341 313.452 103.77C313.452 103.209 313.559 102.717 313.772 102.293C313.988 101.867 314.288 101.535 314.674 101.299C315.06 101.06 315.513 100.94 316.034 100.94C316.37 100.94 316.688 100.994 316.986 101.103C317.287 101.21 317.552 101.376 317.781 101.6C318.013 101.825 318.196 102.112 318.328 102.46C318.461 102.805 318.527 103.217 318.527 103.696V104.09H314.056V103.223H317.295C317.292 102.977 317.239 102.758 317.135 102.566C317.031 102.372 316.885 102.22 316.698 102.108C316.514 101.997 316.298 101.941 316.052 101.941C315.789 101.941 315.558 102.005 315.359 102.133C315.161 102.259 315.005 102.424 314.894 102.63C314.785 102.834 314.73 103.058 314.727 103.301V104.058C314.727 104.375 314.785 104.647 314.901 104.875C315.017 105.1 315.18 105.272 315.388 105.393C315.596 105.511 315.84 105.571 316.119 105.571C316.306 105.571 316.476 105.545 316.627 105.493C316.779 105.438 316.91 105.359 317.021 105.255C317.133 105.15 317.217 105.021 317.273 104.868L318.474 105.002C318.398 105.32 318.254 105.597 318.041 105.833C317.83 106.068 317.56 106.25 317.231 106.38C316.902 106.508 316.525 106.572 316.102 106.572ZM323.575 106.466V107.492H318.877V106.466H323.575ZM323.44 105.116V104.068L326.526 99.1928H327.4V100.684H326.867L324.79 103.976V104.033H329.097V105.116H323.44ZM326.91 106.466V104.796L326.924 104.328V99.1928H328.167V106.466H326.91Z" fill="#B0B3B8"/>
<path d="M353.694 99.1928V106.466H352.522L349.095 101.512H349.035V106.466H347.717V99.1928H348.896L352.32 104.15H352.384V99.1928H353.694ZM357.382 106.572C356.849 106.572 356.388 106.455 355.997 106.22C355.606 105.986 355.303 105.658 355.088 105.237C354.875 104.815 354.768 104.323 354.768 103.76C354.768 103.196 354.875 102.702 355.088 102.279C355.303 101.855 355.606 101.526 355.997 101.292C356.388 101.057 356.849 100.94 357.382 100.94C357.915 100.94 358.376 101.057 358.767 101.292C359.157 101.526 359.459 101.855 359.672 102.279C359.888 102.702 359.996 103.196 359.996 103.76C359.996 104.323 359.888 104.815 359.672 105.237C359.459 105.658 359.157 105.986 358.767 106.22C358.376 106.455 357.915 106.572 357.382 106.572ZM357.389 105.542C357.678 105.542 357.919 105.463 358.113 105.304C358.308 105.143 358.452 104.928 358.547 104.658C358.644 104.388 358.692 104.087 358.692 103.756C358.692 103.422 358.644 103.12 358.547 102.85C358.452 102.578 358.308 102.362 358.113 102.201C357.919 102.04 357.678 101.959 357.389 101.959C357.093 101.959 356.847 102.04 356.65 102.201C356.456 102.362 356.311 102.578 356.214 102.85C356.119 103.12 356.072 103.422 356.072 103.756C356.072 104.087 356.119 104.388 356.214 104.658C356.311 104.928 356.456 105.143 356.65 105.304C356.847 105.463 357.093 105.542 357.389 105.542ZM363.74 101.011V102.005H360.605V101.011L363.74 101.011ZM361.379 99.7042H362.664V104.825C362.664 104.998 362.69 105.13 362.742 105.223C362.797 105.313 362.868 105.374 362.956 105.407C363.043 105.44 363.14 105.457 363.247 105.457C363.327 105.457 363.401 105.451 363.467 105.439C363.536 105.427 363.588 105.417 363.623 105.407L363.84 106.412C363.771 106.436 363.673 106.462 363.545 106.49C363.42 106.519 363.266 106.535 363.083 106.54C362.761 106.55 362.471 106.501 362.213 106.394C361.955 106.286 361.751 106.118 361.599 105.89C361.45 105.663 361.376 105.379 361.379 105.038V99.7042ZM367.102 106.572C366.555 106.572 366.082 106.458 365.685 106.231C365.289 106.001 364.985 105.677 364.772 105.258C364.559 104.837 364.452 104.341 364.452 103.77C364.452 103.209 364.559 102.717 364.772 102.293C364.988 101.867 365.288 101.535 365.674 101.299C366.06 101.06 366.513 100.94 367.034 100.94C367.37 100.94 367.688 100.994 367.986 101.103C368.287 101.21 368.552 101.376 368.781 101.6C369.013 101.825 369.196 102.112 369.328 102.46C369.461 102.805 369.527 103.217 369.527 103.696V104.09H365.056V103.223H368.295C368.292 102.977 368.239 102.758 368.135 102.566C368.031 102.372 367.885 102.22 367.698 102.108C367.514 101.997 367.298 101.941 367.052 101.941C366.789 101.941 366.558 102.005 366.359 102.133C366.161 102.259 366.005 102.424 365.894 102.63C365.785 102.834 365.73 103.058 365.727 103.301V104.058C365.727 104.375 365.785 104.647 365.901 104.875C366.017 105.1 366.18 105.272 366.388 105.393C366.596 105.511 366.84 105.571 367.119 105.571C367.306 105.571 367.476 105.545 367.627 105.493C367.779 105.438 367.91 105.359 368.021 105.255C368.133 105.15 368.217 105.021 368.273 104.868L369.474 105.002C369.398 105.32 369.254 105.597 369.041 105.833C368.83 106.068 368.56 106.25 368.231 106.38C367.902 106.508 367.525 106.572 367.102 106.572ZM374.575 106.466V107.492H369.877V106.466H374.575ZM377.208 106.565C376.734 106.565 376.31 106.476 375.936 106.299C375.562 106.119 375.265 105.872 375.045 105.56C374.827 105.247 374.711 104.89 374.697 104.488H375.975C375.999 104.786 376.128 105.03 376.362 105.219C376.597 105.406 376.878 105.5 377.208 105.5C377.466 105.5 377.695 105.44 377.896 105.322C378.098 105.204 378.256 105.039 378.372 104.828C378.488 104.618 378.545 104.377 378.543 104.108C378.545 103.833 378.487 103.589 378.369 103.376C378.25 103.163 378.088 102.996 377.882 102.875C377.676 102.752 377.44 102.691 377.172 102.691C376.954 102.688 376.74 102.729 376.529 102.811C376.319 102.894 376.152 103.003 376.029 103.138L374.839 102.943L375.219 99.1928H379.438V100.294H376.309L376.1 102.222H376.142C376.277 102.063 376.468 101.932 376.714 101.828C376.96 101.721 377.23 101.668 377.524 101.668C377.964 101.668 378.357 101.772 378.703 101.98C379.048 102.186 379.32 102.47 379.519 102.833C379.718 103.195 379.818 103.609 379.818 104.076C379.818 104.556 379.706 104.985 379.484 105.361C379.264 105.735 378.957 106.03 378.564 106.245C378.173 106.458 377.721 106.565 377.208 106.565Z" fill="#B0B3B8"/>
<path d="M403.5 98.7988V106.132" stroke="#B0B3B8" stroke-width="1.5" stroke-linecap="round" stroke-linejoin="round"/>
<path d="M399.833 102.466H407.167" stroke="#B0B3B8" stroke-width="1.5" stroke-linecap="round" stroke-linejoin="round"/>
<g clip-path="url(#clip1_590_2358)">
<path d="M75 51.6322V53.4188C75 54.4588 75 55.0055 74.8266 55.4855C74.8132 55.5122 74.8132 55.5255 74.7999 55.5522C74.7465 55.6855 74.6798 55.8188 74.5864 55.9388C74.3596 56.2722 73.9994 56.6322 73.4391 57.1922L67.2223 63.4055C66.7021 63.9255 66.3552 64.2722 66.035 64.4988C65.9683 64.5522 65.915 64.5922 65.8482 64.6188C65.7682 64.6855 65.6748 64.7255 65.5814 64.7655C65.0878 64.9655 64.5409 64.9655 63.4469 64.9655H61.6593C56.6298 64.9655 54.1084 64.9655 52.5475 63.4055C51.1467 62.0055 51 59.8455 51 55.8188H55.9628C58.0039 55.8188 59.6715 54.1522 59.6715 52.0988C59.6715 50.4188 58.5642 49.0455 56.95 48.6322C56.323 48.4722 55.6826 48.4055 55.0556 48.3255C54.1484 48.2055 53.2012 47.9255 52.5208 47.3122C51.8004 46.6588 51.4136 45.6322 51.4136 44.6722V44.6055C51.4536 42.5922 53.1078 40.9655 55.1356 40.9655H59.2312C59.3246 40.9655 59.4047 40.9655 59.4981 40.9788H59.6181C60.2451 40.9655 60.9255 40.9655 61.6593 40.9655H64.3274C69.3569 40.9655 71.8783 40.9655 73.4391 42.5255C75 44.0855 75 46.6055 75 51.6322Z" fill="url(#paint1_linear_590_2358)"/>
<path d="M74.8266 55.4855C74.8132 55.5122 74.8132 55.5255 74.7999 55.5522C74.7465 55.6855 74.6798 55.8188 74.5864 55.9388C74.3596 56.2722 73.9994 56.6322 73.4391 57.1922L67.2223 63.4055C66.7021 63.9255 66.3552 64.2722 66.035 64.4988C65.9683 64.5522 65.915 64.5922 65.8482 64.6188C65.7949 64.6188 65.7682 64.6322 65.7415 64.6455V63.2455C65.7415 59.5922 65.7415 57.7655 66.8888 56.6188C68.0228 55.4855 69.8505 55.4855 73.5058 55.4855H74.8266Z" fill="#0050B3"/>
</g>
<path d="M85.07 59.6455C84.37 59.6455 83.72 59.5155 83.12 59.2555C82.52 58.9855 82.01 58.6205 81.59 58.1605C81.17 57.7005 80.86 57.1705 80.66 56.5705L82.16 55.9405C82.43 56.6305 82.825 57.1605 83.345 57.5305C83.865 57.9005 84.465 58.0855 85.145 58.0855C85.545 58.0855 85.895 58.0255 86.195 57.9055C86.495 57.7755 86.725 57.5955 86.885 57.3655C87.055 57.1355 87.14 56.8705 87.14 56.5705C87.14 56.1605 87.025 55.8355 86.795 55.5955C86.565 55.3555 86.225 55.1655 85.775 55.0255L83.675 54.3655C82.835 54.1055 82.195 53.7105 81.755 53.1805C81.315 52.6405 81.095 52.0105 81.095 51.2905C81.095 50.6605 81.25 50.1105 81.56 49.6405C81.87 49.1605 82.295 48.7855 82.835 48.5155C83.385 48.2455 84.01 48.1105 84.71 48.1105C85.38 48.1105 85.99 48.2305 86.54 48.4705C87.09 48.7005 87.56 49.0205 87.95 49.4305C88.35 49.8405 88.64 50.3155 88.82 50.8555L87.35 51.5005C87.13 50.9105 86.785 50.4555 86.315 50.1355C85.855 49.8155 85.32 49.6555 84.71 49.6555C84.34 49.6555 84.015 49.7205 83.735 49.8505C83.455 49.9705 83.235 50.1505 83.075 50.3905C82.925 50.6205 82.85 50.8905 82.85 51.2005C82.85 51.5605 82.965 51.8805 83.195 52.1605C83.425 52.4405 83.775 52.6505 84.245 52.7905L86.195 53.4055C87.085 53.6755 87.755 54.0655 88.205 54.5755C88.655 55.0755 88.88 55.7005 88.88 56.4505C88.88 57.0705 88.715 57.6205 88.385 58.1005C88.065 58.5805 87.62 58.9605 87.05 59.2405C86.48 59.5105 85.82 59.6455 85.07 59.6455ZM94.2119 59.5555C93.3619 59.5555 92.7019 59.3155 92.2319 58.8355C91.7619 58.3555 91.5269 57.6805 91.5269 56.8105V52.8805H90.1019V51.3505H90.3269C90.7069 51.3505 91.0019 51.2405 91.2119 51.0205C91.4219 50.8005 91.5269 50.5005 91.5269 50.1205V49.4905H93.2219V51.3505H95.0669V52.8805H93.2219V56.7355C93.2219 57.0155 93.2669 57.2555 93.3569 57.4555C93.4469 57.6455 93.5919 57.7955 93.7919 57.9055C93.9919 58.0055 94.2519 58.0555 94.5719 58.0555C94.6519 58.0555 94.7419 58.0505 94.8419 58.0405C94.9419 58.0305 95.0369 58.0205 95.1269 58.0105V59.4655C94.9869 59.4855 94.8319 59.5055 94.6619 59.5255C94.4919 59.5455 94.3419 59.5555 94.2119 59.5555ZM96.781 59.4655V51.3505H98.476V59.4655H96.781ZM96.781 50.2405V48.2905H98.476V50.2405H96.781ZM104.313 59.6455C103.503 59.6455 102.783 59.4605 102.153 59.0905C101.533 58.7105 101.038 58.2005 100.668 57.5605C100.308 56.9205 100.128 56.1955 100.128 55.3855C100.128 54.5855 100.308 53.8655 100.668 53.2255C101.028 52.5855 101.523 52.0855 102.153 51.7255C102.783 51.3555 103.503 51.1705 104.313 51.1705C104.863 51.1705 105.378 51.2705 105.858 51.4705C106.338 51.6605 106.753 51.9255 107.103 52.2655C107.463 52.6055 107.728 53.0005 107.898 53.4505L106.413 54.1405C106.243 53.7205 105.968 53.3855 105.588 53.1355C105.218 52.8755 104.793 52.7455 104.313 52.7455C103.853 52.7455 103.438 52.8605 103.068 53.0905C102.708 53.3105 102.423 53.6255 102.213 54.0355C102.003 54.4355 101.898 54.8905 101.898 55.4005C101.898 55.9105 102.003 56.3705 102.213 56.7805C102.423 57.1805 102.708 57.4955 103.068 57.7255C103.438 57.9555 103.853 58.0705 104.313 58.0705C104.803 58.0705 105.228 57.9455 105.588 57.6955C105.958 57.4355 106.233 57.0905 106.413 56.6605L107.898 57.3655C107.738 57.7955 107.478 58.1855 107.118 58.5355C106.768 58.8755 106.353 59.1455 105.873 59.3455C105.393 59.5455 104.873 59.6455 104.313 59.6455ZM109.554 59.4655V48.1105H111.249V55.7155L110.589 55.5505L114.654 51.3505H116.769L113.709 54.6055L116.904 59.4655H114.954L112.104 55.1605L113.109 55.0255L110.709 57.5755L111.249 56.4505V59.4655H109.554ZM121.834 59.6455C121.054 59.6455 120.339 59.4605 119.689 59.0905C119.049 58.7205 118.539 58.2155 118.159 57.5755C117.779 56.9355 117.589 56.2105 117.589 55.4005C117.589 54.5805 117.779 53.8555 118.159 53.2255C118.539 52.5855 119.049 52.0855 119.689 51.7255C120.329 51.3555 121.044 51.1705 121.834 51.1705C122.634 51.1705 123.349 51.3555 123.979 51.7255C124.619 52.0855 125.124 52.5855 125.494 53.2255C125.874 53.8555 126.064 54.5805 126.064 55.4005C126.064 56.2205 125.874 56.9505 125.494 57.5905C125.114 58.2305 124.604 58.7355 123.964 59.1055C123.324 59.4655 122.614 59.6455 121.834 59.6455ZM121.834 58.0705C122.314 58.0705 122.739 57.9555 123.109 57.7255C123.479 57.4955 123.769 57.1805 123.979 56.7805C124.199 56.3705 124.309 55.9105 124.309 55.4005C124.309 54.8905 124.199 54.4355 123.979 54.0355C123.769 53.6355 123.479 53.3205 123.109 53.0905C122.739 52.8605 122.314 52.7455 121.834 52.7455C121.364 52.7455 120.939 52.8605 120.559 53.0905C120.189 53.3205 119.894 53.6355 119.674 54.0355C119.464 54.4355 119.359 54.8905 119.359 55.4005C119.359 55.9105 119.464 56.3705 119.674 56.7805C119.894 57.1805 120.189 57.4955 120.559 57.7255C120.939 57.9555 121.364 58.0705 121.834 58.0705Z" fill="#FDFDFD"/>
<g clip-path="url(#clip2_590_2358)">
<path d="M389.847 49.2293C389.856 49.2293 389.866 49.2293 389.875 49.2293C392.982 49.2293 395.5 51.7523 395.5 54.8646C395.5 57.7653 393.312 60.154 390.5 60.4655M389.847 49.2293C389.865 49.0231 389.875 48.8142 389.875 48.6031C389.875 44.7992 386.797 41.7155 383 41.7155C379.404 41.7155 376.453 44.4814 376.151 48.0054M389.847 49.2293C389.719 50.65 389.161 51.9463 388.303 52.9861M376.151 48.0054C372.98 48.3077 370.5 50.9829 370.5 54.2384C370.5 57.2676 372.647 59.7945 375.5 60.3746M376.151 48.0054C376.348 47.9866 376.548 47.977 376.75 47.977C378.157 47.977 379.456 48.4429 380.501 49.2293M383 54.2155V64.2155M383 54.2155C382.125 54.2155 380.489 56.7084 379.875 57.3405M383 54.2155C383.875 54.2155 385.511 56.7084 386.125 57.3405" stroke="#B0B3B8" stroke-width="1.5" stroke-linecap="round" stroke-linejoin="round"/>
</g>
<path d="M418.799 58.6668L430.201 47.2642M418.799 58.6668C418.133 58.0015 418.785 54.8633 418.799 53.9158M418.799 58.6668C419.464 59.3322 422.602 58.6803 423.55 58.6668M430.201 47.2642C429.536 46.5989 426.398 47.2508 425.45 47.2643M430.201 47.2642C430.867 47.9296 430.215 51.0677 430.201 52.0153" stroke="#B0B3B8" stroke-width="1.5" stroke-linecap="round" stroke-linejoin="round"/>
<rect x="451" y="37.9655" width="30" height="30" rx="15" fill="url(#paint2_linear_590_2358)"/>
<path d="M468.8 52.4655C468.8 54.0226 467.546 55.2848 466 55.2848C464.454 55.2848 463.2 54.0226 463.2 52.4655C463.2 50.9085 464.454 49.6462 466 49.6462C467.546 49.6462 468.8 50.9085 468.8 52.4655Z" stroke="white" stroke-width="1.5" stroke-linecap="round"/>
<path d="M473.209 54.1543C473.626 54.0409 473.835 53.9842 473.918 53.8758C474 53.7675 474 53.5931 474 53.2444V51.6867C474 51.338 474 51.1636 473.918 51.0553C473.835 50.9469 473.626 50.8902 473.209 50.7768C471.648 50.3531 470.672 48.7106 471.075 47.1498C471.185 46.7206 471.241 46.506 471.188 46.3801C471.135 46.2542 470.983 46.1675 470.68 45.994L469.3 45.2052C469.002 45.035 468.853 44.9499 468.72 44.968C468.586 44.9861 468.435 45.1376 468.134 45.4404C466.966 46.6131 465.035 46.613 463.867 45.4404C463.566 45.1375 463.415 44.986 463.282 44.9679C463.148 44.9498 462.999 45.0349 462.701 45.2051L461.321 45.9939C461.018 46.1674 460.866 46.2541 460.813 46.38C460.761 46.5059 460.816 46.7205 460.927 47.1498C461.329 48.7106 460.352 50.3532 458.791 50.7768C458.374 50.8902 458.165 50.9469 458.082 51.0552C458 51.1636 458 51.338 458 51.6867V53.2444C458 53.5931 458 53.7675 458.082 53.8758C458.165 53.9842 458.374 54.0409 458.791 54.1543C460.352 54.578 461.328 56.2205 460.925 57.7812C460.815 58.2105 460.759 58.4251 460.812 58.551C460.865 58.6769 461.017 58.7636 461.32 58.9371L462.7 59.7259C462.998 59.8961 463.147 59.9812 463.28 59.9631C463.414 59.945 463.565 59.7935 463.866 59.4906C465.034 58.3171 466.967 58.317 468.135 59.4905C468.437 59.7935 468.587 59.9449 468.721 59.963C468.855 59.9812 469.004 59.896 469.301 59.7258L470.681 58.937C470.985 58.7636 471.136 58.6768 471.189 58.5509C471.242 58.425 471.187 58.2104 471.076 57.7811C470.673 56.2205 471.649 54.578 473.209 54.1543Z" stroke="white" stroke-width="1.5" stroke-linecap="round"/>
<path d="M49.8011 155.329C49.7415 154.825 49.4995 154.434 49.0753 154.156C48.651 153.877 48.1307 153.738 47.5142 153.738C47.0634 153.738 46.669 153.811 46.331 153.957C45.9962 154.103 45.7344 154.303 45.5455 154.559C45.3598 154.814 45.267 155.104 45.267 155.429C45.267 155.7 45.3317 155.934 45.4609 156.13C45.5935 156.322 45.7625 156.483 45.968 156.612C46.1735 156.738 46.389 156.842 46.6143 156.925C46.8397 157.005 47.0469 157.069 47.2358 157.119L48.2699 157.397C48.535 157.467 48.83 157.563 49.1548 157.686C49.483 157.808 49.7962 157.976 50.0945 158.188C50.3961 158.397 50.6446 158.665 50.8402 158.993C51.0357 159.321 51.1335 159.724 51.1335 160.201C51.1335 160.751 50.9893 161.249 50.701 161.693C50.416 162.137 49.9983 162.49 49.4482 162.752C48.9013 163.014 48.2367 163.144 47.4545 163.144C46.7254 163.144 46.094 163.027 45.5604 162.791C45.0301 162.556 44.6125 162.228 44.3075 161.807C44.0059 161.386 43.8352 160.897 43.7955 160.34H45.0682C45.1013 160.725 45.2306 161.043 45.456 161.295C45.6847 161.544 45.973 161.729 46.321 161.852C46.6723 161.971 47.0502 162.031 47.4545 162.031C47.9252 162.031 48.3478 161.955 48.7223 161.802C49.0968 161.646 49.3935 161.431 49.6122 161.156C49.831 160.877 49.9403 160.553 49.9403 160.181C49.9403 159.843 49.8459 159.568 49.657 159.356C49.468 159.144 49.2195 158.972 48.9112 158.839C48.603 158.707 48.2699 158.59 47.9119 158.491L46.6591 158.133C45.8636 157.904 45.2339 157.578 44.7699 157.154C44.3059 156.729 44.0739 156.174 44.0739 155.488C44.0739 154.918 44.228 154.421 44.5362 153.997C44.8478 153.569 45.2654 153.238 45.7891 153.002C46.3161 152.764 46.9044 152.644 47.554 152.644C48.2102 152.644 48.7936 152.762 49.304 152.997C49.8144 153.229 50.2187 153.548 50.517 153.952C50.8187 154.356 50.9777 154.815 50.9943 155.329H49.8011ZM56.3226 155.329V156.323H52.3652V155.329H56.3226ZM53.5186 153.5H54.6919V160.778C54.6919 161.109 54.74 161.358 54.8361 161.524C54.9355 161.686 55.0615 161.796 55.214 161.852C55.3697 161.905 55.5338 161.931 55.7061 161.931C55.8354 161.931 55.9415 161.925 56.0243 161.912C56.1072 161.895 56.1735 161.882 56.2232 161.872L56.4618 162.926C56.3823 162.956 56.2712 162.985 56.1287 163.015C55.9862 163.048 55.8056 163.065 55.5868 163.065C55.2554 163.065 54.9306 162.994 54.6124 162.851C54.2975 162.709 54.0357 162.492 53.8269 162.2C53.6214 161.908 53.5186 161.54 53.5186 161.096V153.5ZM60.3347 163.144C59.8508 163.144 59.4116 163.053 59.0172 162.871C58.6228 162.685 58.3096 162.419 58.0776 162.071C57.8456 161.719 57.7296 161.295 57.7296 160.798C57.7296 160.36 57.8158 160.006 57.9881 159.734C58.1605 159.459 58.3908 159.243 58.6792 159.088C58.9675 158.932 59.2857 158.816 59.6337 158.74C59.985 158.66 60.338 158.597 60.6926 158.551C61.1567 158.491 61.5328 158.446 61.8212 158.416C62.1129 158.383 62.325 158.329 62.4576 158.252C62.5935 158.176 62.6614 158.044 62.6614 157.855V157.815C62.6614 157.324 62.5272 156.943 62.2587 156.671C61.9935 156.4 61.5908 156.264 61.0506 156.264C60.4905 156.264 60.0513 156.386 59.7331 156.632C59.4149 156.877 59.1912 157.139 59.062 157.417L57.9483 157.019C58.1472 156.555 58.4123 156.194 58.7438 155.936C59.0785 155.674 59.4431 155.492 59.8375 155.389C60.2353 155.283 60.6264 155.23 61.0108 155.23C61.2561 155.23 61.5378 155.26 61.856 155.319C62.1775 155.376 62.4874 155.493 62.7857 155.672C63.0873 155.851 63.3375 156.121 63.5364 156.483C63.7353 156.844 63.8347 157.328 63.8347 157.934V162.965H62.6614V161.931H62.6017C62.5222 162.097 62.3896 162.274 62.204 162.463C62.0184 162.652 61.7715 162.813 61.4632 162.946C61.155 163.078 60.7788 163.144 60.3347 163.144ZM60.5137 162.09C60.9777 162.09 61.3688 161.999 61.687 161.817C62.0085 161.635 62.2504 161.399 62.4128 161.111C62.5785 160.823 62.6614 160.519 62.6614 160.201V159.127C62.6117 159.187 62.5023 159.242 62.3333 159.291C62.1676 159.338 61.9753 159.379 61.7566 159.416C61.5411 159.449 61.3307 159.479 61.1252 159.505C60.923 159.528 60.7589 159.548 60.633 159.565C60.3281 159.605 60.043 159.669 59.7779 159.759C59.516 159.845 59.3039 159.976 59.1415 160.152C58.9824 160.324 58.9029 160.559 58.9029 160.858C58.9029 161.265 59.0537 161.573 59.3553 161.782C59.6602 161.988 60.0463 162.09 60.5137 162.09ZM65.9762 162.965V155.329H67.1097V156.483H67.1893C67.3285 156.105 67.5804 155.798 67.945 155.563C68.3095 155.327 68.7205 155.21 69.1779 155.21C69.2641 155.21 69.3718 155.211 69.5011 155.215C69.6303 155.218 69.7281 155.223 69.7944 155.23V156.423C69.7546 156.413 69.6635 156.398 69.521 156.378C69.3817 156.355 69.2343 156.343 69.0785 156.343C68.7073 156.343 68.3758 156.421 68.0842 156.577C67.7958 156.729 67.5671 156.942 67.3981 157.213C67.2324 157.482 67.1495 157.788 67.1495 158.133V162.965H65.9762ZM74.9847 155.329V156.323H71.0273V155.329H74.9847ZM72.1808 153.5H73.354V160.778C73.354 161.109 73.4021 161.358 73.4982 161.524C73.5977 161.686 73.7236 161.796 73.8761 161.852C74.0318 161.905 74.1959 161.931 74.3683 161.931C74.4975 161.931 74.6036 161.925 74.6864 161.912C74.7693 161.895 74.8356 161.882 74.8853 161.872L75.1239 162.926C75.0444 162.956 74.9334 162.985 74.7908 163.015C74.6483 163.048 74.4677 163.065 74.2489 163.065C73.9175 163.065 73.5927 162.994 73.2745 162.851C72.9596 162.709 72.6978 162.492 72.489 162.2C72.2835 161.908 72.1808 161.54 72.1808 161.096V153.5ZM81.4428 165.829C81.244 165.829 81.0666 165.813 80.9109 165.779C80.7551 165.75 80.6474 165.72 80.5877 165.69L80.886 164.656C81.171 164.729 81.4229 164.755 81.6417 164.735C81.8604 164.715 82.0543 164.618 82.2234 164.442C82.3957 164.27 82.5531 163.99 82.6957 163.602L82.9144 163.005L80.0906 155.329H81.3633L83.4712 161.414H83.5508L85.6587 155.329H86.9315L83.69 164.079C83.5442 164.474 83.3635 164.8 83.1481 165.059C82.9326 165.32 82.6824 165.514 82.3974 165.64C82.1156 165.766 81.7975 165.829 81.4428 165.829ZM91.3089 163.125C90.6196 163.125 90.0147 162.961 89.4943 162.632C88.9773 162.304 88.5729 161.845 88.2812 161.255C87.9929 160.665 87.8487 159.976 87.8487 159.187C87.8487 158.392 87.9929 157.697 88.2812 157.104C88.5729 156.511 88.9773 156.05 89.4943 155.722C90.0147 155.394 90.6196 155.23 91.3089 155.23C91.9983 155.23 92.6016 155.394 93.1186 155.722C93.639 156.05 94.0433 156.511 94.3317 157.104C94.6233 157.697 94.7692 158.392 94.7692 159.187C94.7692 159.976 94.6233 160.665 94.3317 161.255C94.0433 161.845 93.639 162.304 93.1186 162.632C92.6016 162.961 91.9983 163.125 91.3089 163.125ZM91.3089 162.071C91.8326 162.071 92.2635 161.936 92.6016 161.668C92.9396 161.399 93.1899 161.046 93.3523 160.609C93.5147 160.171 93.5959 159.698 93.5959 159.187C93.5959 158.677 93.5147 158.201 93.3523 157.76C93.1899 157.319 92.9396 156.963 92.6016 156.691C92.2635 156.42 91.8326 156.284 91.3089 156.284C90.7853 156.284 90.3544 156.42 90.0163 156.691C89.6783 156.963 89.428 157.319 89.2656 157.76C89.1032 158.201 89.022 158.677 89.022 159.187C89.022 159.698 89.1032 160.171 89.2656 160.609C89.428 161.046 89.6783 161.399 90.0163 161.668C90.3544 161.936 90.7853 162.071 91.3089 162.071ZM101.373 159.843V155.329H102.546V162.965H101.373V161.673H101.293C101.114 162.061 100.836 162.39 100.458 162.662C100.08 162.931 99.6028 163.065 99.0261 163.065C98.5488 163.065 98.1246 162.961 97.7534 162.752C97.3822 162.54 97.0905 162.221 96.8784 161.797C96.6662 161.37 96.5602 160.831 96.5602 160.181V155.329H97.7335V160.102C97.7335 160.659 97.8893 161.103 98.2008 161.434C98.5157 161.766 98.9167 161.931 99.4039 161.931C99.6956 161.931 99.9922 161.857 100.294 161.708C100.599 161.559 100.854 161.33 101.059 161.022C101.268 160.713 101.373 160.321 101.373 159.843ZM104.695 162.965V155.329H105.828V156.483H105.908C106.047 156.105 106.299 155.798 106.664 155.563C107.028 155.327 107.439 155.21 107.897 155.21C107.983 155.21 108.091 155.211 108.22 155.215C108.349 155.218 108.447 155.223 108.513 155.23V156.423C108.473 156.413 108.382 156.398 108.24 156.378C108.1 156.355 107.953 156.343 107.797 156.343C107.426 156.343 107.095 156.421 106.803 156.577C106.515 156.729 106.286 156.942 106.117 157.213C105.951 157.482 105.868 157.788 105.868 158.133V162.965H104.695ZM115.015 158.372V162.965H113.841V155.329H114.975V156.522H115.074C115.253 156.135 115.525 155.823 115.89 155.588C116.254 155.349 116.725 155.23 117.302 155.23C117.819 155.23 118.271 155.336 118.659 155.548C119.047 155.757 119.348 156.075 119.564 156.502C119.779 156.927 119.887 157.464 119.887 158.113V162.965H118.714V158.193C118.714 157.593 118.558 157.126 118.246 156.791C117.935 156.453 117.507 156.284 116.964 156.284C116.589 156.284 116.254 156.365 115.959 156.527C115.668 156.69 115.437 156.927 115.268 157.238C115.099 157.55 115.015 157.928 115.015 158.372ZM125.133 163.125C124.444 163.125 123.839 162.961 123.319 162.632C122.801 162.304 122.397 161.845 122.105 161.255C121.817 160.665 121.673 159.976 121.673 159.187C121.673 158.392 121.817 157.697 122.105 157.104C122.397 156.511 122.801 156.05 123.319 155.722C123.839 155.394 124.444 155.23 125.133 155.23C125.823 155.23 126.426 155.394 126.943 155.722C127.463 156.05 127.868 156.511 128.156 157.104C128.448 157.697 128.593 158.392 128.593 159.187C128.593 159.976 128.448 160.665 128.156 161.255C127.868 161.845 127.463 162.304 126.943 162.632C126.426 162.961 125.823 163.125 125.133 163.125ZM125.133 162.071C125.657 162.071 126.088 161.936 126.426 161.668C126.764 161.399 127.014 161.046 127.176 160.609C127.339 160.171 127.42 159.698 127.42 159.187C127.42 158.677 127.339 158.201 127.176 157.76C127.014 157.319 126.764 156.963 126.426 156.691C126.088 156.42 125.657 156.284 125.133 156.284C124.609 156.284 124.179 156.42 123.841 156.691C123.502 156.963 123.252 157.319 123.09 157.76C122.927 158.201 122.846 158.677 122.846 159.187C122.846 159.698 122.927 160.171 123.09 160.609C123.252 161.046 123.502 161.399 123.841 161.668C124.179 161.936 124.609 162.071 125.133 162.071ZM133.705 155.329V156.323H129.748V155.329H133.705ZM130.901 153.5H132.075V160.778C132.075 161.109 132.123 161.358 132.219 161.524C132.318 161.686 132.444 161.796 132.597 161.852C132.753 161.905 132.917 161.931 133.089 161.931C133.218 161.931 133.324 161.925 133.407 161.912C133.49 161.895 133.556 161.882 133.606 161.872L133.845 162.926C133.765 162.956 133.654 162.985 133.512 163.015C133.369 163.048 133.188 163.065 132.97 163.065C132.638 163.065 132.313 162.994 131.995 162.851C131.68 162.709 131.418 162.492 131.21 162.2C131.004 161.908 130.901 161.54 130.901 161.096V153.5ZM138.59 163.125C137.854 163.125 137.22 162.962 136.686 162.637C136.156 162.309 135.746 161.852 135.458 161.265C135.173 160.675 135.03 159.989 135.03 159.207C135.03 158.425 135.173 157.735 135.458 157.139C135.746 156.539 136.147 156.072 136.661 155.737C137.178 155.399 137.781 155.23 138.471 155.23C138.868 155.23 139.261 155.296 139.649 155.429C140.037 155.561 140.39 155.777 140.708 156.075C141.026 156.37 141.28 156.761 141.469 157.248C141.657 157.735 141.752 158.335 141.752 159.048V159.545H135.866V158.531H140.559C140.559 158.1 140.473 157.715 140.3 157.377C140.131 157.039 139.889 156.773 139.574 156.577C139.263 156.381 138.895 156.284 138.471 156.284C138.003 156.284 137.599 156.4 137.258 156.632C136.92 156.86 136.659 157.159 136.477 157.527C136.295 157.894 136.204 158.289 136.204 158.71V159.386C136.204 159.963 136.303 160.452 136.502 160.853C136.704 161.25 136.984 161.554 137.342 161.762C137.7 161.968 138.116 162.071 138.59 162.071C138.898 162.071 139.177 162.028 139.425 161.941C139.677 161.852 139.894 161.719 140.077 161.544C140.259 161.365 140.4 161.143 140.499 160.877L141.633 161.196C141.513 161.58 141.313 161.918 141.031 162.21C140.749 162.498 140.401 162.724 139.987 162.886C139.573 163.045 139.107 163.125 138.59 163.125ZM144.392 163.045C144.147 163.045 143.936 162.957 143.76 162.782C143.585 162.606 143.497 162.395 143.497 162.15C143.497 161.905 143.585 161.694 143.76 161.519C143.936 161.343 144.147 161.255 144.392 161.255C144.637 161.255 144.848 161.343 145.023 161.519C145.199 161.694 145.287 161.905 145.287 162.15C145.287 162.313 145.245 162.462 145.162 162.598C145.083 162.733 144.975 162.843 144.839 162.926C144.707 163.005 144.558 163.045 144.392 163.045ZM148.247 163.045C148.002 163.045 147.792 162.957 147.616 162.782C147.44 162.606 147.352 162.395 147.352 162.15C147.352 161.905 147.44 161.694 147.616 161.519C147.792 161.343 148.002 161.255 148.247 161.255C148.493 161.255 148.703 161.343 148.879 161.519C149.054 161.694 149.142 161.905 149.142 162.15C149.142 162.313 149.101 162.462 149.018 162.598C148.938 162.733 148.831 162.843 148.695 162.926C148.562 163.005 148.413 163.045 148.247 163.045ZM152.103 163.045C151.858 163.045 151.647 162.957 151.471 162.782C151.296 162.606 151.208 162.395 151.208 162.15C151.208 161.905 151.296 161.694 151.471 161.519C151.647 161.343 151.858 161.255 152.103 161.255C152.348 161.255 152.559 161.343 152.734 161.519C152.91 161.694 152.998 161.905 152.998 162.15C152.998 162.313 152.956 162.462 152.873 162.598C152.794 162.733 152.686 162.843 152.55 162.926C152.418 163.005 152.269 163.045 152.103 163.045ZM155.958 163.045C155.713 163.045 155.503 162.957 155.327 162.782C155.151 162.606 155.063 162.395 155.063 162.15C155.063 161.905 155.151 161.694 155.327 161.519C155.503 161.343 155.713 161.255 155.958 161.255C156.204 161.255 156.414 161.343 156.59 161.519C156.765 161.694 156.853 161.905 156.853 162.15C156.853 162.313 156.812 162.462 156.729 162.598C156.649 162.733 156.542 162.843 156.406 162.926C156.273 163.005 156.124 163.045 155.958 163.045Z" fill="#B0B3B8"/>
<g filter="url(#filter0_bd_590_2358)">
<rect x="127" y="26.9655" width="377" height="529" rx="29" fill="#1C1C1D" fill-opacity="0.93" shape-rendering="crispEdges"/>
<rect x="419" y="37.9655" width="30" height="30" rx="15" fill="url(#paint3_linear_590_2358)"/>
<path d="M438 48.9655L430 56.9655M430 48.9655L438 56.9655" stroke="white" stroke-linecap="round" stroke-linejoin="round"/>
<path d="M150.117 52.9557C150.117 53.238 150.241 53.5202 150.44 53.7194L155.894 59.1647C156.11 59.3806 156.367 59.4802 156.625 59.4802C157.222 59.4802 157.637 59.0568 157.637 58.5007C157.637 58.1935 157.513 57.9445 157.322 57.7619L155.471 55.8859L153.279 53.8854L155.164 53.9933H164.95C165.581 53.9933 166.004 53.57 166.004 52.9557C166.004 52.3415 165.581 51.9182 164.95 51.9182H155.164L153.279 52.0261L155.471 50.0256L157.322 48.1496C157.513 47.9587 157.637 47.7097 157.637 47.4108C157.637 46.8464 157.222 46.423 156.625 46.423C156.367 46.423 156.11 46.5309 155.877 46.7634L150.44 52.1921C150.241 52.3913 150.117 52.6735 150.117 52.9557Z" fill="#FDFDFD"/>
<path d="M154.102 104.182C153.25 104.182 152.47 104.026 151.762 103.714C151.054 103.39 150.454 102.952 149.962 102.4C149.47 101.848 149.116 101.23 148.9 100.546L150.43 99.9155C150.754 100.78 151.234 101.446 151.87 101.914C152.518 102.37 153.274 102.598 154.138 102.598C154.666 102.598 155.128 102.514 155.524 102.346C155.92 102.178 156.226 101.944 156.442 101.644C156.67 101.332 156.784 100.972 156.784 100.564C156.784 99.9995 156.622 99.5555 156.298 99.2315C155.986 98.8955 155.524 98.6435 154.912 98.4755L152.446 97.7195C151.474 97.4195 150.73 96.9455 150.214 96.2975C149.698 95.6495 149.44 94.9055 149.44 94.0655C149.44 93.3335 149.614 92.6915 149.962 92.1395C150.322 91.5755 150.814 91.1375 151.438 90.8255C152.074 90.5015 152.794 90.3395 153.598 90.3395C154.402 90.3395 155.128 90.4835 155.776 90.7715C156.436 91.0595 156.994 91.4495 157.45 91.9415C157.906 92.4215 158.242 92.9735 158.458 93.5975L156.946 94.2275C156.658 93.4715 156.226 92.9015 155.65 92.5175C155.074 92.1215 154.396 91.9235 153.616 91.9235C153.136 91.9235 152.71 92.0075 152.338 92.1755C151.978 92.3315 151.696 92.5655 151.492 92.8775C151.3 93.1775 151.204 93.5375 151.204 93.9575C151.204 94.4495 151.36 94.8875 151.672 95.2715C151.984 95.6555 152.458 95.9495 153.094 96.1535L155.344 96.8195C156.4 97.1435 157.198 97.6055 157.738 98.2055C158.278 98.8055 158.548 99.5495 158.548 100.438C158.548 101.17 158.356 101.818 157.972 102.382C157.6 102.946 157.078 103.39 156.406 103.714C155.746 104.026 154.978 104.182 154.102 104.182ZM164.245 104.182C163.549 104.182 162.919 104.02 162.355 103.696C161.803 103.372 161.371 102.922 161.059 102.346C160.759 101.758 160.609 101.086 160.609 100.33V94.2635H162.283V100.15C162.283 100.63 162.379 101.05 162.571 101.41C162.775 101.77 163.051 102.052 163.399 102.256C163.759 102.46 164.167 102.562 164.623 102.562C165.079 102.562 165.481 102.46 165.829 102.256C166.189 102.052 166.465 101.758 166.657 101.374C166.861 100.99 166.963 100.534 166.963 100.006V94.2635H168.655V103.966H167.017V102.076L167.287 102.238C167.059 102.85 166.669 103.33 166.117 103.678C165.577 104.014 164.953 104.182 164.245 104.182ZM171.122 107.566V94.2635H172.76V96.3515L172.544 95.9375C172.904 95.3615 173.396 94.9055 174.02 94.5695C174.644 94.2215 175.358 94.0475 176.162 94.0475C177.074 94.0475 177.89 94.2695 178.61 94.7135C179.342 95.1575 179.918 95.7635 180.338 96.5315C180.758 97.2875 180.968 98.1515 180.968 99.1235C180.968 100.072 180.758 100.93 180.338 101.698C179.918 102.466 179.342 103.072 178.61 103.516C177.89 103.96 177.068 104.182 176.144 104.182C175.364 104.182 174.65 104.008 174.002 103.66C173.366 103.312 172.874 102.82 172.526 102.184L172.796 101.896V107.566H171.122ZM176.018 102.562C176.63 102.562 177.176 102.412 177.656 102.112C178.136 101.812 178.508 101.404 178.772 100.888C179.048 100.36 179.186 99.7715 179.186 99.1235C179.186 98.4515 179.048 97.8635 178.772 97.3595C178.508 96.8435 178.136 96.4355 177.656 96.1355C177.176 95.8235 176.63 95.6675 176.018 95.6675C175.406 95.6675 174.854 95.8175 174.362 96.1175C173.882 96.4175 173.498 96.8315 173.21 97.3595C172.934 97.8755 172.796 98.4635 172.796 99.1235C172.796 99.7715 172.934 100.36 173.21 100.888C173.498 101.404 173.882 101.812 174.362 102.112C174.854 102.412 175.406 102.562 176.018 102.562ZM183.037 107.566V94.2635H184.675V96.3515L184.459 95.9375C184.819 95.3615 185.311 94.9055 185.935 94.5695C186.559 94.2215 187.273 94.0475 188.077 94.0475C188.989 94.0475 189.805 94.2695 190.525 94.7135C191.257 95.1575 191.833 95.7635 192.253 96.5315C192.673 97.2875 192.883 98.1515 192.883 99.1235C192.883 100.072 192.673 100.93 192.253 101.698C191.833 102.466 191.257 103.072 190.525 103.516C189.805 103.96 188.983 104.182 188.059 104.182C187.279 104.182 186.565 104.008 185.917 103.66C185.281 103.312 184.789 102.82 184.441 102.184L184.711 101.896V107.566H183.037ZM187.933 102.562C188.545 102.562 189.091 102.412 189.571 102.112C190.051 101.812 190.423 101.404 190.687 100.888C190.963 100.36 191.101 99.7715 191.101 99.1235C191.101 98.4515 190.963 97.8635 190.687 97.3595C190.423 96.8435 190.051 96.4355 189.571 96.1355C189.091 95.8235 188.545 95.6675 187.933 95.6675C187.321 95.6675 186.769 95.8175 186.277 96.1175C185.797 96.4175 185.413 96.8315 185.125 97.3595C184.849 97.8755 184.711 98.4635 184.711 99.1235C184.711 99.7715 184.849 100.36 185.125 100.888C185.413 101.404 185.797 101.812 186.277 102.112C186.769 102.412 187.321 102.562 187.933 102.562ZM199.56 104.182C198.624 104.182 197.778 103.966 197.022 103.534C196.266 103.09 195.666 102.484 195.222 101.716C194.778 100.948 194.556 100.078 194.556 99.1055C194.556 98.1335 194.772 97.2695 195.204 96.5135C195.648 95.7575 196.248 95.1575 197.004 94.7135C197.76 94.2695 198.612 94.0475 199.56 94.0475C200.496 94.0475 201.342 94.2695 202.098 94.7135C202.854 95.1455 203.448 95.7395 203.88 96.4955C204.324 97.2515 204.546 98.1215 204.546 99.1055C204.546 100.09 204.318 100.966 203.862 101.734C203.406 102.49 202.8 103.09 202.044 103.534C201.3 103.966 200.472 104.182 199.56 104.182ZM199.56 102.562C200.16 102.562 200.7 102.412 201.18 102.112C201.672 101.812 202.056 101.398 202.332 100.87C202.62 100.342 202.764 99.7535 202.764 99.1055C202.764 98.4455 202.62 97.8635 202.332 97.3595C202.056 96.8435 201.672 96.4355 201.18 96.1355C200.7 95.8235 200.16 95.6675 199.56 95.6675C198.948 95.6675 198.396 95.8235 197.904 96.1355C197.424 96.4355 197.04 96.8435 196.752 97.3595C196.464 97.8635 196.32 98.4455 196.32 99.1055C196.32 99.7535 196.464 100.342 196.752 100.87C197.04 101.398 197.424 101.812 197.904 102.112C198.396 102.412 198.948 102.562 199.56 102.562ZM206.603 103.966V94.2635H208.241V96.0455L208.061 95.7935C208.289 95.2415 208.637 94.8335 209.105 94.5695C209.573 94.2935 210.143 94.1555 210.815 94.1555H211.409V95.7395H210.563C209.879 95.7395 209.327 95.9555 208.907 96.3875C208.487 96.8075 208.277 97.4075 208.277 98.1875V103.966H206.603ZM216.8 104.074C215.852 104.074 215.12 103.804 214.604 103.264C214.1 102.724 213.848 101.962 213.848 100.978V95.8655H212.084V94.2635H212.444C212.876 94.2635 213.218 94.1315 213.47 93.8675C213.722 93.6035 213.848 93.2555 213.848 92.8235V92.0315H215.522V94.2635H217.7V95.8655H215.522V100.924C215.522 101.248 215.57 101.53 215.666 101.77C215.774 102.01 215.948 102.202 216.188 102.346C216.428 102.478 216.746 102.544 217.142 102.544C217.226 102.544 217.328 102.538 217.448 102.526C217.58 102.514 217.7 102.502 217.808 102.49V103.966C217.652 104.002 217.478 104.026 217.286 104.038C217.094 104.062 216.932 104.074 216.8 104.074ZM226.58 104.182C225.824 104.182 225.152 104.044 224.564 103.768C223.976 103.48 223.514 103.078 223.178 102.562C222.854 102.034 222.692 101.428 222.692 100.744C222.692 100.156 222.8 99.6395 223.016 99.1955C223.232 98.7395 223.496 98.3495 223.808 98.0255C224.132 97.7015 224.456 97.4315 224.78 97.2155C225.116 96.9875 225.392 96.8075 225.608 96.6755L226.634 96.0815C226.982 95.8775 227.318 95.6555 227.642 95.4155C227.966 95.1755 228.236 94.8995 228.452 94.5875C228.668 94.2635 228.776 93.9035 228.776 93.5075C228.776 93.0395 228.62 92.6495 228.308 92.3375C227.996 92.0255 227.606 91.8695 227.138 91.8695C226.67 91.8695 226.28 92.0255 225.968 92.3375C225.656 92.6495 225.5 93.0455 225.5 93.5255C225.5 93.8495 225.578 94.1675 225.734 94.4795C225.89 94.7915 226.082 95.0915 226.31 95.3795C226.538 95.6555 226.766 95.9135 226.994 96.1535L234.284 103.966H232.07L225.68 97.2335C225.392 96.9335 225.104 96.6035 224.816 96.2435C224.528 95.8835 224.282 95.4875 224.078 95.0555C223.886 94.6115 223.79 94.1255 223.79 93.5975C223.79 92.9495 223.94 92.3855 224.24 91.9055C224.552 91.4135 224.96 91.0295 225.464 90.7535C225.968 90.4775 226.526 90.3395 227.138 90.3395C227.738 90.3395 228.284 90.4775 228.776 90.7535C229.28 91.0175 229.682 91.3895 229.982 91.8695C230.282 92.3495 230.432 92.9015 230.432 93.5255C230.432 94.1615 230.282 94.7195 229.982 95.1995C229.682 95.6675 229.322 96.0695 228.902 96.4055C228.482 96.7295 228.086 96.9995 227.714 97.2155L226.706 97.8275C226.406 98.0195 226.088 98.2475 225.752 98.5115C225.416 98.7635 225.128 99.0695 224.888 99.4295C224.648 99.7775 224.528 100.204 224.528 100.708C224.528 101.308 224.72 101.776 225.104 102.112C225.5 102.448 226.01 102.616 226.634 102.616C227.03 102.616 227.384 102.55 227.696 102.418C228.008 102.286 228.284 102.112 228.524 101.896C228.776 101.68 228.998 101.446 229.19 101.194C229.382 100.93 229.562 100.672 229.73 100.42L231.8 97.3415H233.726L231.296 101.05C231.116 101.35 230.888 101.68 230.612 102.04C230.336 102.4 230.012 102.742 229.64 103.066C229.268 103.39 228.83 103.66 228.326 103.876C227.834 104.08 227.252 104.182 226.58 104.182ZM239.482 103.966V90.5555H241.246V103.966H239.482ZM243.904 103.966V94.2635H245.542V96.1535L245.272 95.9915C245.512 95.3795 245.896 94.9055 246.424 94.5695C246.964 94.2215 247.594 94.0475 248.314 94.0475C249.01 94.0475 249.628 94.2035 250.168 94.5155C250.72 94.8275 251.152 95.2595 251.464 95.8115C251.788 96.3635 251.95 96.9875 251.95 97.6835V103.966H250.258V98.2235C250.258 97.6835 250.162 97.2275 249.97 96.8555C249.778 96.4835 249.502 96.1955 249.142 95.9915C248.794 95.7755 248.392 95.6675 247.936 95.6675C247.48 95.6675 247.072 95.7755 246.712 95.9915C246.364 96.1955 246.088 96.4895 245.884 96.8735C245.68 97.2455 245.578 97.6955 245.578 98.2235V103.966H243.904ZM255.246 103.966V95.8655H253.392V94.2635H255.246V93.5795C255.246 92.8835 255.396 92.2955 255.696 91.8155C256.008 91.3355 256.416 90.9695 256.92 90.7175C257.436 90.4655 258.006 90.3395 258.63 90.3395C258.762 90.3395 258.906 90.3515 259.062 90.3755C259.23 90.3875 259.368 90.4055 259.476 90.4295V91.9235C259.38 91.8995 259.266 91.8875 259.134 91.8875C259.002 91.8755 258.9 91.8695 258.828 91.8695C258.276 91.8695 257.82 92.0015 257.46 92.2655C257.112 92.5295 256.938 92.9675 256.938 93.5795V94.2635H259.242V95.8655H256.938V103.966H255.246ZM265.399 104.182C264.463 104.182 263.617 103.966 262.861 103.534C262.105 103.09 261.505 102.484 261.061 101.716C260.617 100.948 260.395 100.078 260.395 99.1055C260.395 98.1335 260.611 97.2695 261.043 96.5135C261.487 95.7575 262.087 95.1575 262.843 94.7135C263.599 94.2695 264.451 94.0475 265.399 94.0475C266.335 94.0475 267.181 94.2695 267.937 94.7135C268.693 95.1455 269.287 95.7395 269.719 96.4955C270.163 97.2515 270.385 98.1215 270.385 99.1055C270.385 100.09 270.157 100.966 269.701 101.734C269.245 102.49 268.639 103.09 267.883 103.534C267.139 103.966 266.311 104.182 265.399 104.182ZM265.399 102.562C265.999 102.562 266.539 102.412 267.019 102.112C267.511 101.812 267.895 101.398 268.171 100.87C268.459 100.342 268.603 99.7535 268.603 99.1055C268.603 98.4455 268.459 97.8635 268.171 97.3595C267.895 96.8435 267.511 96.4355 267.019 96.1355C266.539 95.8235 265.999 95.6675 265.399 95.6675C264.787 95.6675 264.235 95.8235 263.743 96.1355C263.263 96.4355 262.879 96.8435 262.591 97.3595C262.303 97.8635 262.159 98.4455 262.159 99.1055C262.159 99.7535 262.303 100.342 262.591 100.87C262.879 101.398 263.263 101.812 263.743 102.112C264.235 102.412 264.787 102.562 265.399 102.562Z" fill="#FDFDFD"/>
<rect x="145" y="139.966" width="342" height="399" rx="20" fill="#242424"/>
<g clip-path="url(#clip3_590_2358)">
<path d="M376.909 179.188V181.57C376.909 182.957 376.909 183.686 376.679 184.326C376.661 184.361 376.661 184.379 376.643 184.414C376.572 184.592 376.483 184.77 376.359 184.93C376.058 185.374 375.579 185.854 374.834 186.601L366.568 194.886C365.877 195.579 365.415 196.041 364.99 196.343C364.901 196.414 364.83 196.468 364.741 196.503C364.635 196.592 364.511 196.646 364.387 196.699C363.73 196.966 363.003 196.966 361.549 196.966H359.172C352.485 196.966 349.133 196.966 347.058 194.886C345.195 193.019 345 190.139 345 184.77H351.598C354.312 184.77 356.529 182.548 356.529 179.81C356.529 177.57 355.057 175.739 352.911 175.188C352.077 174.974 351.226 174.886 350.392 174.779C349.186 174.619 347.927 174.246 347.022 173.428C346.064 172.557 345.55 171.188 345.55 169.908V169.819C345.603 167.134 347.802 164.966 350.499 164.966H355.944C356.068 164.966 356.174 164.966 356.299 164.983H356.458C357.292 164.966 358.196 164.966 359.172 164.966H362.719C369.406 164.966 372.759 164.966 374.834 167.046C376.909 169.126 376.909 172.486 376.909 179.188Z" fill="url(#paint4_linear_590_2358)"/>
<path d="M376.679 184.326C376.661 184.361 376.661 184.379 376.643 184.414C376.572 184.592 376.483 184.77 376.359 184.93C376.058 185.374 375.579 185.854 374.834 186.601L366.568 194.886C365.877 195.579 365.415 196.041 364.99 196.343C364.901 196.414 364.83 196.468 364.741 196.503C364.67 196.503 364.635 196.521 364.6 196.539V194.672C364.6 189.801 364.6 187.366 366.125 185.837C367.633 184.326 370.063 184.326 374.923 184.326H376.679Z" fill="#0050B3"/>
</g>
<path d="M389.979 179.146C389.279 179.146 388.629 179.016 388.029 178.756C387.429 178.486 386.919 178.121 386.499 177.661C386.079 177.201 385.769 176.671 385.569 176.071L387.069 175.441C387.339 176.131 387.734 176.661 388.254 177.031C388.774 177.401 389.374 177.586 390.054 177.586C390.454 177.586 390.804 177.526 391.104 177.406C391.404 177.276 391.634 177.096 391.794 176.866C391.964 176.636 392.049 176.371 392.049 176.071C392.049 175.661 391.934 175.336 391.704 175.096C391.474 174.856 391.134 174.666 390.684 174.526L388.584 173.866C387.744 173.606 387.104 173.211 386.664 172.681C386.224 172.141 386.004 171.511 386.004 170.791C386.004 170.161 386.159 169.611 386.469 169.141C386.779 168.661 387.204 168.286 387.744 168.016C388.294 167.746 388.919 167.611 389.619 167.611C390.289 167.611 390.899 167.731 391.449 167.971C391.999 168.201 392.469 168.521 392.859 168.931C393.259 169.341 393.549 169.816 393.729 170.356L392.259 171.001C392.039 170.411 391.694 169.956 391.224 169.636C390.764 169.316 390.229 169.156 389.619 169.156C389.249 169.156 388.924 169.221 388.644 169.351C388.364 169.471 388.144 169.651 387.984 169.891C387.834 170.121 387.759 170.391 387.759 170.701C387.759 171.061 387.874 171.381 388.104 171.661C388.334 171.941 388.684 172.151 389.154 172.291L391.104 172.906C391.994 173.176 392.664 173.566 393.114 174.076C393.564 174.576 393.789 175.201 393.789 175.951C393.789 176.571 393.624 177.121 393.294 177.601C392.974 178.081 392.529 178.461 391.959 178.741C391.389 179.011 390.729 179.146 389.979 179.146ZM399.121 179.056C398.271 179.056 397.611 178.816 397.141 178.336C396.671 177.856 396.436 177.181 396.436 176.311V172.381H395.011V170.851H395.236C395.616 170.851 395.911 170.741 396.121 170.521C396.331 170.301 396.436 170.001 396.436 169.621V168.991H398.131V170.851H399.976V172.381H398.131V176.236C398.131 176.516 398.176 176.756 398.266 176.956C398.356 177.146 398.501 177.296 398.701 177.406C398.901 177.506 399.161 177.556 399.481 177.556C399.561 177.556 399.651 177.551 399.751 177.541C399.851 177.531 399.946 177.521 400.036 177.511V178.966C399.896 178.986 399.741 179.006 399.571 179.026C399.401 179.046 399.251 179.056 399.121 179.056ZM401.69 178.966V170.851H403.385V178.966H401.69ZM401.69 169.741V167.791H403.385V169.741H401.69ZM409.222 179.146C408.412 179.146 407.692 178.961 407.062 178.591C406.442 178.211 405.947 177.701 405.577 177.061C405.217 176.421 405.037 175.696 405.037 174.886C405.037 174.086 405.217 173.366 405.577 172.726C405.937 172.086 406.432 171.586 407.062 171.226C407.692 170.856 408.412 170.671 409.222 170.671C409.772 170.671 410.287 170.771 410.767 170.971C411.247 171.161 411.662 171.426 412.012 171.766C412.372 172.106 412.637 172.501 412.807 172.951L411.322 173.641C411.152 173.221 410.877 172.886 410.497 172.636C410.127 172.376 409.702 172.246 409.222 172.246C408.762 172.246 408.347 172.361 407.977 172.591C407.617 172.811 407.332 173.126 407.122 173.536C406.912 173.936 406.807 174.391 406.807 174.901C406.807 175.411 406.912 175.871 407.122 176.281C407.332 176.681 407.617 176.996 407.977 177.226C408.347 177.456 408.762 177.571 409.222 177.571C409.712 177.571 410.137 177.446 410.497 177.196C410.867 176.936 411.142 176.591 411.322 176.161L412.807 176.866C412.647 177.296 412.387 177.686 412.027 178.036C411.677 178.376 411.262 178.646 410.782 178.846C410.302 179.046 409.782 179.146 409.222 179.146ZM414.464 178.966V167.611H416.159V175.216L415.499 175.051L419.564 170.851H421.679L418.619 174.106L421.814 178.966H419.864L417.014 174.661L418.019 174.526L415.619 177.076L416.159 175.951V178.966H414.464ZM426.743 179.146C425.963 179.146 425.248 178.961 424.598 178.591C423.958 178.221 423.448 177.716 423.068 177.076C422.688 176.436 422.498 175.711 422.498 174.901C422.498 174.081 422.688 173.356 423.068 172.726C423.448 172.086 423.958 171.586 424.598 171.226C425.238 170.856 425.953 170.671 426.743 170.671C427.543 170.671 428.258 170.856 428.888 171.226C429.528 171.586 430.033 172.086 430.403 172.726C430.783 173.356 430.973 174.081 430.973 174.901C430.973 175.721 430.783 176.451 430.403 177.091C430.023 177.731 429.513 178.236 428.873 178.606C428.233 178.966 427.523 179.146 426.743 179.146ZM426.743 177.571C427.223 177.571 427.648 177.456 428.018 177.226C428.388 176.996 428.678 176.681 428.888 176.281C429.108 175.871 429.218 175.411 429.218 174.901C429.218 174.391 429.108 173.936 428.888 173.536C428.678 173.136 428.388 172.821 428.018 172.591C427.648 172.361 427.223 172.246 426.743 172.246C426.273 172.246 425.848 172.361 425.468 172.591C425.098 172.821 424.803 173.136 424.583 173.536C424.373 173.936 424.268 174.391 424.268 174.901C424.268 175.411 424.373 175.871 424.583 176.281C424.803 176.681 425.098 176.996 425.468 177.226C425.848 177.456 426.273 177.571 426.743 177.571Z" fill="#FDFDFD"/>
<path d="M385.966 194.966V186.238H389.017C389.625 186.238 390.127 186.343 390.521 186.554C390.916 186.761 391.21 187.041 391.403 187.393C391.597 187.743 391.693 188.13 391.693 188.556C391.693 188.931 391.627 189.241 391.493 189.485C391.362 189.73 391.189 189.923 390.973 190.065C390.76 190.207 390.528 190.312 390.278 190.38V190.466C390.546 190.483 390.814 190.576 391.084 190.747C391.354 190.917 391.58 191.162 391.761 191.48C391.943 191.798 392.034 192.187 392.034 192.647C392.034 193.085 391.935 193.478 391.736 193.828C391.537 194.177 391.223 194.454 390.794 194.659C390.365 194.863 389.807 194.966 389.119 194.966H385.966ZM387.023 194.028H389.119C389.81 194.028 390.3 193.894 390.59 193.627C390.882 193.358 391.028 193.031 391.028 192.647C391.028 192.352 390.953 192.079 390.803 191.829C390.652 191.576 390.438 191.375 390.159 191.224C389.881 191.071 389.551 190.994 389.171 190.994H387.023V194.028ZM387.023 190.073H388.983C389.301 190.073 389.588 190.011 389.844 189.886C390.102 189.761 390.307 189.585 390.457 189.358C390.611 189.13 390.688 188.863 390.688 188.556C390.688 188.173 390.554 187.848 390.287 187.581C390.02 187.311 389.597 187.176 389.017 187.176H387.023L387.023 190.073ZM394.282 197.42C394.112 197.42 393.96 197.406 393.826 197.377C393.693 197.352 393.6 197.326 393.549 197.301L393.805 196.414C394.049 196.477 394.265 196.5 394.453 196.483C394.64 196.466 394.806 196.382 394.951 196.231C395.099 196.083 395.234 195.843 395.356 195.511L395.543 195L393.123 188.42H394.214L396.021 193.636H396.089L397.896 188.42H398.987L396.208 195.92C396.083 196.258 395.928 196.538 395.744 196.76C395.559 196.984 395.345 197.15 395.1 197.258C394.859 197.366 394.586 197.42 394.282 197.42ZM403.825 194.966V186.238H409.058V187.176H404.882V190.125H408.666V191.062H404.882V194.966H403.825ZM410.732 194.966V188.42H411.738V194.966H410.732ZM411.243 187.329C411.047 187.329 410.878 187.262 410.736 187.129C410.597 186.995 410.527 186.835 410.527 186.647C410.527 186.46 410.597 186.299 410.736 186.166C410.878 186.032 411.047 185.966 411.243 185.966C411.439 185.966 411.607 186.032 411.746 186.166C411.888 186.299 411.959 186.46 411.959 186.647C411.959 186.835 411.888 186.995 411.746 187.129C411.607 187.262 411.439 187.329 411.243 187.329ZM414.33 188.42L415.898 191.096L417.466 188.42H418.625L416.511 191.693L418.625 194.966H417.466L415.898 192.426L414.33 194.966H413.171L415.25 191.693L413.171 188.42H414.33ZM422.535 195.102C421.904 195.102 421.36 194.963 420.903 194.684C420.448 194.403 420.097 194.011 419.85 193.508C419.606 193.002 419.484 192.414 419.484 191.744C419.484 191.073 419.606 190.483 419.85 189.971C420.097 189.457 420.441 189.056 420.881 188.769C421.325 188.48 421.842 188.335 422.433 188.335C422.774 188.335 423.11 188.392 423.443 188.505C423.775 188.619 424.078 188.804 424.35 189.059C424.623 189.312 424.84 189.647 425.002 190.065C425.164 190.483 425.245 190.997 425.245 191.608V192.034H420.2V191.164H424.222C424.222 190.795 424.149 190.466 424.001 190.176C423.856 189.886 423.649 189.657 423.379 189.49C423.112 189.322 422.796 189.238 422.433 189.238C422.032 189.238 421.685 189.338 421.393 189.537C421.103 189.733 420.88 189.988 420.724 190.304C420.568 190.619 420.489 190.957 420.489 191.318V191.897C420.489 192.392 420.575 192.811 420.745 193.154C420.918 193.495 421.158 193.755 421.465 193.934C421.772 194.11 422.129 194.198 422.535 194.198C422.799 194.198 423.038 194.162 423.251 194.088C423.467 194.011 423.653 193.897 423.809 193.747C423.965 193.593 424.086 193.403 424.171 193.176L425.143 193.448C425.041 193.778 424.869 194.068 424.627 194.318C424.386 194.565 424.087 194.758 423.732 194.897C423.377 195.034 422.978 195.102 422.535 195.102ZM429.69 188.42V189.272H426.161V188.42H429.69ZM427.218 194.966V187.517C427.218 187.142 427.306 186.829 427.482 186.579C427.658 186.329 427.887 186.142 428.168 186.017C428.45 185.892 428.747 185.829 429.059 185.829C429.306 185.829 429.508 185.849 429.664 185.889C429.82 185.929 429.937 185.966 430.014 186L429.724 186.869C429.673 186.852 429.602 186.831 429.511 186.805C429.423 186.779 429.306 186.767 429.161 186.767C428.829 186.767 428.589 186.85 428.441 187.018C428.296 187.186 428.224 187.431 428.224 187.755V194.966H427.218ZM432.105 186.238V194.966H431.099V186.238H432.105ZM434.595 197.42C434.424 197.42 434.272 197.406 434.139 197.377C434.005 197.352 433.913 197.326 433.862 197.301L434.117 196.414C434.362 196.477 434.578 196.5 434.765 196.483C434.953 196.466 435.119 196.382 435.264 196.231C435.411 196.083 435.546 195.843 435.668 195.511L435.856 195L433.435 188.42H434.526L436.333 193.636H436.401L438.208 188.42H439.299L436.521 195.92C436.396 196.258 436.241 196.538 436.056 196.76C435.872 196.984 435.657 197.15 435.413 197.258C435.171 197.366 434.899 197.42 434.595 197.42Z" fill="#FDFDFD"/>
</g>
</g>
</g>
<defs>
<filter id="filter0_bd_590_2358" x="105.7" y="18.6655" width="405.6" height="557.6" filterUnits="userSpaceOnUse" color-interpolation-filters="sRGB">
<feFlood flood-opacity="0" result="BackgroundImageFix"/>
<feGaussianBlur in="BackgroundImageFix" stdDeviation="2.5"/>
<feComposite in2="SourceAlpha" operator="in" result="effect1_backgroundBlur_590_2358"/>
<feColorMatrix in="SourceAlpha" type="matrix" values="0 0 0 0 0 0 0 0 0 0 0 0 0 0 0 0 0 0 127 0" result="hardAlpha"/>
<feOffset dx="-7" dy="6"/>
<feGaussianBlur stdDeviation="7.15"/>
<feComposite in2="hardAlpha" operator="out"/>
<feColorMatrix type="matrix" values="0 0 0 0 0 0 0 0 0 0 0 0 0 0 0 0 0 0 0.05 0"/>
<feBlend mode="normal" in2="effect1_backgroundBlur_590_2358" result="effect2_dropShadow_590_2358"/>
<feBlend mode="normal" in="SourceGraphic" in2="effect2_dropShadow_590_2358" result="shape"/>
</filter>
<linearGradient id="paint0_linear_590_2358" x1="273.718" y1="111.115" x2="213.945" y2="69.3169" gradientUnits="userSpaceOnUse">
<stop stop-color="#0077FF"/>
<stop offset="1" stop-color="#2DC2FF"/>
</linearGradient>
<linearGradient id="paint1_linear_590_2358" x1="75.6737" y1="49.082" x2="49.9496" y2="55.3706" gradientUnits="userSpaceOnUse">
<stop stop-color="#0077FF"/>
<stop offset="1" stop-color="#2DC2FF"/>
</linearGradient>
<linearGradient id="paint2_linear_590_2358" x1="479.091" y1="61.9129" x2="448.734" y2="54.4959" gradientUnits="userSpaceOnUse">
<stop stop-color="#0077FF"/>
<stop offset="1" stop-color="#2DC2FF"/>
</linearGradient>
<linearGradient id="paint3_linear_590_2358" x1="447.091" y1="61.9129" x2="416.734" y2="54.4959" gradientUnits="userSpaceOnUse">
<stop stop-color="#0077FF"/>
<stop offset="1" stop-color="#2DC2FF"/>
</linearGradient>
<linearGradient id="paint4_linear_590_2358" x1="377.805" y1="175.788" x2="343.592" y2="184.127" gradientUnits="userSpaceOnUse">
<stop stop-color="#0077FF"/>
<stop offset="1" stop-color="#2DC2FF"/>
</linearGradient>
<clipPath id="clip0_590_2358">
<path d="M0 46.9655C0 29.2924 14.3269 14.9655 32 14.9655L470 14.9655C487.673 14.9655 502 29.2924 502 46.9655V248.178L0 248.178L0 46.9655Z" fill="white"/>
</clipPath>
<clipPath id="clip1_590_2358">
<rect width="24" height="24" fill="white" transform="translate(51 40.9655)"/>
</clipPath>
<clipPath id="clip2_590_2358">
<rect x="368" y="37.9655" width="30" height="30" rx="15" fill="white"/>
</clipPath>
<clipPath id="clip3_590_2358">
<rect width="31.9091" height="32" fill="white" transform="translate(345 164.966)"/>
</clipPath>
</defs>
</svg>
