<svg width="24" height="25" viewBox="0 0 24 25" fill="none" xmlns="http://www.w3.org/2000/svg">
<path fill-rule="evenodd" clip-rule="evenodd" d="M10.3243 20.606C10.8423 21.183 11.5073 21.5 12.1973 21.5H12.1983C12.8913 21.5 13.5593 21.183 14.0783 20.605C14.3563 20.298 14.8303 20.273 15.1373 20.55C15.4453 20.827 15.4703 21.302 15.1933 21.609C14.3853 22.506 13.3223 23 12.1983 23H12.1963C11.0753 22.999 10.0143 22.505 9.20935 21.608C8.93235 21.301 8.95735 20.826 9.26535 20.55C9.57335 20.272 10.0473 20.297 10.3243 20.606ZM12.2471 1.5C16.6921 1.5 19.6782 4.962 19.6782 8.195C19.6782 9.858 20.1011 10.563 20.5501 11.311C20.9941 12.049 21.4972 12.887 21.4972 14.471C21.1482 18.518 16.9231 18.848 12.2471 18.848C7.57115 18.848 3.34515 18.518 3.00014 14.535C2.99715 12.887 3.50015 12.049 3.94415 11.311L4.10089 11.0472C4.48682 10.3839 4.81615 9.66235 4.81615 8.195C4.81615 4.962 7.80215 1.5 12.2471 1.5ZM12.2471 3C8.75215 3 6.31615 5.738 6.31615 8.195C6.31615 10.274 5.73915 11.235 5.22915 12.083C4.82015 12.764 4.49715 13.302 4.49715 14.471C4.66415 16.357 5.90915 17.348 12.2471 17.348C18.5501 17.348 19.8341 16.313 20.0001 14.406C19.9971 13.302 19.6742 12.764 19.2652 12.083C18.7552 11.235 18.1781 10.274 18.1781 8.195C18.1781 5.738 15.7421 3 12.2471 3Z" fill="#0077FF"/>
</svg>
