<svg width="24" height="25" viewBox="0 0 24 25" fill="none" xmlns="http://www.w3.org/2000/svg">
<path fill-rule="evenodd" clip-rule="evenodd" d="M10.3242 20.606C10.8422 21.183 11.5072 21.5 12.1972 21.5H12.1982C12.8912 21.5 13.5592 21.183 14.0782 20.605C14.3562 20.298 14.8302 20.273 15.1372 20.55C15.4452 20.827 15.4702 21.302 15.1932 21.609C14.3852 22.506 13.3222 23 12.1982 23H12.1962C11.0752 22.999 10.0142 22.505 9.20923 21.608C8.93223 21.301 8.95723 20.826 9.26523 20.55C9.57323 20.272 10.0472 20.297 10.3242 20.606ZM12.247 1.5C16.692 1.5 19.678 4.962 19.678 8.195C19.678 9.858 20.101 10.563 20.55 11.311C20.994 12.049 21.497 12.887 21.497 14.471C21.148 18.518 16.923 18.848 12.247 18.848C7.57103 18.848 3.34503 18.518 3.00001 14.535C2.99703 12.887 3.50003 12.049 3.94403 11.311L4.10077 11.0472C4.4867 10.3839 4.81603 9.66235 4.81603 8.195C4.81603 4.962 7.80203 1.5 12.247 1.5ZM12.247 3C8.75203 3 6.31603 5.738 6.31603 8.195C6.31603 10.274 5.73903 11.235 5.22903 12.083C4.82003 12.764 4.49703 13.302 4.49703 14.471C4.66403 16.357 5.90903 17.348 12.247 17.348C18.55 17.348 19.834 16.313 20 14.406C19.997 13.302 19.674 12.764 19.265 12.083C18.755 11.235 18.178 10.274 18.178 8.195C18.178 5.738 15.742 3 12.247 3Z" fill="#0077FF"/>
</svg>
