<svg width="96" height="14" viewBox="0 0 96 14" fill="none" xmlns="http://www.w3.org/2000/svg">
<g clip-path="url(#clip0_592_2696)">
<g clip-path="url(#clip1_592_2696)">
<path d="M7.20006 11.6152L10.5201 13.6232C11.1281 13.9912 11.8721 13.4472 11.7121 12.7592L10.8321 8.98323L13.7681 6.43923C14.3041 5.97523 14.0161 5.09523 13.3121 5.03923L9.44806 4.71123L7.93606 1.14323C7.66406 0.495227 6.73606 0.495227 6.46406 1.14323L4.95206 4.70323L1.08806 5.03123C0.384058 5.08723 0.0960581 5.96723 0.632058 6.43123L3.56806 8.97523L2.68806 12.7512C2.52806 13.4392 3.27206 13.9832 3.88006 13.6152L7.20006 11.6152V11.6152Z" fill="#0077FF"/>
</g>
<g clip-path="url(#clip2_592_2696)">
<path d="M27.6 11.6152L30.92 13.6232C31.528 13.9912 32.272 13.4472 32.112 12.7592L31.232 8.98323L34.168 6.43923C34.704 5.97523 34.416 5.09523 33.712 5.03923L29.848 4.71123L28.336 1.14323C28.064 0.495227 27.136 0.495227 26.864 1.14323L25.352 4.70323L21.488 5.03123C20.784 5.08723 20.496 5.96723 21.032 6.43123L23.968 8.97523L23.088 12.7512C22.928 13.4392 23.672 13.9832 24.28 13.6152L27.6 11.6152V11.6152Z" fill="#0077FF"/>
</g>
<g clip-path="url(#clip3_592_2696)">
<path d="M47.9999 11.6152L51.3199 13.6232C51.9279 13.9912 52.6719 13.4472 52.5119 12.7592L51.6319 8.98323L54.5679 6.43923C55.1039 5.97523 54.8159 5.09523 54.1119 5.03923L50.2479 4.71123L48.7359 1.14323C48.4639 0.495227 47.5359 0.495227 47.2639 1.14323L45.7519 4.70323L41.8879 5.03123C41.1839 5.08723 40.8959 5.96723 41.4319 6.43123L44.3679 8.97523L43.4879 12.7512C43.3279 13.4392 44.0719 13.9832 44.6799 13.6152L47.9999 11.6152V11.6152Z" fill="#0077FF"/>
</g>
<g clip-path="url(#clip4_592_2696)">
<path d="M68.4003 11.6152L71.7203 13.6232C72.3283 13.9912 73.0723 13.4472 72.9123 12.7592L72.0323 8.98323L74.9683 6.43923C75.5043 5.97523 75.2163 5.09523 74.5123 5.03923L70.6483 4.71123L69.1363 1.14323C68.8643 0.495227 67.9363 0.495227 67.6643 1.14323L66.1523 4.70323L62.2883 5.03123C61.5843 5.08723 61.2963 5.96723 61.8323 6.43123L64.7683 8.97523L63.8883 12.7512C63.7283 13.4392 64.4723 13.9832 65.0803 13.6152L68.4003 11.6152V11.6152Z" fill="#0077FF"/>
</g>
<path d="M88.8456 11.6152L92.1656 13.6232C92.7736 13.9912 93.5176 13.4472 93.3576 12.7592L92.4776 8.98323L95.4136 6.43923C95.9496 5.97523 95.6616 5.09523 94.9576 5.03923L91.0936 4.71123L89.5816 1.14323C89.3096 0.495227 88.3816 0.495227 88.1096 1.14323L86.5976 4.70323L82.7336 5.03123C82.0296 5.08723 81.7416 5.96723 82.2776 6.43123L85.2136 8.97523L84.3336 12.7512C84.1736 13.4392 84.9176 13.9832 85.5256 13.6152L88.8456 11.6152V11.6152Z" fill="#0077FF"/>
</g>
<defs>
<clipPath id="clip0_592_2696">
<rect width="96" height="13.8" fill="white" transform="translate(0 0.199219)"/>
</clipPath>
<clipPath id="clip1_592_2696">
<rect width="14.4" height="13.8" fill="white" transform="translate(0 0.199219)"/>
</clipPath>
<clipPath id="clip2_592_2696">
<rect width="14.4" height="13.8" fill="white" transform="translate(20.3999 0.199219)"/>
</clipPath>
<clipPath id="clip3_592_2696">
<rect width="14.4" height="13.8" fill="white" transform="translate(40.7998 0.199219)"/>
</clipPath>
<clipPath id="clip4_592_2696">
<rect width="14.4" height="13.8" fill="white" transform="translate(61.2002 0.199219)"/>
</clipPath>
</defs>
</svg>
