<svg width="69" height="19" viewBox="0 0 69 19" fill="none" xmlns="http://www.w3.org/2000/svg">
<path d="M7.12741 18.1693C6.07089 18.1693 5.08983 17.9731 4.18424 17.5806C3.27865 17.1731 2.50889 16.6222 1.87498 15.9279C1.24107 15.2336 0.773177 14.4337 0.471313 13.5281L2.73529 12.5772C3.14281 13.6187 3.73899 14.4186 4.52383 14.9771C5.30868 15.5355 6.21427 15.8147 7.24061 15.8147C7.84433 15.8147 8.3726 15.7242 8.82539 15.5431C9.27819 15.3468 9.62533 15.0752 9.86682 14.728C10.1234 14.3809 10.2517 13.9809 10.2517 13.5281C10.2517 12.9093 10.0781 12.4188 9.73098 12.0565C9.38384 11.6943 8.87067 11.4075 8.19148 11.1962L5.02191 10.2001C3.75408 9.80764 2.78812 9.21146 2.12402 8.41152C1.45992 7.59649 1.12787 6.64562 1.12787 5.55891C1.12787 4.60804 1.36181 3.77791 1.8297 3.06853C2.29759 2.34406 2.93905 1.77807 3.75408 1.37055C4.58421 0.963035 5.52753 0.759277 6.58405 0.759277C7.5953 0.759277 8.51598 0.940395 9.34611 1.30263C10.1762 1.64978 10.8856 2.13276 11.4742 2.75158C12.078 3.3704 12.5157 4.08733 12.7874 4.90236L10.5687 5.87587C10.2366 4.98537 9.71589 4.29863 9.00651 3.81565C8.31222 3.33266 7.50474 3.09117 6.58405 3.09117C6.02561 3.09117 5.53508 3.18928 5.11247 3.38549C4.68986 3.56661 4.35781 3.83829 4.11632 4.20052C3.88992 4.54767 3.77672 4.95518 3.77672 5.42307C3.77672 5.96643 3.95029 6.44941 4.29744 6.87202C4.64458 7.29463 5.17284 7.61158 5.88222 7.82289L8.82539 8.75112C10.1687 9.15864 11.1799 9.74727 11.8591 10.517C12.5383 11.2717 12.8779 12.215 12.8779 13.347C12.8779 14.2828 12.6289 15.1129 12.1308 15.8374C11.6478 16.5618 10.9762 17.1354 10.1159 17.558C9.25555 17.9655 8.2594 18.1693 7.12741 18.1693Z" fill="#191919"/>
<path d="M20.9255 18.0334C19.6425 18.0334 18.6464 17.6712 17.937 16.9467C17.2276 16.2222 16.8729 15.2035 16.8729 13.8903V7.95873H14.7222V5.64947H15.0618C15.6353 5.64947 16.0806 5.48344 16.3975 5.15139C16.7145 4.81934 16.8729 4.36655 16.8729 3.79301V2.84214H19.4312V5.64947H22.2159V7.95873H19.4312V13.7772C19.4312 14.1998 19.4992 14.562 19.635 14.8639C19.7708 15.1506 19.9897 15.377 20.2916 15.5431C20.5934 15.694 20.9858 15.7695 21.4688 15.7695C21.5896 15.7695 21.7254 15.7619 21.8763 15.7468C22.0273 15.7317 22.1707 15.7166 22.3065 15.7015V17.8976C22.0952 17.9278 21.8612 17.958 21.6047 17.9881C21.3481 18.0183 21.1217 18.0334 20.9255 18.0334Z" fill="#191919"/>
<path d="M24.8031 17.8976V5.64947H27.3614V17.8976H24.8031ZM24.8031 3.97413V1.03095H27.3614V3.97413H24.8031Z" fill="#191919"/>
<path d="M36.1709 18.1693C34.9483 18.1693 33.8616 17.89 32.9108 17.3316C31.975 16.7581 31.2279 15.9883 30.6694 15.0223C30.1261 14.0564 29.8544 12.9621 29.8544 11.7396C29.8544 10.5321 30.1261 9.44541 30.6694 8.47944C31.2128 7.51348 31.9599 6.75882 32.9108 6.21546C33.8616 5.65702 34.9483 5.37779 36.1709 5.37779C37.001 5.37779 37.7783 5.52872 38.5028 5.83059C39.2273 6.11736 39.8536 6.51733 40.3819 7.0305C40.9252 7.54366 41.3252 8.13984 41.5818 8.81904L39.3405 9.86047C39.0839 9.22655 38.6688 8.72093 38.0953 8.3436C37.5368 7.95118 36.8954 7.75497 36.1709 7.75497C35.4766 7.75497 34.8502 7.92854 34.2918 8.27568C33.7484 8.60773 33.3183 9.08317 33.0013 9.70199C32.6844 10.3057 32.5259 10.9925 32.5259 11.7622C32.5259 12.532 32.6844 13.2262 33.0013 13.8451C33.3183 14.4488 33.7484 14.9242 34.2918 15.2714C34.8502 15.6185 35.4766 15.7921 36.1709 15.7921C36.9104 15.7921 37.5519 15.6034 38.0953 15.2261C38.6537 14.8337 39.0688 14.313 39.3405 13.664L41.5818 14.728C41.3403 15.377 40.9479 15.9657 40.4045 16.4939C39.8763 17.0071 39.2499 17.4146 38.5254 17.7165C37.8009 18.0183 37.0161 18.1693 36.1709 18.1693Z" fill="#191919"/>
<path d="M44.0822 17.8976V0.759277H46.6405V12.2376L45.6444 11.9886L51.7798 5.64947H54.972L50.3535 10.5623L55.1757 17.8976H52.2326L47.931 11.4L49.4479 11.1962L45.8255 15.045L46.6405 13.347V17.8976H44.0822Z" fill="#191919"/>
<path d="M62.6156 18.1693C61.4383 18.1693 60.3591 17.89 59.3781 17.3316C58.4121 16.7731 57.6423 16.0109 57.0688 15.045C56.4953 14.079 56.2085 12.9848 56.2085 11.7622C56.2085 10.5246 56.4953 9.43031 57.0688 8.47944C57.6423 7.51348 58.4121 6.75882 59.3781 6.21546C60.344 5.65702 61.4232 5.37779 62.6156 5.37779C63.823 5.37779 64.9022 5.65702 65.853 6.21546C66.819 6.75882 67.5812 7.51348 68.1397 8.47944C68.7132 9.43031 69 10.5246 69 11.7622C69 12.9999 68.7132 14.1017 68.1397 15.0676C67.5661 16.0336 66.7964 16.7958 65.8304 17.3542C64.8644 17.8976 63.7928 18.1693 62.6156 18.1693ZM62.6156 15.7921C63.34 15.7921 63.9815 15.6185 64.5399 15.2714C65.0984 14.9242 65.5361 14.4488 65.853 13.8451C66.1851 13.2262 66.3511 12.532 66.3511 11.7622C66.3511 10.9925 66.1851 10.3057 65.853 9.70199C65.5361 9.09826 65.0984 8.62283 64.5399 8.27568C63.9815 7.92854 63.34 7.75497 62.6156 7.75497C61.9062 7.75497 61.2647 7.92854 60.6912 8.27568C60.1327 8.62283 59.6875 9.09826 59.3554 9.70199C59.0385 10.3057 58.88 10.9925 58.88 11.7622C58.88 12.532 59.0385 13.2262 59.3554 13.8451C59.6875 14.4488 60.1327 14.9242 60.6912 15.2714C61.2647 15.6185 61.9062 15.7921 62.6156 15.7921Z" fill="#191919"/>
</svg>
