<svg width="221" height="100" viewBox="0 0 221 100" fill="none" xmlns="http://www.w3.org/2000/svg">
<g filter="url(#filter0_d_202_1011)">
<path d="M94.5804 38.6673C92.9839 38.6673 91.5014 38.3684 90.133 37.7705C88.7646 37.1496 87.6014 36.3102 86.6435 35.2524C85.6856 34.1946 84.9786 32.9758 84.5225 31.5961L87.9435 30.1474C88.5593 31.7341 89.4602 32.9528 90.6461 33.8037C91.8321 34.6545 93.2005 35.08 94.7514 35.08C95.6637 35.08 96.4619 34.942 97.1461 34.666C97.8304 34.3671 98.3549 33.9532 98.7198 33.4243C99.1075 32.8954 99.3014 32.286 99.3014 31.5961C99.3014 30.6533 99.0391 29.9059 98.5146 29.354C97.99 28.8021 97.2146 28.3652 96.1882 28.0432L91.3988 26.5255C89.483 25.9276 88.0233 25.0193 87.0198 23.8005C86.0163 22.5587 85.5146 21.11 85.5146 19.4543C85.5146 18.0055 85.8681 16.7408 86.5751 15.66C87.2821 14.5562 88.2514 13.6938 89.483 13.0729C90.7374 12.452 92.1628 12.1416 93.7593 12.1416C95.2874 12.1416 96.6786 12.4176 97.933 12.9695C99.1874 13.4984 100.259 14.2342 101.149 15.1771C102.061 16.1199 102.722 17.2122 103.133 18.454L99.7804 19.9372C99.2786 18.5804 98.4918 17.5341 97.4198 16.7983C96.3707 16.0624 95.1505 15.6945 93.7593 15.6945C92.9154 15.6945 92.1742 15.8439 91.5356 16.1429C90.897 16.4188 90.3953 16.8328 90.0304 17.3847C89.6882 17.9136 89.5172 18.5344 89.5172 19.2473C89.5172 20.0752 89.7795 20.811 90.304 21.4549C90.8286 22.0988 91.6268 22.5817 92.6988 22.9037L97.1461 24.3179C99.176 24.9388 100.704 25.8356 101.73 27.0084C102.757 28.1582 103.27 29.5955 103.27 31.3201C103.27 32.7459 102.894 34.0107 102.141 35.1145C101.411 36.2183 100.396 37.0921 99.0961 37.736C97.7961 38.3569 96.2909 38.6673 94.5804 38.6673Z" fill="#313B49"/>
<path d="M115.43 38.4604C113.492 38.4604 111.986 37.9084 110.915 36.8046C109.843 35.7008 109.307 34.1486 109.307 32.148V23.1106H106.057V19.5923H106.57C107.436 19.5923 108.109 19.3393 108.588 18.8334C109.067 18.3275 109.307 17.6376 109.307 16.7638V15.315H113.172V19.5923H117.38V23.1106H113.172V31.9755C113.172 32.6194 113.275 33.1713 113.48 33.6312C113.686 34.0681 114.016 34.4131 114.472 34.666C114.929 34.896 115.522 35.011 116.251 35.011C116.434 35.011 116.639 34.9995 116.867 34.9765C117.095 34.9535 117.312 34.9305 117.517 34.9075V38.2534C117.198 38.2994 116.844 38.3454 116.457 38.3914C116.069 38.4374 115.727 38.4604 115.43 38.4604Z" fill="#313B49"/>
<path d="M121.29 38.2534V19.5923H125.155V38.2534H121.29ZM121.29 17.0397V12.5555H125.155V17.0397H121.29Z" fill="#313B49"/>
<path d="M138.467 38.6673C136.62 38.6673 134.978 38.2419 133.541 37.391C132.127 36.5172 130.998 35.3444 130.154 33.8727C129.333 32.4009 128.923 30.7337 128.923 28.8711C128.923 27.0314 129.333 25.3757 130.154 23.904C130.975 22.4322 132.104 21.2825 133.541 20.4546C134.978 19.6038 136.62 19.1783 138.467 19.1783C139.722 19.1783 140.896 19.4083 141.991 19.8682C143.086 20.3051 144.032 20.9145 144.831 21.6964C145.652 22.4782 146.256 23.3866 146.644 24.4214L143.257 26.0081C142.869 25.0423 142.242 24.2719 141.375 23.697C140.531 23.0991 139.562 22.8002 138.467 22.8002C137.418 22.8002 136.472 23.0646 135.628 23.5935C134.807 24.0994 134.157 24.8238 133.678 25.7666C133.199 26.6865 132.959 27.7328 132.959 28.9056C132.959 30.0784 133.199 31.1362 133.678 32.079C134.157 32.9988 134.807 33.7232 135.628 34.2521C136.472 34.781 137.418 35.0455 138.467 35.0455C139.585 35.0455 140.554 34.758 141.375 34.1831C142.219 33.5852 142.846 32.7919 143.257 31.8031L146.644 33.4243C146.279 34.4131 145.686 35.3099 144.865 36.1148C144.066 36.8966 143.12 37.5175 142.025 37.9774C140.931 38.4374 139.745 38.6673 138.467 38.6673Z" fill="#313B49"/>
<path d="M150.422 38.2534V12.1416H154.288V29.6299L152.783 29.2505L162.054 19.5923H166.877L159.898 27.0774L167.185 38.2534H162.738L156.238 28.3537L158.53 28.0432L153.056 33.9072L154.288 31.3201V38.2534H150.422Z" fill="#313B49"/>
<path d="M178.427 38.6673C176.648 38.6673 175.018 38.2419 173.535 37.391C172.076 36.5402 170.912 35.3789 170.046 33.9072C169.179 32.4354 168.746 30.7682 168.746 28.9056C168.746 27.0199 169.179 25.3527 170.046 23.904C170.912 22.4322 172.076 21.2825 173.535 20.4546C174.995 19.6038 176.626 19.1783 178.427 19.1783C180.252 19.1783 181.883 19.6038 183.319 20.4546C184.779 21.2825 185.931 22.4322 186.775 23.904C187.641 25.3527 188.075 27.0199 188.075 28.9056C188.075 30.7912 187.641 32.4699 186.775 33.9417C185.908 35.4134 184.745 36.5747 183.285 37.4255C181.826 38.2534 180.206 38.6673 178.427 38.6673ZM178.427 35.0455C179.522 35.0455 180.491 34.781 181.335 34.2521C182.179 33.7232 182.841 32.9988 183.319 32.079C183.821 31.1362 184.072 30.0784 184.072 28.9056C184.072 27.7328 183.821 26.6865 183.319 25.7666C182.841 24.8468 182.179 24.1224 181.335 23.5935C180.491 23.0646 179.522 22.8002 178.427 22.8002C177.355 22.8002 176.386 23.0646 175.519 23.5935C174.676 24.1224 174.003 24.8468 173.501 25.7666C173.022 26.6865 172.783 27.7328 172.783 28.9056C172.783 30.0784 173.022 31.1362 173.501 32.079C174.003 32.9988 174.676 33.7232 175.519 34.2521C176.386 34.781 177.355 35.0455 178.427 35.0455Z" fill="#313B49"/>
</g>
<g filter="url(#filter1_d_202_1011)">
<path d="M84.5225 59.6658V45.4547H89.4252C90.4021 45.4547 91.2078 45.6259 91.8423 45.9682C92.4768 46.3059 92.9493 46.7616 93.2597 47.3352C93.5701 47.9042 93.7253 48.5356 93.7253 49.2295C93.7253 49.8402 93.6181 50.3444 93.4035 50.7422C93.1935 51.1401 92.9151 51.4546 92.5681 51.6859C92.2258 51.9172 91.8537 52.0884 91.452 52.1994V52.3382C91.8811 52.366 92.3125 52.5186 92.7462 52.7962C93.1798 53.0737 93.5428 53.4716 93.8349 53.9897C94.1271 54.5078 94.2731 55.1416 94.2731 55.891C94.2731 56.6034 94.1134 57.2441 93.7938 57.8131C93.4743 58.3821 92.9699 58.8331 92.2805 59.1662C91.5912 59.4992 90.6942 59.6658 89.5895 59.6658H84.5225ZM86.2206 58.1392H89.5895C90.6988 58.1392 91.4863 57.9218 91.9519 57.4869C92.4221 57.0475 92.6572 56.5155 92.6572 55.891C92.6572 55.4099 92.5362 54.9658 92.2942 54.5587C92.0523 54.147 91.7077 53.8185 91.2603 53.5733C90.8129 53.3235 90.2834 53.1986 89.6717 53.1986H86.2206V58.1392ZM86.2206 51.6998H89.3704C89.8817 51.6998 90.3427 51.598 90.7536 51.3945C91.169 51.191 91.4977 50.9041 91.7396 50.5341C91.9861 50.164 92.1094 49.7291 92.1094 49.2295C92.1094 48.605 91.8948 48.0753 91.4657 47.6405C91.0366 47.201 90.3564 46.9813 89.4252 46.9813H86.2206V51.6998Z" fill="#313B49"/>
<path d="M97.8851 63.6626C97.6112 63.6626 97.367 63.6395 97.1525 63.5932C96.9379 63.5516 96.7896 63.51 96.7074 63.4683L97.1182 62.025C97.5108 62.1268 97.8577 62.1638 98.159 62.1361C98.4603 62.1083 98.7274 61.9718 98.9602 61.7267C99.1975 61.4861 99.4144 61.0952 99.6107 60.554L99.912 59.7213L96.0226 49.0075H97.7756L100.679 57.5008H100.788L103.692 49.0075H105.445L100.98 61.2201C100.779 61.7706 100.531 62.2263 100.234 62.5871C99.9371 62.9525 99.5924 63.2232 99.1998 63.399C98.8118 63.5747 98.3736 63.6626 97.8851 63.6626Z" fill="#313B49"/>
<path d="M113.22 59.6658V45.4547H121.628V46.9813H114.918V51.7831H120.998V53.3097H114.918V59.6658H113.22Z" fill="#313B49"/>
<path d="M124.318 59.6658V49.0075H125.934V59.6658H124.318ZM125.139 47.2311C124.824 47.2311 124.553 47.1224 124.325 46.905C124.101 46.6875 123.989 46.4262 123.989 46.1209C123.989 45.8155 124.101 45.5542 124.325 45.3368C124.553 45.1193 124.824 45.0106 125.139 45.0106C125.454 45.0106 125.724 45.1193 125.947 45.3368C126.176 45.5542 126.29 45.8155 126.29 46.1209C126.29 46.4262 126.176 46.6875 125.947 46.905C125.724 47.1224 125.454 47.2311 125.139 47.2311Z" fill="#313B49"/>
<path d="M130.099 49.0075L132.618 53.3652L135.138 49.0075H137.001L133.605 54.3366L137.001 59.6658H135.138L132.618 55.5301L130.099 59.6658H128.236L131.578 54.3366L128.236 49.0075H130.099Z" fill="#313B49"/>
<path d="M143.283 59.8878C142.27 59.8878 141.396 59.6612 140.661 59.2078C139.93 58.7498 139.367 58.1114 138.969 57.2926C138.577 56.4692 138.381 55.5116 138.381 54.4199C138.381 53.3282 138.577 52.366 138.969 51.5333C139.367 50.696 139.919 50.0437 140.627 49.5765C141.339 49.1046 142.169 48.8687 143.119 48.8687C143.667 48.8687 144.208 48.9612 144.742 49.1463C145.276 49.3313 145.762 49.632 146.2 50.0483C146.639 50.46 146.988 51.0059 147.248 51.6859C147.508 52.366 147.638 53.2033 147.638 54.1979V54.8917H139.531V53.4762H145.995C145.995 52.8748 145.876 52.3382 145.639 51.8663C145.406 51.3945 145.073 51.0221 144.639 50.7492C144.21 50.4762 143.703 50.3398 143.119 50.3398C142.475 50.3398 141.918 50.5017 141.448 50.8255C140.983 51.1447 140.624 51.561 140.373 52.0745C140.122 52.588 139.997 53.1385 139.997 53.726V54.6697C139.997 55.4746 140.134 56.157 140.407 56.7167C140.686 57.2718 141.072 57.6951 141.565 57.9865C142.058 58.2734 142.631 58.4168 143.283 58.4168C143.708 58.4168 144.091 58.3566 144.434 58.2363C144.781 58.1114 145.08 57.9264 145.331 57.6812C145.582 57.4314 145.776 57.1215 145.913 56.7514L147.474 57.1955C147.31 57.7321 147.033 58.204 146.645 58.611C146.257 59.0135 145.778 59.3281 145.207 59.5548C144.637 59.7768 143.995 59.8878 143.283 59.8878Z" fill="#313B49"/>
<path d="M154.78 49.0075V50.3953H149.11V49.0075H154.78ZM150.809 59.6658V47.5364C150.809 46.9258 150.95 46.4169 151.233 46.0098C151.516 45.6027 151.884 45.2974 152.336 45.0939C152.787 44.8903 153.265 44.7886 153.767 44.7886C154.164 44.7886 154.488 44.821 154.739 44.8857C154.99 44.9505 155.177 45.0106 155.3 45.0661L154.835 46.4817C154.753 46.4539 154.639 46.4192 154.492 46.3776C154.351 46.336 154.164 46.3152 153.931 46.3152C153.397 46.3152 153.011 46.4516 152.774 46.7246C152.541 46.9975 152.425 47.3976 152.425 47.925V59.6658H150.809Z" fill="#313B49"/>
<path d="M158.661 45.4547V59.6658H157.045V45.4547H158.661Z" fill="#313B49"/>
<path d="M162.661 63.6626C162.388 63.6626 162.143 63.6395 161.929 63.5932C161.714 63.5516 161.566 63.51 161.484 63.4683L161.894 62.025C162.287 62.1268 162.634 62.1638 162.935 62.1361C163.237 62.1083 163.504 61.9718 163.736 61.7267C163.974 61.4861 164.191 61.0952 164.387 60.554L164.688 59.7213L160.799 49.0075H162.552L165.455 57.5008H165.565L168.468 49.0075H170.221L165.756 61.2201C165.556 61.7706 165.307 62.2263 165.01 62.5871C164.713 62.9525 164.369 63.2232 163.976 63.399C163.588 63.5747 163.15 63.6626 162.661 63.6626Z" fill="#313B49"/>
</g>
<g filter="url(#filter2_d_202_1011)">
<path d="M70.2396 34.473V39.4097C70.2396 42.2834 70.2396 43.7939 69.7604 45.1201C69.7235 45.1938 69.7235 45.2307 69.6866 45.3043C69.5392 45.6728 69.3549 46.0412 69.0969 46.3727C68.4702 47.2938 67.4749 48.2885 65.9268 49.8358L48.7492 67.0039C47.3116 68.4407 46.3532 69.3985 45.4685 70.0248C45.2842 70.1722 45.1367 70.2827 44.9524 70.3564C44.7312 70.5406 44.4732 70.6511 44.2152 70.7617C42.8513 71.3143 41.34 71.3143 38.3173 71.3143H33.3778C19.4809 71.3143 12.5141 71.3143 8.20126 67.0039C4.33077 63.1355 3.92529 57.1672 3.92529 46.0412H17.6379C23.2777 46.0412 27.8854 41.436 27.8854 35.7625C27.8854 31.1205 24.8259 27.3258 20.3656 26.1837C18.6331 25.7416 16.8638 25.5574 15.1313 25.3364C12.6247 25.0048 10.0075 24.2311 8.12753 22.5364C6.137 20.7312 5.06801 17.8944 5.06801 15.2419V15.0577C5.17859 9.49463 9.74945 5 15.3524 5H26.669C26.927 5 27.1482 5 27.4062 5.03684H27.738C29.4705 5 31.3504 5 33.3778 5H40.7502C54.6471 5 61.6139 5 65.9268 9.31043C70.2396 13.6209 70.2396 20.5839 70.2396 34.473Z" fill="url(#paint0_linear_202_1011)"/>
<path d="M69.7604 45.1201C69.7235 45.1938 69.7235 45.2307 69.6866 45.3043C69.5392 45.6728 69.3549 46.0412 69.0969 46.3727C68.4702 47.2938 67.4749 48.2885 65.9268 49.8358L48.7492 67.0039C47.3116 68.4407 46.3532 69.3985 45.4685 70.0248C45.2842 70.1722 45.1367 70.2827 44.9524 70.3564C44.805 70.3564 44.7312 70.3932 44.6575 70.4301V66.5618C44.6575 56.4672 44.6575 51.42 47.8276 48.2516C50.9609 45.1201 56.0109 45.1201 66.1111 45.1201H69.7604Z" fill="#0050B3"/>
</g>
<defs>
<filter id="filter0_d_202_1011" x="68.5225" y="0.141602" width="151.552" height="74.5256" filterUnits="userSpaceOnUse" color-interpolation-filters="sRGB">
<feFlood flood-opacity="0" result="BackgroundImageFix"/>
<feColorMatrix in="SourceAlpha" type="matrix" values="0 0 0 0 0 0 0 0 0 0 0 0 0 0 0 0 0 0 127 0" result="hardAlpha"/>
<feOffset dx="8" dy="12"/>
<feGaussianBlur stdDeviation="12"/>
<feColorMatrix type="matrix" values="0 0 0 0 0 0 0 0 0 0 0 0 0 0 0 0 0 0 0.05 0"/>
<feBlend mode="normal" in2="BackgroundImageFix" result="effect1_dropShadow_202_1011"/>
<feBlend mode="normal" in="SourceGraphic" in2="effect1_dropShadow_202_1011" result="shape"/>
</filter>
<filter id="filter1_d_202_1011" x="68.5225" y="32.7886" width="133.698" height="66.874" filterUnits="userSpaceOnUse" color-interpolation-filters="sRGB">
<feFlood flood-opacity="0" result="BackgroundImageFix"/>
<feColorMatrix in="SourceAlpha" type="matrix" values="0 0 0 0 0 0 0 0 0 0 0 0 0 0 0 0 0 0 127 0" result="hardAlpha"/>
<feOffset dx="8" dy="12"/>
<feGaussianBlur stdDeviation="12"/>
<feColorMatrix type="matrix" values="0 0 0 0 0 0 0 0 0 0 0 0 0 0 0 0 0 0 0.05 0"/>
<feBlend mode="normal" in2="BackgroundImageFix" result="effect1_dropShadow_202_1011"/>
<feBlend mode="normal" in="SourceGraphic" in2="effect1_dropShadow_202_1011" result="shape"/>
</filter>
<filter id="filter2_d_202_1011" x="0.325293" y="3.4" width="83.5145" height="83.5142" filterUnits="userSpaceOnUse" color-interpolation-filters="sRGB">
<feFlood flood-opacity="0" result="BackgroundImageFix"/>
<feColorMatrix in="SourceAlpha" type="matrix" values="0 0 0 0 0 0 0 0 0 0 0 0 0 0 0 0 0 0 127 0" result="hardAlpha"/>
<feOffset dx="5" dy="7"/>
<feGaussianBlur stdDeviation="4.3"/>
<feComposite in2="hardAlpha" operator="out"/>
<feColorMatrix type="matrix" values="0 0 0 0 0 0 0 0 0 0 0 0 0 0 0 0 0 0 0.1 0"/>
<feBlend mode="normal" in2="BackgroundImageFix" result="effect1_dropShadow_202_1011"/>
<feBlend mode="normal" in="SourceGraphic" in2="effect1_dropShadow_202_1011" result="shape"/>
</filter>
<linearGradient id="paint0_linear_202_1011" x1="72.1011" y1="27.4268" x2="1.02283" y2="44.8027" gradientUnits="userSpaceOnUse">
<stop stop-color="#0077FF"/>
<stop offset="1" stop-color="#2DC2FF"/>
</linearGradient>
</defs>
</svg>
