<svg width="110" height="29" viewBox="0 0 110 29" fill="none" xmlns="http://www.w3.org/2000/svg">
<path d="M10.8643 28.5067C9.18104 28.5067 7.61801 28.1941 6.17522 27.5689C4.73242 26.9197 3.50605 26.042 2.4961 24.9358C1.48614 23.8297 0.740697 22.5552 0.259766 21.1124L3.86675 19.5975C4.51601 21.2567 5.46584 22.5312 6.71627 23.4209C7.96669 24.3106 9.40948 24.7555 11.0446 24.7555C12.0065 24.7555 12.8481 24.6112 13.5695 24.3226C14.2909 24.01 14.844 23.5772 15.2287 23.0241C15.6375 22.4711 15.8419 21.8338 15.8419 21.1124C15.8419 20.1265 15.5654 19.345 15.0123 18.7679C14.4593 18.1908 13.6417 17.7339 12.5596 17.3972L7.5098 15.8102C5.48989 15.185 3.95091 14.2351 2.89286 12.9606C1.83481 11.6621 1.30579 10.1472 1.30579 8.41585C1.30579 6.90091 1.67851 5.57835 2.42396 4.44817C3.1694 3.29393 4.19138 2.39219 5.48989 1.74293C6.81245 1.09367 8.31536 0.769043 9.99862 0.769043C11.6097 0.769043 13.0766 1.0576 14.3991 1.63472C15.7217 2.18779 16.8519 2.95728 17.7897 3.94319C18.7516 4.9291 19.4489 6.07131 19.8818 7.36982L16.3469 8.92083C15.8179 7.50208 14.9883 6.40796 13.8581 5.63847C12.752 4.86898 11.4655 4.48424 9.99862 4.48424C9.1089 4.48424 8.32738 4.64054 7.65408 4.95314C6.98078 5.2417 6.45175 5.67454 6.06701 6.25166C5.70631 6.80473 5.52596 7.45399 5.52596 8.19943C5.52596 9.0651 5.8025 9.83459 6.35557 10.5079C6.90864 11.1812 7.75027 11.6862 8.88046 12.0228L13.5695 13.5017C15.7097 14.151 17.3208 15.0888 18.4029 16.3151C19.485 17.5175 20.026 19.0204 20.026 20.8239C20.026 22.3148 19.6293 23.6373 18.8357 24.7916C18.0662 25.9458 16.9962 26.8596 15.6255 27.5329C14.2549 28.1821 12.6678 28.5067 10.8643 28.5067Z" fill="#191919"/>
<path d="M32.8474 28.2903C30.8035 28.2903 29.2164 27.7132 28.0862 26.559C26.956 25.4047 26.3909 23.7816 26.3909 21.6895V12.2393H22.9643V8.56013H23.5054C24.4191 8.56013 25.1285 8.29562 25.6335 7.76659C26.1385 7.23757 26.3909 6.51617 26.3909 5.6024V4.08747H30.4668V8.56013H34.9034V12.2393H30.4668V21.5092C30.4668 22.1825 30.575 22.7596 30.7915 23.2405C31.0079 23.6974 31.3566 24.0581 31.8375 24.3226C32.3184 24.5631 32.9436 24.6833 33.7131 24.6833C33.9055 24.6833 34.1219 24.6713 34.3624 24.6473C34.6028 24.6232 34.8313 24.5992 35.0477 24.5751V28.0739C34.7111 28.122 34.3383 28.1701 33.9295 28.2182C33.5208 28.2663 33.1601 28.2903 32.8474 28.2903Z" fill="#191919"/>
<path d="M39.0253 28.0739V8.56013H43.1011V28.0739H39.0253ZM39.0253 5.89096V1.20188H43.1011V5.89096H39.0253Z" fill="#191919"/>
<path d="M57.1365 28.5067C55.1888 28.5067 53.4574 28.0619 51.9425 27.1722C50.4516 26.2584 49.2613 25.032 48.3716 23.493C47.5059 21.9541 47.0731 20.2107 47.0731 18.2629C47.0731 16.3392 47.5059 14.6078 48.3716 13.0689C49.2372 11.5299 50.4275 10.3275 51.9425 9.46187C53.4574 8.57215 55.1888 8.12729 57.1365 8.12729C58.4591 8.12729 59.6975 8.36775 60.8517 8.84868C62.006 9.30557 63.0039 9.9428 63.8455 10.7604C64.7112 11.578 65.3484 12.5278 65.7572 13.6099L62.1863 15.2691C61.7775 14.2592 61.1162 13.4536 60.2025 12.8524C59.3127 12.2272 58.2908 11.9146 57.1365 11.9146C56.0304 11.9146 55.0325 12.1912 54.1427 12.7442C53.2771 13.2733 52.5917 14.0307 52.0868 15.0166C51.5818 15.9785 51.3293 17.0726 51.3293 18.299C51.3293 19.5254 51.5818 20.6315 52.0868 21.6174C52.5917 22.5793 53.2771 23.3367 54.1427 23.8898C55.0325 24.4429 56.0304 24.7194 57.1365 24.7194C58.3148 24.7194 59.3368 24.4188 60.2025 23.8177C61.0922 23.1925 61.7535 22.3628 62.1863 21.3288L65.7572 23.0241C65.3725 24.0581 64.7473 24.9959 63.8816 25.8376C63.04 26.6552 62.042 27.3044 60.8878 27.7853C59.7336 28.2663 58.4831 28.5067 57.1365 28.5067Z" fill="#191919"/>
<path d="M69.741 28.0739V0.769043H73.8169V19.0564L72.2298 18.6597L82.0047 8.56013H87.0906L79.7323 16.3873L87.4152 28.0739H82.7261L75.8728 17.7219L78.2895 17.3972L72.5184 23.5291L73.8169 20.8239V28.0739H69.741Z" fill="#191919"/>
<path d="M99.2684 28.5067C97.3927 28.5067 95.6734 28.0619 94.1104 27.1722C92.5714 26.2824 91.345 25.0681 90.4312 23.5291C89.5175 21.9901 89.0606 20.2468 89.0606 18.299C89.0606 16.3272 89.5175 14.5838 90.4312 13.0689C91.345 11.5299 92.5714 10.3275 94.1104 9.46187C95.6493 8.57215 97.3687 8.12729 99.2684 8.12729C101.192 8.12729 102.911 8.57215 104.426 9.46187C105.965 10.3275 107.18 11.5299 108.069 13.0689C108.983 14.5838 109.44 16.3272 109.44 18.299C109.44 20.2708 108.983 22.0262 108.069 23.5652C107.156 25.1042 105.929 26.3185 104.39 27.2082C102.851 28.0739 101.144 28.5067 99.2684 28.5067ZM99.2684 24.7194C100.423 24.7194 101.445 24.4429 102.334 23.8898C103.224 23.3367 103.921 22.5793 104.426 21.6174C104.955 20.6315 105.22 19.5254 105.22 18.299C105.22 17.0726 104.955 15.9785 104.426 15.0166C103.921 14.0548 103.224 13.2973 102.334 12.7442C101.445 12.1912 100.423 11.9146 99.2684 11.9146C98.1382 11.9146 97.1162 12.1912 96.2024 12.7442C95.3127 13.2973 94.6033 14.0548 94.0743 15.0166C93.5693 15.9785 93.3168 17.0726 93.3168 18.299C93.3168 19.5254 93.5693 20.6315 94.0743 21.6174C94.6033 22.5793 95.3127 23.3367 96.2024 23.8898C97.1162 24.4429 98.1382 24.7194 99.2684 24.7194Z" fill="#191919"/>
</svg>
