<svg width="69" height="19" viewBox="0 0 69 19" fill="none" xmlns="http://www.w3.org/2000/svg">
<path d="M7.12753 18.1693C6.07101 18.1693 5.08995 17.9731 4.18436 17.5806C3.27877 17.1731 2.50902 16.6222 1.8751 15.9279C1.24119 15.2336 0.773299 14.4337 0.471436 13.5281L2.73541 12.5772C3.14293 13.6187 3.73911 14.4186 4.52396 14.9771C5.3088 15.5355 6.21439 15.8147 7.24073 15.8147C7.84446 15.8147 8.37272 15.7242 8.82551 15.5431C9.27831 15.3468 9.62545 15.0752 9.86694 14.728C10.1235 14.3809 10.2518 13.9809 10.2518 13.5281C10.2518 12.9093 10.0782 12.4188 9.7311 12.0565C9.38396 11.6943 8.87079 11.4075 8.1916 11.1962L5.02203 10.2001C3.7542 9.80764 2.78824 9.21146 2.12414 8.41152C1.46004 7.59649 1.12799 6.64562 1.12799 5.55891C1.12799 4.60804 1.36193 3.77791 1.82982 3.06853C2.29771 2.34406 2.93917 1.77807 3.7542 1.37055C4.58433 0.963035 5.52765 0.759277 6.58418 0.759277C7.59542 0.759277 8.5161 0.940395 9.34623 1.30263C10.1764 1.64978 10.8857 2.13276 11.4744 2.75158C12.0781 3.3704 12.5158 4.08733 12.7875 4.90236L10.5688 5.87587C10.2367 4.98537 9.71601 4.29863 9.00663 3.81565C8.31235 3.33267 7.50486 3.09117 6.58418 3.09117C6.02573 3.09117 5.5352 3.18928 5.11259 3.38549C4.68998 3.56661 4.35793 3.83829 4.11644 4.20052C3.89004 4.54767 3.77684 4.95518 3.77684 5.42307C3.77684 5.96643 3.95042 6.44941 4.29756 6.87202C4.6447 7.29463 5.17296 7.61158 5.88234 7.82289L8.82551 8.75112C10.1688 9.15864 11.1801 9.74727 11.8592 10.517C12.5384 11.2717 12.878 12.215 12.878 13.347C12.878 14.2828 12.629 15.1129 12.1309 15.8374C11.6479 16.5618 10.9763 17.1354 10.116 17.558C9.25567 17.9655 8.25952 18.1693 7.12753 18.1693Z" fill="#191919"/>
<path d="M20.9256 18.0334C19.6427 18.0334 18.6465 17.6712 17.9371 16.9467C17.2278 16.2222 16.8731 15.2035 16.8731 13.8903V7.95873H14.7223V5.64947H15.0619C15.6354 5.64947 16.0807 5.48344 16.3976 5.15139C16.7146 4.81934 16.8731 4.36655 16.8731 3.79301V2.84214H19.4314V5.64947H22.2161V7.95873H19.4314V13.7771C19.4314 14.1998 19.4993 14.562 19.6351 14.8639C19.771 15.1506 19.9898 15.377 20.2917 15.5431C20.5935 15.694 20.986 15.7694 21.4689 15.7694C21.5897 15.7694 21.7255 15.7619 21.8765 15.7468C22.0274 15.7317 22.1708 15.7166 22.3066 15.7015V17.8976C22.0953 17.9278 21.8614 17.958 21.6048 17.9881C21.3482 18.0183 21.1218 18.0334 20.9256 18.0334Z" fill="#191919"/>
<path d="M24.8032 17.8976V5.64947H27.3615V17.8976H24.8032ZM24.8032 3.97413V1.03095H27.3615V3.97413H24.8032Z" fill="#191919"/>
<path d="M36.171 18.1693C34.9485 18.1693 33.8617 17.89 32.9109 17.3316C31.9751 16.7581 31.228 15.9883 30.6695 15.0223C30.1262 14.0564 29.8545 12.9621 29.8545 11.7396C29.8545 10.5321 30.1262 9.44541 30.6695 8.47944C31.2129 7.51348 31.96 6.75882 32.9109 6.21546C33.8617 5.65702 34.9485 5.37779 36.171 5.37779C37.0011 5.37779 37.7784 5.52872 38.5029 5.83059C39.2274 6.11736 39.8537 6.51733 40.382 7.0305C40.9254 7.54366 41.3253 8.13984 41.5819 8.81904L39.3406 9.86047C39.084 9.22655 38.6689 8.72093 38.0954 8.3436C37.5369 7.95118 36.8955 7.75497 36.171 7.75497C35.4767 7.75497 34.8504 7.92854 34.2919 8.27568C33.7485 8.60773 33.3184 9.08317 33.0014 9.70199C32.6845 10.3057 32.526 10.9925 32.526 11.7622C32.526 12.532 32.6845 13.2262 33.0014 13.8451C33.3184 14.4488 33.7485 14.9242 34.2919 15.2714C34.8504 15.6185 35.4767 15.7921 36.171 15.7921C36.9106 15.7921 37.552 15.6034 38.0954 15.2261C38.6538 14.8337 39.0689 14.313 39.3406 13.664L41.5819 14.728C41.3404 15.377 40.948 15.9657 40.4046 16.4939C39.8764 17.0071 39.25 17.4146 38.5255 17.7165C37.8011 18.0183 37.0162 18.1693 36.171 18.1693Z" fill="#191919"/>
<path d="M44.0824 17.8976V0.759277H46.6407V12.2376L45.6445 11.9886L51.7799 5.64947H54.9721L50.3536 10.5623L55.1759 17.8976H52.2327L47.9311 11.4L49.448 11.1962L45.8256 15.045L46.6407 13.347V17.8976H44.0824Z" fill="#191919"/>
<path d="M62.6157 18.1693C61.4384 18.1693 60.3592 17.89 59.3782 17.3316C58.4122 16.7731 57.6425 16.0109 57.0689 15.045C56.4954 14.079 56.2086 12.9848 56.2086 11.7622C56.2086 10.5246 56.4954 9.43031 57.0689 8.47944C57.6425 7.51348 58.4122 6.75882 59.3782 6.21546C60.3442 5.65702 61.4233 5.37779 62.6157 5.37779C63.8231 5.37779 64.9023 5.65702 65.8532 6.21546C66.8191 6.75882 67.5813 7.51348 68.1398 8.47944C68.7133 9.43031 69.0001 10.5246 69.0001 11.7622C69.0001 12.9999 68.7133 14.1017 68.1398 15.0676C67.5662 16.0336 66.7965 16.7958 65.8305 17.3542C64.8646 17.8976 63.7929 18.1693 62.6157 18.1693ZM62.6157 15.7921C63.3402 15.7921 63.9816 15.6185 64.5401 15.2714C65.0985 14.9242 65.5362 14.4488 65.8532 13.8451C66.1852 13.2262 66.3512 12.532 66.3512 11.7622C66.3512 10.9925 66.1852 10.3057 65.8532 9.70199C65.5362 9.09826 65.0985 8.62283 64.5401 8.27568C63.9816 7.92854 63.3402 7.75497 62.6157 7.75497C61.9063 7.75497 61.2648 7.92854 60.6913 8.27568C60.1328 8.62283 59.6876 9.09826 59.3555 9.70199C59.0386 10.3057 58.8801 10.9925 58.8801 11.7622C58.8801 12.532 59.0386 13.2262 59.3555 13.8451C59.6876 14.4488 60.1328 14.9242 60.6913 15.2714C61.2648 15.6185 61.9063 15.7921 62.6157 15.7921Z" fill="#191919"/>
</svg>
