<svg width="30" height="30" viewBox="0 0 30 30" fill="none" xmlns="http://www.w3.org/2000/svg">
<path d="M28.9976 14.9976C28.9976 7.26692 22.7306 1 15 1C7.26936 1 1.00244 7.26692 1.00244 14.9976C1.00244 22.7281 7.26936 28.9951 15 28.9951C16.1782 28.9951 17.7995 29.1579 17.7995 27.5954C17.7995 26.7429 17.3561 26.0853 16.9157 25.4319C16.2713 24.476 15.6331 23.5295 16.3998 21.9964C17.333 20.1301 18.8883 20.1301 21.273 20.1301C22.4655 20.1301 23.8652 20.1301 25.4982 19.8967C28.4391 19.4767 28.9976 17.6689 28.9976 14.9976Z" stroke="#0077FF" stroke-width="2"/>
<path d="M8.00146 19.1995L8.01361 19.1962" stroke="#C1DEFF" stroke-width="2" stroke-linecap="round" stroke-linejoin="round"/>
<path d="M11.5005 12.1981C12.6601 12.1981 13.6001 11.258 13.6001 10.0984C13.6001 8.93882 12.6601 7.99878 11.5005 7.99878C10.3409 7.99878 9.40088 8.93882 9.40088 10.0984C9.40088 11.258 10.3409 12.1981 11.5005 12.1981Z" stroke="#C1DEFF" stroke-width="2"/>
<path d="M21.2989 13.5978C22.4585 13.5978 23.3985 12.6578 23.3985 11.4982C23.3985 10.3386 22.4585 9.39856 21.2989 9.39856C20.1393 9.39856 19.1992 10.3386 19.1992 11.4982C19.1992 12.6578 20.1393 13.5978 21.2989 13.5978Z" stroke="#C1DEFF" stroke-width="2"/>
</svg>
