<svg width="13" height="13" viewBox="0 0 13 13" fill="none" xmlns="http://www.w3.org/2000/svg">
<path d="M10.2609 7.23573H10.1584L10.2254 7.31327C10.6553 7.81035 10.8861 8.44976 10.8731 9.10777H10.8731V9.1087C10.8731 10.0335 10.375 10.9248 9.49974 11.5521L9.4997 11.5521C8.69164 12.1326 7.62512 12.4531 6.5 12.4531C5.37488 12.4531 4.30836 12.1326 3.5003 11.5521L3.50026 11.5521C2.62505 10.9248 2.12687 10.0335 2.12687 9.1087C2.12687 8.91352 2.20415 8.72636 2.34166 8.5884C2.47916 8.45044 2.66561 8.37296 2.86 8.37296C3.05439 8.37296 3.24084 8.45044 3.37834 8.5884C3.51585 8.72636 3.59313 8.91352 3.59313 9.1087C3.59313 9.62575 3.93477 10.095 4.46343 10.4325C4.99301 10.7706 5.71696 10.9817 6.5 10.9817C7.28304 10.9817 8.00699 10.7706 8.53657 10.4325C9.06523 10.095 9.40688 9.62575 9.40688 9.1087C9.40688 8.678 9.24898 8.3356 8.87529 8.03816C8.5051 7.74352 7.92332 7.493 7.07577 7.23773L7.07637 7.23573H7.06225H0.78C0.585614 7.23573 0.399157 7.15826 0.261658 7.0203C0.124153 6.88233 0.046875 6.69518 0.046875 6.5C0.046875 6.30482 0.124153 6.11767 0.261658 5.9797C0.399157 5.84174 0.585614 5.76427 0.78 5.76427H12.22C12.4144 5.76427 12.6008 5.84174 12.7383 5.9797C12.8758 6.11767 12.9531 6.30482 12.9531 6.5C12.9531 6.69518 12.8758 6.88233 12.7383 7.0203C12.6008 7.15826 12.4144 7.23573 12.22 7.23573H10.2609ZM3.58049 4.4116C3.44299 4.54956 3.25654 4.62704 3.06215 4.62704C2.86776 4.62704 2.68131 4.54956 2.54381 4.4116C2.4063 4.27364 2.32903 4.08648 2.32903 3.8913C2.32903 1.99253 4.11083 0.546875 6.5 0.546875C8.19303 0.546875 9.59668 1.27757 10.2595 2.49235C10.3418 2.6619 10.356 2.85669 10.2993 3.0365C10.2425 3.21665 10.1188 3.36792 9.95386 3.459C9.78896 3.55008 9.59548 3.57401 9.41348 3.52586C9.23186 3.4778 9.07552 3.36161 8.97675 3.20124C8.56816 2.45564 7.63791 2.01834 6.5 2.01834C5.73485 2.01834 5.06067 2.21588 4.57637 2.54831C4.09171 2.88098 3.79527 3.35065 3.79527 3.8913C3.79527 4.08648 3.718 4.27364 3.58049 4.4116Z" fill="#94A3B8" stroke="#94A3B8" stroke-width="0.09375"/>
</svg>
