<svg width="9" height="13" viewBox="0 0 9 13" fill="none" xmlns="http://www.w3.org/2000/svg">
<path d="M8.95312 11.75C8.95312 11.9373 8.88262 12.1164 8.75786 12.2481C8.63318 12.3797 8.46464 12.4531 8.28947 12.4531H0.710526C0.535358 12.4531 0.366816 12.3797 0.242137 12.2481C0.117377 12.1164 0.046875 11.9373 0.046875 11.75C0.046875 11.5627 0.117377 11.3836 0.242137 11.2519C0.366816 11.1203 0.535358 11.0469 0.710526 11.0469H8.28947C8.46464 11.0469 8.63318 11.1203 8.75786 11.2519C8.88262 11.3836 8.95312 11.5627 8.95312 11.75ZM7.31179 8.72169C6.56552 9.50942 5.55423 9.95197 4.5 9.95312C3.44577 9.95197 2.43448 9.50942 1.68821 8.72169C0.941841 7.93386 0.521645 6.86515 0.520559 5.74995V1.25C0.520559 1.06273 0.591061 0.883599 0.715822 0.751908C0.8405 0.620303 1.00904 0.546875 1.18421 0.546875C1.35938 0.546875 1.52792 0.620303 1.6526 0.751908C1.77736 0.883599 1.84786 1.06273 1.84786 1.25V5.75C1.84786 6.49098 2.1267 7.2021 2.62377 7.72678C3.12092 8.25155 3.79577 8.54688 4.5 8.54688C5.20423 8.54688 5.87908 8.25155 6.37623 7.72678C6.8733 7.2021 7.15214 6.49098 7.15214 5.75V1.25C7.15214 1.06273 7.22264 0.883599 7.3474 0.751908C7.47208 0.620303 7.64062 0.546875 7.81579 0.546875C7.99096 0.546875 8.1595 0.620303 8.28418 0.751908C8.40894 0.883599 8.47944 1.06273 8.47944 1.25V5.74995C8.47836 6.86515 8.05816 7.93386 7.31179 8.72169Z" fill="#94A3B8" stroke="#94A3B8" stroke-width="0.09375"/>
</svg>
