<svg width="12" height="13" viewBox="0 0 12 13" fill="none" xmlns="http://www.w3.org/2000/svg">
<path d="M3.01658 9.80554C3.15156 9.62348 3.25006 9.41504 3.30623 9.19258C3.36241 8.97012 3.37511 8.73816 3.34359 8.51049C3.31273 8.27923 3.2373 8.05686 3.12181 7.85675C3.00632 7.65664 2.85317 7.48294 2.67157 7.34608L3.01658 9.80554ZM3.01658 9.80554L2.19338 10.9531M3.01658 9.80554L2.19338 10.9531M2.19338 10.9531H2.15976V11L2.19784 11.0273L2.21744 11H2.63977C2.83073 11 3.01387 11.079 3.1489 11.2196C3.28393 11.3603 3.35979 11.5511 3.35979 11.75C3.35979 11.9489 3.28393 12.1397 3.1489 12.2803C3.01387 12.421 2.83073 12.5 2.63977 12.5L2.19338 10.9531ZM1.0066 2.45404V2.38864L0.944667 2.40965C0.78501 2.46381 0.611699 2.45372 0.458741 2.38125C0.30572 2.30875 0.183822 2.1789 0.117612 2.01679C0.051387 1.85465 0.0458793 1.67242 0.102221 1.50621C0.158484 1.34022 0.272164 1.20271 0.420329 1.12027L1.37976 0.620565C1.48223 0.567278 1.59594 0.542201 1.71013 0.547592C1.82433 0.552983 1.93544 0.588675 2.03293 0.651443C2.13043 0.714221 2.21114 0.802048 2.26721 0.906757C2.3233 1.01148 2.35283 1.12951 2.35289 1.24965V5.24976C2.35289 5.43685 2.28152 5.61591 2.15506 5.74764C2.02866 5.87931 1.85764 5.95291 1.67974 5.95291C1.50185 5.95291 1.33083 5.87931 1.20443 5.74764C1.07797 5.61591 1.0066 5.43685 1.0066 5.24976V2.45404ZM3.29712 8.51669L3.29715 8.51692C3.32785 8.73863 3.31548 8.9645 3.26078 9.1811C3.20609 9.3977 3.11021 9.60055 2.97892 9.77761L2.97849 9.77821L2.12167 10.9726L2.06844 11.0468H2.15976H2.63977C2.81766 11.0468 2.98868 11.1204 3.11508 11.2521C3.24154 11.3838 3.31291 11.5629 3.31291 11.75C3.31291 11.9371 3.24154 12.1161 3.11508 12.2479C2.98868 12.3795 2.81766 12.4531 2.63977 12.4531H0.71974C0.719734 12.4531 0.719727 12.4531 0.71972 12.4531C0.595263 12.4531 0.473136 12.417 0.366977 12.3486C0.260791 12.2803 0.174688 12.1824 0.118526 12.0656C0.0623575 11.9489 0.0384268 11.818 0.0495222 11.6877C0.0606173 11.5574 0.106278 11.433 0.181203 11.3285L1.90174 8.93199L1.90203 8.93159L1.9092 8.92182C1.93149 8.89288 1.94782 8.85963 1.9573 8.82412C1.96683 8.78841 1.96925 8.75108 1.96443 8.71439L1.96439 8.7141C1.95905 8.6754 1.94609 8.63819 1.92623 8.60478C1.90648 8.57155 1.88029 8.54276 1.8492 8.52029C1.78056 8.4684 1.69518 8.44547 1.61048 8.4566C1.5256 8.46775 1.44848 8.51216 1.39461 8.58012L1.3946 8.58012L1.39404 8.58085C1.37688 8.60339 1.36299 8.62835 1.35278 8.65494L1.35277 8.65494L1.35248 8.65574C1.2895 8.82905 1.16372 8.96895 1.00302 9.04569C0.8424 9.1224 0.659398 9.13008 0.493453 9.06714C0.327439 9.00418 0.191338 8.87539 0.115186 8.70802C0.0390511 8.54069 0.0292019 8.34871 0.0878513 8.17379C0.145567 8.00871 0.227669 7.8541 0.331146 7.71555C0.60139 7.35967 0.992852 7.12683 1.42342 7.06503C1.85401 7.00323 2.29108 7.11717 2.6433 7.38347L2.64336 7.38351C2.81985 7.51652 2.96882 7.68544 3.08121 7.88018C3.1936 8.07493 3.26707 8.29144 3.29712 8.51669ZM11.9531 6.74981C11.9531 6.9369 11.8818 7.11596 11.7553 7.24769C11.6289 7.37936 11.4579 7.45296 11.28 7.45296H5.27983C5.10194 7.45296 4.93092 7.37936 4.80452 7.24769C4.67806 7.11596 4.60669 6.9369 4.60669 6.74981C4.60669 6.56272 4.67806 6.38366 4.80452 6.25192C4.93092 6.12026 5.10194 6.04666 5.27983 6.04666H11.28C11.4579 6.04666 11.6289 6.12025 11.7553 6.25192C11.8818 6.38366 11.9531 6.56272 11.9531 6.74981ZM11.28 3.45282H5.27983C5.10194 3.45282 4.93092 3.37923 4.80452 3.24756C4.67806 3.11583 4.60669 2.93677 4.60669 2.74967C4.60669 2.56258 4.67806 2.38352 4.80452 2.25179C4.93092 2.12012 5.10194 2.04652 5.27983 2.04652H11.28C11.4579 2.04652 11.6289 2.12012 11.7553 2.25179C11.8818 2.38352 11.9531 2.56258 11.9531 2.74967C11.9531 2.93677 11.8818 3.11583 11.7553 3.24756C11.6289 3.37923 11.4579 3.45282 11.28 3.45282ZM5.27983 10.0468H11.28C11.4579 10.0468 11.6289 10.1204 11.7553 10.2521C11.8818 10.3838 11.9531 10.5629 11.9531 10.7499C11.9531 10.937 11.8818 11.1161 11.7553 11.2478C11.6289 11.3795 11.4579 11.4531 11.28 11.4531H5.27983C5.10194 11.4531 4.93092 11.3795 4.80452 11.2478C4.67806 11.1161 4.60669 10.937 4.60669 10.7499C4.60669 10.5629 4.67806 10.3838 4.80452 10.2521C4.93092 10.1204 5.10194 10.0468 5.27983 10.0468Z" fill="#94A3B8" stroke="#94A3B8" stroke-width="0.09375"/>
</svg>
