<svg width="22" height="20" viewBox="0 0 22 20" fill="none" xmlns="http://www.w3.org/2000/svg">
<path d="M20.011 12.0265C20.5329 11.8905 20.7939 11.8224 20.8969 11.6923C21 11.5623 21 11.3531 21 10.9346V9.06546C21 8.64702 21 8.43775 20.8969 8.30774C20.7938 8.17763 20.5329 8.10958 20.011 7.97357C18.0606 7.46513 16.8399 5.49414 17.3433 3.62119C17.4817 3.1061 17.5509 2.84856 17.4848 2.69752C17.4187 2.54646 17.2291 2.44237 16.8497 2.23419L15.125 1.28765C14.7528 1.08337 14.5667 0.981226 14.3997 1.00297C14.2326 1.02472 14.0442 1.20646 13.6672 1.5699C12.208 2.97705 9.7936 2.97699 8.33434 1.56982C7.95743 1.20636 7.76898 1.02464 7.60193 1.00288C7.43489 0.98113 7.24877 1.08327 6.87653 1.28756L5.15184 2.23409C4.77253 2.44227 4.58287 2.54636 4.51678 2.69738C4.45068 2.84841 4.51987 3.10599 4.65825 3.62112C5.16137 5.49412 3.93972 7.46518 1.98902 7.97358C1.46712 8.10958 1.20617 8.17763 1.10308 8.30764C1 8.43775 1 8.64702 1 9.06546V10.9346C1 11.3531 1 11.5623 1.10308 11.6923C1.20615 11.8224 1.46711 11.8905 1.98902 12.0265C3.9394 12.5349 5.16008 14.5059 4.65672 16.3789C4.51829 16.894 4.44907 17.1515 4.51516 17.3026C4.58126 17.4536 4.77092 17.5577 5.15025 17.7659L6.87495 18.7125C7.24721 18.9167 7.43334 19.0189 7.6004 18.9971C7.76746 18.9754 7.95588 18.7936 8.33271 18.4301C9.7927 17.0218 12.2088 17.0218 13.6689 18.43C14.0457 18.7936 14.2341 18.9753 14.4012 18.997C14.5682 19.0188 14.7544 18.9166 15.1266 18.7124L16.8513 17.7658C17.2307 17.5576 17.4204 17.4535 17.4864 17.3025C17.5525 17.1514 17.4833 16.8939 17.3448 16.3789C16.8412 14.5059 18.0609 12.535 20.011 12.0265Z" stroke="#F7941D" stroke-width="2" stroke-linecap="round"/>
</svg>
