<svg width="20" height="20" viewBox="0 0 20 20" fill="none" xmlns="http://www.w3.org/2000/svg">
<path d="M15.2105 15.2105L19 19M4.28912 2.22478L7.45902 3.29319C7.89731 3.4449 8.56237 3.3457 8.93895 3.07742L11.1627 1.49152C12.5854 0.478 13.7629 1.08248 13.7642 2.83943L13.7764 5.81369C13.7785 6.3174 14.1288 6.94246 14.5556 7.21406L16.8277 8.63854C18.6248 9.76733 18.4206 11.1036 16.3723 11.6228L13.5216 12.3427C13.0065 12.4725 12.4751 13.004 12.3393 13.5252L11.6196 16.3765C11.1064 18.4191 9.75833 18.6234 8.63588 16.8319L7.21161 14.5594C6.94007 14.1325 6.31512 13.7822 5.8115 13.7801L2.83779 13.7679C1.08714 13.7607 0.476796 12.5889 1.49014 11.1658L3.07573 8.9417C3.338 8.57108 3.43718 7.90585 3.2855 7.4675L2.21728 4.297C1.64064 2.57366 2.57207 1.64206 4.28912 2.22478Z" stroke="#0077FF" stroke-width="2" stroke-linecap="round" stroke-linejoin="round"/>
</svg>
