<svg width="17" height="15" viewBox="0 0 17 15" fill="none" xmlns="http://www.w3.org/2000/svg">
<path d="M16.7209 6.81937L16.7211 6.8195C16.7947 6.89121 16.853 6.97638 16.8928 7.07011C16.9326 7.16384 16.9531 7.26429 16.9531 7.36573C16.9531 7.46716 16.9326 7.56762 16.8928 7.66135C16.853 7.75507 16.7947 7.84025 16.7211 7.91195L16.721 7.91203L13.492 11.0711L13.4919 11.0712C13.3673 11.1939 13.219 11.2913 13.0556 11.3575C12.8922 11.4238 12.7169 11.4577 12.5399 11.4573C12.3887 11.4566 12.2386 11.4314 12.0958 11.3827L12.0685 11.3734L12.0479 11.3936L10.7055 12.7073C10.7055 12.7073 10.7055 12.7073 10.7055 12.7073C10.4531 12.9542 10.1105 13.0931 9.7532 13.0931C9.39586 13.0931 9.05334 12.9542 8.80093 12.7073L8.67136 12.5805L8.63859 12.5484L8.6058 12.5805L6.41068 14.7265L6.41064 14.7266C6.3374 14.7983 6.25038 14.8553 6.15451 14.8942C6.05864 14.9331 5.95584 14.9531 5.852 14.9531H5.85194C5.76717 14.9532 5.68296 14.9398 5.60267 14.9132L5.60251 14.9132L0.586672 13.277L0.586643 13.277C0.458859 13.2354 0.344173 13.1626 0.25343 13.0655C0.162693 12.9685 0.0989019 12.8504 0.0680115 12.7226C0.0371221 12.5948 0.040132 12.4615 0.0767622 12.3351C0.113394 12.2088 0.18246 12.0936 0.277504 12.0005L4.14318 8.21627L4.17713 8.18304L4.14344 8.14954L4.01596 8.02274L4.01569 8.02247C3.76339 7.7755 3.62184 7.44079 3.62184 7.09202C3.62184 6.74324 3.76339 6.40854 4.01569 6.16156C4.01569 6.16156 4.01569 6.16156 4.01569 6.16156L5.35882 4.8472L5.38027 4.82621L5.37018 4.79794C5.28683 4.5645 5.27241 4.31285 5.32852 4.07179C5.38463 3.83074 5.50905 3.6099 5.68765 3.43466C5.68766 3.43465 5.68767 3.43464 5.68768 3.43463L8.91658 0.273524C9.06476 0.128516 9.26595 0.046875 9.47594 0.046875C9.68593 0.046875 9.88712 0.128516 10.0353 0.273524C10.1834 0.418499 10.2665 0.614908 10.2665 0.819486C10.2665 1.02406 10.1834 1.22047 10.0353 1.36544L7.00351 4.33162L6.96927 4.36512L7.00351 4.39863L12.507 9.78424L12.5398 9.81632L12.5726 9.78424L15.6023 6.81943L15.6023 6.81937C15.6756 6.74742 15.7627 6.69029 15.8587 6.65128C15.9547 6.61228 16.0576 6.59219 16.1616 6.59219C16.2656 6.59219 16.3686 6.61228 16.4646 6.65128C16.5606 6.69029 16.6477 6.74742 16.7209 6.81937ZM8.63858 12.614L8.76815 12.7408L3.9829 6.12806C3.7217 6.38374 3.57497 6.73048 3.57497 7.09202C3.57497 7.45355 3.7217 7.80029 3.9829 8.05597L4.07715 8.14971L4.0776 8.14928L4.11039 8.18277L4.11036 8.1828L4.07733 8.21601L4.07689 8.21557L0.244713 11.967C0.143955 12.0657 0.0706427 12.1879 0.0317412 12.3221C-0.00716029 12.4562 -0.0103591 12.5979 0.0224486 12.7336C0.0552563 12.8694 0.122981 12.9946 0.219189 13.0975C0.315397 13.2005 0.436893 13.2776 0.572136 13.3216L5.58797 14.9577C5.67303 14.9858 5.76222 15.0001 5.852 15C5.96186 15 6.07064 14.9788 6.17213 14.9376C6.27362 14.8964 6.36581 14.8361 6.44345 14.76L8.63857 12.614L8.63858 12.614ZM5.61175 13.2905L5.63878 13.2993L5.65909 13.2794L7.48708 11.4885L7.52128 11.455L7.48706 11.4215L5.32747 9.3082L5.29469 9.27613L5.26191 9.30819L2.35064 12.1551L2.29532 12.2092L2.36888 12.2331L5.61175 13.2905ZM9.72043 11.4204L9.75321 11.4524L9.78599 11.4204L10.831 10.3978L10.8652 10.3643L10.831 10.3308L6.4421 6.03593L6.40931 6.00385L6.37653 6.03593L5.33156 7.05851L5.29739 7.09195L5.3315 7.12545L5.85328 7.63811L5.85336 7.63818L9.72043 11.4204Z" fill="#94A3B8" stroke="#94A3B8" stroke-width="0.09375"/>
</svg>
