<svg width="25" height="25" viewBox="0 0 25 25" fill="none" xmlns="http://www.w3.org/2000/svg">
<path d="M11 20.5C7.22876 20.5 5.34315 20.5 4.17157 19.3284C3 18.1569 3 16.2712 3 12.5V11.5C3 7.72876 3 5.84315 4.17157 4.67157C5.34315 3.5 7.22876 3.5 11 3.5H14.5C17.7875 3.5 19.4312 3.5 20.5376 4.40796C20.7401 4.57418 20.9258 4.75989 21.092 4.96243C22 6.06878 22 7.71252 22 11M3 9.5H22M6.5 6.5H6.50998M10.49 6.5H10.5M15.6716 22.5H14V20.8284C14 20.298 14.2107 19.7893 14.5858 19.4142L20.0616 13.9393C20.6474 13.3536 21.5972 13.3536 22.183 13.9393L22.5616 14.318C23.1474 14.9038 23.1474 15.8536 22.5616 16.4393L17.0858 21.9142C16.7107 22.2893 16.202 22.5 15.6716 22.5Z" stroke="#191919" stroke-width="1.5" stroke-linecap="round" stroke-linejoin="round"/>
</svg>
